<?xml version="1.0" encoding="UTF-8" standalone="no"?>
<!-- Created with Inkscape (http://www.inkscape.org/) -->

<svg
   width="672"
   height="1024"
   viewBox="0 0 177.8 270.93333"
   version="1.1"
   id="svg1"
   inkscape:version="1.4.2 (ebf0e940d0, 2025-05-08)"
   sodipodi:docname="akesi.svg"
   xmlns:inkscape="http://www.inkscape.org/namespaces/inkscape"
   xmlns:sodipodi="http://sodipodi.sourceforge.net/DTD/sodipodi-0.dtd"
   xmlns="http://www.w3.org/2000/svg"
   xmlns:svg="http://www.w3.org/2000/svg">
  <sodipodi:namedview
     id="namedview1"
     pagecolor="#ffffff"
     bordercolor="#eeeeee"
     borderopacity="1"
     inkscape:showpageshadow="0"
     inkscape:pageopacity="0"
     inkscape:pagecheckerboard="0"
     inkscape:deskcolor="#505050"
     inkscape:document-units="mm"
     showgrid="true"
     inkscape:zoom="0.5"
     inkscape:cx="545"
     inkscape:cy="697"
     inkscape:window-width="950"
     inkscape:window-height="1039"
     inkscape:window-x="962"
     inkscape:window-y="33"
     inkscape:window-maximized="1"
     inkscape:current-layer="layer1">
    <inkscape:grid
       id="grid1"
       units="px"
       originx="0"
       originy="0"
       spacingx="7.9375"
       spacingy="7.9375"
       empcolor="#ffffff"
       empopacity="0.54509804"
       color="#ffffff"
       opacity="0.14901961"
       empspacing="4"
       enabled="false"
       visible="true" />
    <inkscape:grid
       id="grid2"
       units="px"
       originx="0"
       originy="0"
       spacingx="3.96875"
       spacingy="3.96875"
       empcolor="#ffffff"
       empopacity="0.30196078"
       color="#ffffff"
       opacity="0.14901961"
       empspacing="4"
       enabled="false"
       visible="true" />
  </sodipodi:namedview>
  <defs
     id="defs1" />
  <g
     inkscape:label="Layer 1"
     inkscape:groupmode="layer"
     id="layer1">
    <path
       id="path83-6-3-2-6-8-7"
       style="vector-effect:non-scaling-stroke;fill:#000000;stroke:none;stroke-width:0.264583;stroke-miterlimit:7.9;-inkscape-stroke:hairline;paint-order:stroke fill markers"
       d="m 61.388156,65.619375 c -5.845,0 -10.5833,4.7383 -10.5833,10.5833 0,5.845 4.7383,10.5833 10.5833,10.5833 5.845,0 10.5833,-4.7383 10.5833,-10.5833 0,-5.845 -4.7383,-10.5833 -10.5833,-10.5833 z m 55.031304,0 c -5.845,0 -10.5834,4.7383 -10.5834,10.5833 0,5.845 4.7384,10.5833 10.5834,10.5833 5.845,0 10.5833,-4.7383 10.5833,-10.5833 0,-5.845 -4.7383,-10.5833 -10.5833,-10.5833 z m -27.516704,21.1656 c -18.7039,0 -33.8664,15.162295 -33.8667,33.866195 h -16.9333 v 16.9333 h 16.9333 v 16.9328 h -16.9333 v 16.9333 h 16.9338 c 3e-4,18.7039 15.1628,33.8662 33.8667,33.8662 18.703904,0 33.866404,-15.1623 33.866704,-33.8662 h 16.9328 v -16.9333 h -16.9333 v -16.9328 h 16.9333 v -16.9333 h -16.9333 c -3e-4,-18.7039 -15.1628,-33.866195 -33.866704,-33.866195 z m 0,16.932795 c 9.3522,-1e-4 16.933704,7.5812 16.933804,16.9334 H 71.968856 c 1e-4,-9.3522 7.5817,-16.9336 16.9339,-16.9334 z m -16.9333,33.8667 h 33.866604 v 16.9328 H 71.969456 Z m 0,33.8661 h 33.867704 c -2e-4,9.3522 -7.581704,16.9335 -16.933904,16.9333 -9.3521,1e-4 -16.9336,-7.5812 -16.9338,-16.9333 z"
       sodipodi:nodetypes="sssssssssssccccccccsccccccccsccccccccccccc" />
  </g>
</svg>
