<?xml version="1.0" encoding="UTF-8" standalone="no"?>
<!-- Created with Inkscape (http://www.inkscape.org/) -->

<svg
   width="672"
   height="1024"
   viewBox="0 0 177.8 270.93333"
   version="1.1"
   id="svg1"
   inkscape:version="1.4.2 (ebf0e940d0, 2025-05-08)"
   sodipodi:docname="ale.svg"
   xmlns:inkscape="http://www.inkscape.org/namespaces/inkscape"
   xmlns:sodipodi="http://sodipodi.sourceforge.net/DTD/sodipodi-0.dtd"
   xmlns="http://www.w3.org/2000/svg"
   xmlns:svg="http://www.w3.org/2000/svg">
  <sodipodi:namedview
     id="namedview1"
     pagecolor="#ffffff"
     bordercolor="#eeeeee"
     borderopacity="1"
     inkscape:showpageshadow="0"
     inkscape:pageopacity="0"
     inkscape:pagecheckerboard="0"
     inkscape:deskcolor="#505050"
     inkscape:document-units="mm"
     showgrid="true"
     inkscape:zoom="0.35355339"
     inkscape:cx="354.9676"
     inkscape:cy="567.09964"
     inkscape:window-width="950"
     inkscape:window-height="1039"
     inkscape:window-x="962"
     inkscape:window-y="33"
     inkscape:window-maximized="1"
     inkscape:current-layer="layer1">
    <inkscape:grid
       id="grid1"
       units="px"
       originx="0"
       originy="0"
       spacingx="7.9375"
       spacingy="7.9375"
       empcolor="#ffffff"
       empopacity="0.54509804"
       color="#ffffff"
       opacity="0.14901961"
       empspacing="4"
       enabled="false"
       visible="true" />
    <inkscape:grid
       id="grid2"
       units="px"
       originx="0"
       originy="0"
       spacingx="3.96875"
       spacingy="3.96875"
       empcolor="#ffffff"
       empopacity="0.30196078"
       color="#ffffff"
       opacity="0.14901961"
       empspacing="4"
       enabled="false"
       visible="true" />
  </sodipodi:namedview>
  <defs
     id="defs1" />
  <g
     inkscape:label="Layer 1"
     inkscape:groupmode="layer"
     id="layer1">
    <path
       id="path31-8-6-1"
       style="vector-effect:non-scaling-stroke;fill:#000000;stroke:none;stroke-width:0.264583;stroke-linecap:square;stroke-miterlimit:180;stroke-dasharray:none;-inkscape-stroke:hairline;paint-order:fill markers stroke"
       d="m 50.799769,101.60074 c -18.7008,0 -33.8624,15.1617 -33.8624,33.8688 0,18.7008 15.1616,33.8624 33.8624,33.8624 8.3328,0 16.3712,-3.072 22.5792,-8.6208 l 15.5264,-13.888 15.520001,13.888 c 6.208,5.568 14.2464,8.6208 22.5792,8.6208 18.7008,0 33.8624,-15.1616 33.8624,-33.8624 0,-18.7072 -15.1616,-33.8688 -33.8624,-33.8688 -8.3328,0 -16.3712,3.072 -22.5792,8.6273 l -15.520001,13.8816 -15.5264,-13.8816 c -6.208,-5.5681 -14.2464,-8.6273 -22.5792,-8.6273 z m 0,16.9344 c 4.16,0 8.1856,1.536 11.2896,4.288 l 14.112,12.6208 -14.112,12.6209 c -3.136,2.752 -7.1232,4.288 -11.2896,4.288 -9.3504,0 -16.928,-7.584 -16.928,-16.9344 0,-9.3568 7.5776,-16.9345 16.928,-16.9345 z m 76.204801,0 c 9.3504,0 16.9344,7.5776 16.9344,16.9344 0,9.3504 -7.584,16.9345 -16.9344,16.9345 -4.16,0 -8.1856,-1.5361 -11.2896,-4.288 l -14.112,-12.6209 14.112,-12.6208 c 3.072,-2.752 7.1232,-4.288 11.2896,-4.288 z" />
  </g>
</svg>
