<?xml version="1.0" encoding="UTF-8" standalone="no"?>
<!-- Created with Inkscape (http://www.inkscape.org/) -->

<svg
   width="672"
   height="1024"
   viewBox="0 0 177.8 270.93333"
   version="1.1"
   id="svg1"
   inkscape:version="1.4.2 (ebf0e940d0, 2025-05-08)"
   sodipodi:docname="esun.svg"
   xmlns:inkscape="http://www.inkscape.org/namespaces/inkscape"
   xmlns:sodipodi="http://sodipodi.sourceforge.net/DTD/sodipodi-0.dtd"
   xmlns="http://www.w3.org/2000/svg"
   xmlns:svg="http://www.w3.org/2000/svg">
  <sodipodi:namedview
     id="namedview1"
     pagecolor="#ffffff"
     bordercolor="#eeeeee"
     borderopacity="1"
     inkscape:showpageshadow="0"
     inkscape:pageopacity="0"
     inkscape:pagecheckerboard="0"
     inkscape:deskcolor="#505050"
     inkscape:document-units="mm"
     showgrid="true"
     inkscape:zoom="0.35355339"
     inkscape:cx="581.24177"
     inkscape:cy="567.09964"
     inkscape:window-width="950"
     inkscape:window-height="1039"
     inkscape:window-x="962"
     inkscape:window-y="33"
     inkscape:window-maximized="1"
     inkscape:current-layer="layer1">
    <inkscape:grid
       id="grid1"
       units="px"
       originx="0"
       originy="0"
       spacingx="7.9375"
       spacingy="7.9375"
       empcolor="#ffffff"
       empopacity="0.54509804"
       color="#ffffff"
       opacity="0.14901961"
       empspacing="4"
       enabled="false"
       visible="true" />
    <inkscape:grid
       id="grid2"
       units="px"
       originx="0"
       originy="0"
       spacingx="3.96875"
       spacingy="3.96875"
       empcolor="#ffffff"
       empopacity="0.30196078"
       color="#ffffff"
       opacity="0.14901961"
       empspacing="4"
       enabled="false"
       visible="true" />
  </sodipodi:namedview>
  <defs
     id="defs1" />
  <g
     inkscape:label="Layer 1"
     inkscape:groupmode="layer"
     id="layer1">
    <path
       id="path4-1-6-8"
       style="vector-effect:non-scaling-stroke;fill:#000000;stroke:none;stroke-width:0.264583;stroke-miterlimit:7.9;-inkscape-stroke:hairline;paint-order:stroke fill markers"
       d="m 71.674923,172.51538 c -1.472,7.8485 -8.3647,13.7893 -16.6398,13.7893 -9.3502,0 -16.9341,-7.586 -16.9341,-16.9389 0,-9.3529 7.5839,-16.9389 16.9341,-16.9389 2.944,0 5.6959,0.7682 8.1215,2.0485 l 85.381097,46.6813 8.0959,-14.8776 -85.355497,-46.6685 c -4.8,-2.6247 -10.3551,-4.1611 -16.243,-4.1611 -18.7069,0 -33.8682,15.1657 -33.8682,33.8715 0,18.7122 15.1613,33.8778 33.8682,33.8778 16.5502,0 30.3291,-11.8751 33.2795,-27.5721 L 106.12562,98.421975 c 1.472,-7.8485 8.3646,-13.7893 16.6397,-13.7893 9.3503,0 16.9341,7.586 16.9341,16.938905 0,9.3529 -7.5838,16.939 -16.9341,16.939 -2.9439,0 -5.6959,-0.7682 -8.1215,-2.0486 l -85.380997,-46.681305 -8.0959,14.8776 85.355497,46.668505 c 4.7999,2.6247 10.355,4.1611 16.2429,4.1611 18.7069,0 33.8683,-15.172 33.8683,-33.8779 0,-18.712205 -15.1614,-33.877805 -33.8683,-33.877805 -16.5501,0 -30.329097,11.8752 -33.279397,27.5722 z"
       sodipodi:nodetypes="csssccccsssccsssccccssscc" />
  </g>
</svg>
