<?xml version="1.0" encoding="UTF-8" standalone="no"?>
<!-- Created with Inkscape (http://www.inkscape.org/) -->

<svg
   width="672"
   height="1024"
   viewBox="0 0 177.8 270.93333"
   version="1.1"
   id="svg1"
   inkscape:version="1.4.2 (ebf0e940d0, 2025-05-08)"
   sodipodi:docname="jan.svg"
   xmlns:inkscape="http://www.inkscape.org/namespaces/inkscape"
   xmlns:sodipodi="http://sodipodi.sourceforge.net/DTD/sodipodi-0.dtd"
   xmlns="http://www.w3.org/2000/svg"
   xmlns:svg="http://www.w3.org/2000/svg">
  <sodipodi:namedview
     id="namedview1"
     pagecolor="#ffffff"
     bordercolor="#eeeeee"
     borderopacity="1"
     inkscape:showpageshadow="0"
     inkscape:pageopacity="0"
     inkscape:pagecheckerboard="0"
     inkscape:deskcolor="#505050"
     inkscape:document-units="mm"
     showgrid="true"
     inkscape:zoom="0.35355339"
     inkscape:cx="807.51594"
     inkscape:cy="567.09964"
     inkscape:window-width="950"
     inkscape:window-height="1039"
     inkscape:window-x="962"
     inkscape:window-y="33"
     inkscape:window-maximized="1"
     inkscape:current-layer="layer1">
    <inkscape:grid
       id="grid1"
       units="px"
       originx="0"
       originy="0"
       spacingx="7.9375"
       spacingy="7.9375"
       empcolor="#ffffff"
       empopacity="0.54509804"
       color="#ffffff"
       opacity="0.14901961"
       empspacing="4"
       enabled="false"
       visible="true" />
    <inkscape:grid
       id="grid2"
       units="px"
       originx="0"
       originy="0"
       spacingx="3.96875"
       spacingy="3.96875"
       empcolor="#ffffff"
       empopacity="0.30196078"
       color="#ffffff"
       opacity="0.14901961"
       empspacing="4"
       enabled="false"
       visible="true" />
  </sodipodi:namedview>
  <defs
     id="defs1" />
  <g
     inkscape:label="Layer 1"
     inkscape:groupmode="layer"
     id="layer1">
    <path
       id="path117"
       style="vector-effect:non-scaling-stroke;fill:#000000;stroke:none;stroke-width:0.264583;stroke-miterlimit:7.9;-inkscape-stroke:hairline;paint-order:stroke fill markers"
       d="m 88.901138,65.617536 c -28.0561,0 -50.8,22.7439 -50.8,50.800004 0,17.5126 8.8616,32.9553 22.3454,42.0889 l -22.3454,44.6944 h 18.9311 l 18.834,-37.6711 c 4.1598,1.1012 8.5289,1.6878 13.0349,1.6878 4.506,0 8.8751,-0.5866 13.034902,-1.6878 l 18.834,37.6711 h 18.9311 l -22.3454,-44.6944 c 13.4838,-9.1336 22.3454,-24.5763 22.3454,-42.0889 0,-28.056104 -22.7439,-50.800004 -50.800002,-50.800004 z m 0,16.9339 c 18.703902,-2e-4 33.866402,15.1622 33.866702,33.866104 10e-5,18.7041 -15.1626,33.8668 -33.866702,33.8667 -18.7041,10e-5 -33.8668,-15.1626 -33.8667,-33.8667 3e-4,-18.703904 15.1628,-33.866304 33.8667,-33.866104 z" />
  </g>
</svg>
