<?xml version="1.0" encoding="UTF-8" standalone="no"?>
<!-- Created with Inkscape (http://www.inkscape.org/) -->

<svg
   width="672"
   height="1024"
   viewBox="0 0 177.8 270.93333"
   version="1.1"
   id="svg1"
   inkscape:version="1.4.2 (ebf0e940d0, 2025-05-08)"
   sodipodi:docname="jo.svg"
   xmlns:inkscape="http://www.inkscape.org/namespaces/inkscape"
   xmlns:sodipodi="http://sodipodi.sourceforge.net/DTD/sodipodi-0.dtd"
   xmlns="http://www.w3.org/2000/svg"
   xmlns:svg="http://www.w3.org/2000/svg">
  <sodipodi:namedview
     id="namedview1"
     pagecolor="#ffffff"
     bordercolor="#eeeeee"
     borderopacity="1"
     inkscape:showpageshadow="0"
     inkscape:pageopacity="0"
     inkscape:pagecheckerboard="0"
     inkscape:deskcolor="#505050"
     inkscape:document-units="mm"
     showgrid="true"
     inkscape:zoom="0.35355339"
     inkscape:cx="807.51594"
     inkscape:cy="567.09964"
     inkscape:window-width="950"
     inkscape:window-height="1039"
     inkscape:window-x="962"
     inkscape:window-y="33"
     inkscape:window-maximized="1"
     inkscape:current-layer="layer1">
    <inkscape:grid
       id="grid1"
       units="px"
       originx="0"
       originy="0"
       spacingx="7.9375"
       spacingy="7.9375"
       empcolor="#ffffff"
       empopacity="0.54509804"
       color="#ffffff"
       opacity="0.14901961"
       empspacing="4"
       enabled="false"
       visible="true" />
    <inkscape:grid
       id="grid2"
       units="px"
       originx="0"
       originy="0"
       spacingx="3.96875"
       spacingy="3.96875"
       empcolor="#ffffff"
       empopacity="0.30196078"
       color="#ffffff"
       opacity="0.14901961"
       empspacing="4"
       enabled="false"
       visible="true" />
  </sodipodi:namedview>
  <defs
     id="defs1" />
  <g
     inkscape:label="Layer 1"
     inkscape:groupmode="layer"
     id="layer1">
    <path
       id="path92-8-9-7-5"
       style="vector-effect:non-scaling-stroke;fill:#000000;stroke:none;stroke-width:0.264583;stroke-miterlimit:7.9;-inkscape-stroke:hairline;paint-order:stroke fill markers"
       d="m 88.901144,65.614712 a 33.866666,33.866666 0 0 0 -33.8688,33.8687 33.866666,33.866666 0 0 0 3.2556,14.491198 c -12.5147,9.4496 -20.1904,24.3648 -20.1904,40.5427 0,28.0577 22.746,50.8031 50.8036,50.8031 27.231996,0 49.619096,-21.4785 50.751896,-48.6849 h 0.045 v -8.4672 H 88.901144 v 16.9344 h 32.172696 c -4.608,13.8944 -17.5487,23.2833 -32.172696,23.2833 -18.7072,0 -33.8688,-15.1614 -33.8688,-33.8687 0,-10.93 5.2906,-21.1668 14.1232,-27.5151 a 33.866666,33.866666 0 0 0 19.7456,6.35 33.866666,33.866666 0 0 0 33.868696,-33.868798 33.866666,33.866666 0 0 0 -33.868696,-33.8687 z m 0,16.9344 a 16.933333,16.933333 0 0 1 16.934296,16.9343 16.933333,16.933333 0 0 1 -16.934296,16.934398 16.933333,16.933333 0 0 1 -16.9344,-16.934398 16.933333,16.933333 0 0 1 16.9344,-16.9343 z" />
  </g>
</svg>
