<?xml version="1.0" encoding="UTF-8" standalone="no"?>
<!-- Created with Inkscape (http://www.inkscape.org/) -->

<svg
   width="672"
   height="1024"
   viewBox="0 0 177.8 270.93333"
   version="1.1"
   id="svg1"
   inkscape:version="1.4.2 (ebf0e940d0, 2025-05-08)"
   sodipodi:docname="kala.svg"
   xmlns:inkscape="http://www.inkscape.org/namespaces/inkscape"
   xmlns:sodipodi="http://sodipodi.sourceforge.net/DTD/sodipodi-0.dtd"
   xmlns="http://www.w3.org/2000/svg"
   xmlns:svg="http://www.w3.org/2000/svg">
  <sodipodi:namedview
     id="namedview1"
     pagecolor="#ffffff"
     bordercolor="#eeeeee"
     borderopacity="1"
     inkscape:showpageshadow="0"
     inkscape:pageopacity="0"
     inkscape:pagecheckerboard="0"
     inkscape:deskcolor="#505050"
     inkscape:document-units="mm"
     showgrid="true"
     inkscape:zoom="0.35355339"
     inkscape:cx="807.51594"
     inkscape:cy="567.09964"
     inkscape:window-width="950"
     inkscape:window-height="1039"
     inkscape:window-x="962"
     inkscape:window-y="33"
     inkscape:window-maximized="1"
     inkscape:current-layer="layer1">
    <inkscape:grid
       id="grid1"
       units="px"
       originx="0"
       originy="0"
       spacingx="7.9375"
       spacingy="7.9375"
       empcolor="#ffffff"
       empopacity="0.54509804"
       color="#ffffff"
       opacity="0.14901961"
       empspacing="4"
       enabled="false"
       visible="true" />
    <inkscape:grid
       id="grid2"
       units="px"
       originx="0"
       originy="0"
       spacingx="3.96875"
       spacingy="3.96875"
       empcolor="#ffffff"
       empopacity="0.30196078"
       color="#ffffff"
       opacity="0.14901961"
       empspacing="4"
       enabled="false"
       visible="true" />
  </sodipodi:namedview>
  <defs
     id="defs1" />
  <g
     inkscape:label="Layer 1"
     inkscape:groupmode="layer"
     id="layer1">
    <path
       id="path105-5"
       style="vector-effect:non-scaling-stroke;fill:#000000;stroke:none;stroke-width:0.264584;stroke-miterlimit:7.9;-inkscape-stroke:hairline;paint-order:stroke fill markers"
       d="m 19.050851,88.90239 a 93.133327,93.133327 0 0 0 12.6528,46.5664 93.133327,93.133327 0 0 0 -12.6528,46.5664 h 16.9344 a 76.199969,76.199969 0 0 1 6.6688,-31.1744 93.133327,93.133327 0 0 0 69.529699,31.1744 46.566662,46.566662 0 0 0 46.5664,-46.5664 46.566662,46.566662 0 0 0 -46.5664,-46.5664 93.133327,93.133327 0 0 0 -69.529699,31.168 76.199969,76.199969 0 0 1 -6.6688,-31.168 z m 93.132899,16.928 a 29.633333,29.633333 0 0 1 29.632,29.6384 29.633333,29.633333 0 0 1 -29.632,29.632 76.199969,76.199969 0 0 1 -60.313699,-29.632 76.199969,76.199969 0 0 1 60.313699,-29.6384 z" />
  </g>
</svg>
