<?xml version="1.0" encoding="UTF-8" standalone="no"?>
<!-- Created with Inkscape (http://www.inkscape.org/) -->

<svg
   width="672"
   height="1024"
   viewBox="0 0 177.8 270.93333"
   version="1.1"
   id="svg1"
   inkscape:version="1.4.2 (ebf0e940d0, 2025-05-08)"
   sodipodi:docname="kon.svg"
   xmlns:inkscape="http://www.inkscape.org/namespaces/inkscape"
   xmlns:sodipodi="http://sodipodi.sourceforge.net/DTD/sodipodi-0.dtd"
   xmlns="http://www.w3.org/2000/svg"
   xmlns:svg="http://www.w3.org/2000/svg">
  <sodipodi:namedview
     id="namedview1"
     pagecolor="#ffffff"
     bordercolor="#eeeeee"
     borderopacity="1"
     inkscape:showpageshadow="0"
     inkscape:pageopacity="0"
     inkscape:pagecheckerboard="0"
     inkscape:deskcolor="#505050"
     inkscape:document-units="mm"
     showgrid="true"
     inkscape:zoom="0.5"
     inkscape:cx="641"
     inkscape:cy="549"
     inkscape:window-width="950"
     inkscape:window-height="1039"
     inkscape:window-x="962"
     inkscape:window-y="33"
     inkscape:window-maximized="1"
     inkscape:current-layer="layer1">
    <inkscape:grid
       id="grid1"
       units="px"
       originx="0"
       originy="0"
       spacingx="7.9375"
       spacingy="7.9375"
       empcolor="#ffffff"
       empopacity="0.54509804"
       color="#ffffff"
       opacity="0.14901961"
       empspacing="4"
       enabled="false"
       visible="true" />
    <inkscape:grid
       id="grid2"
       units="px"
       originx="0"
       originy="0"
       spacingx="3.96875"
       spacingy="3.96875"
       empcolor="#ffffff"
       empopacity="0.30196078"
       color="#ffffff"
       opacity="0.14901961"
       empspacing="4"
       enabled="false"
       visible="true" />
  </sodipodi:namedview>
  <defs
     id="defs1" />
  <g
     inkscape:label="Layer 1"
     inkscape:groupmode="layer"
     id="layer1">
    <path
       id="path59-3-8"
       style="vector-effect:non-scaling-stroke;fill:#000000;stroke:none;stroke-width:0.264583;stroke-miterlimit:7.9;-inkscape-stroke:hairline;paint-order:stroke fill markers"
       d="m 43.428637,67.738781 c 22.208,0 40.2176,18.0032 40.2176,40.211199 0,14.3936 -7.6864,27.68 -20.16,34.8608 -7.2192,4.16 -11.6672,11.8464 -11.6672,20.1792 0,12.8576 10.5024,23.2768 23.36,23.2768 v 16.9344 c -22.2144,0 -40.2944,-18.0032 -40.2944,-40.2112 0,-14.3872 7.6864,-27.68 20.16,-34.8608 7.2192,-4.16 11.6672,-11.8464 11.6672,-20.1792 0,-12.857599 -10.4256,-23.283199 -23.2832,-23.283199 z"
       sodipodi:nodetypes="cscsccscscc" />
    <path
       id="path59-3-1-0"
       style="vector-effect:non-scaling-stroke;fill:#000000;stroke:none;stroke-width:0.264583;stroke-miterlimit:7.9;-inkscape-stroke:hairline;paint-order:stroke fill markers"
       d="m 102.69264,67.738781 c 22.2144,0 40.2176,18.0032 40.2176,40.211199 0,14.3936 -7.6864,27.68 -20.1536,34.8608 -7.2192,4.16 -11.6736,11.8464 -11.6736,20.1792 0,12.8576 10.5024,23.2768 23.36,23.2768 v 16.9344 c -22.208,0 -40.294403,-18.0032 -40.294403,-40.2112 0,-14.3872 7.686403,-27.68 20.160003,-34.8608 7.2192,-4.16 11.6672,-11.8464 11.6672,-20.1792 0,-12.857599 -10.4256,-23.283199 -23.2832,-23.283199 z"
       sodipodi:nodetypes="cscsccscscc" />
  </g>
</svg>
