<?xml version="1.0" encoding="UTF-8" standalone="no"?>
<!-- Created with Inkscape (http://www.inkscape.org/) -->

<svg
   width="672"
   height="1024"
   viewBox="0 0 177.8 270.93333"
   version="1.1"
   id="svg1"
   inkscape:version="1.4.2 (ebf0e940d0, 2025-05-08)"
   sodipodi:docname="kulupu.svg"
   xmlns:inkscape="http://www.inkscape.org/namespaces/inkscape"
   xmlns:sodipodi="http://sodipodi.sourceforge.net/DTD/sodipodi-0.dtd"
   xmlns="http://www.w3.org/2000/svg"
   xmlns:svg="http://www.w3.org/2000/svg">
  <sodipodi:namedview
     id="namedview1"
     pagecolor="#ffffff"
     bordercolor="#eeeeee"
     borderopacity="1"
     inkscape:showpageshadow="0"
     inkscape:pageopacity="0"
     inkscape:pagecheckerboard="0"
     inkscape:deskcolor="#505050"
     inkscape:document-units="mm"
     showgrid="true"
     inkscape:zoom="0.5"
     inkscape:cx="641"
     inkscape:cy="549"
     inkscape:window-width="950"
     inkscape:window-height="1039"
     inkscape:window-x="962"
     inkscape:window-y="33"
     inkscape:window-maximized="1"
     inkscape:current-layer="layer1">
    <inkscape:grid
       id="grid1"
       units="px"
       originx="0"
       originy="0"
       spacingx="7.9375"
       spacingy="7.9375"
       empcolor="#ffffff"
       empopacity="0.54509804"
       color="#ffffff"
       opacity="0.14901961"
       empspacing="4"
       enabled="false"
       visible="true" />
    <inkscape:grid
       id="grid2"
       units="px"
       originx="0"
       originy="0"
       spacingx="3.96875"
       spacingy="3.96875"
       empcolor="#ffffff"
       empopacity="0.30196078"
       color="#ffffff"
       opacity="0.14901961"
       empspacing="4"
       enabled="false"
       visible="true" />
  </sodipodi:namedview>
  <defs
     id="defs1" />
  <g
     inkscape:label="Layer 1"
     inkscape:groupmode="layer"
     id="layer1">
    <path
       id="path92-8"
       style="vector-effect:non-scaling-stroke;fill:#000000;stroke:none;stroke-width:0.264583;stroke-miterlimit:7.9;-inkscape-stroke:hairline;paint-order:stroke fill markers"
       d="m 88.898879,65.612965 a 33.866666,33.866666 0 0 0 -33.8688,33.8688 33.866666,33.866666 0 0 0 33.8688,33.868805 33.866666,33.866666 0 0 0 33.862401,-33.868805 33.866666,33.866666 0 0 0 -33.862401,-33.8688 z m 0,16.9344 a 16.933333,16.933333 0 0 1 16.928001,16.9344 16.933333,16.933333 0 0 1 -16.928001,16.934405 16.933333,16.933333 0 0 1 -16.9344,-16.934405 16.933333,16.933333 0 0 1 16.9344,-16.9344 z" />
    <path
       id="path92-8-9"
       style="vector-effect:non-scaling-stroke;fill:#000000;stroke:none;stroke-width:0.264583;stroke-miterlimit:7.9;-inkscape-stroke:hairline;paint-order:stroke fill markers"
       d="m 48.681279,137.58097 a 33.866666,33.866666 0 0 0 -33.8688,33.8689 33.866666,33.866666 0 0 0 33.8688,33.8688 33.866666,33.866666 0 0 0 33.8624,-33.8688 33.866666,33.866666 0 0 0 -33.8624,-33.8689 z m 0,16.9344 a 16.933333,16.933333 0 0 1 16.9344,16.9345 16.933333,16.933333 0 0 1 -16.9344,16.9344 16.933333,16.933333 0 0 1 -16.9344,-16.9344 16.933333,16.933333 0 0 1 16.9344,-16.9345 z" />
    <path
       id="path92-8-9-7"
       style="vector-effect:non-scaling-stroke;fill:#000000;stroke:none;stroke-width:0.264583;stroke-miterlimit:7.9;-inkscape-stroke:hairline;paint-order:stroke fill markers"
       d="m 129.11008,137.58097 a 33.866666,33.866666 0 0 0 -33.862401,33.8689 33.866666,33.866666 0 0 0 33.862401,33.8688 33.866666,33.866666 0 0 0 33.8688,-33.8688 33.866666,33.866666 0 0 0 -33.8688,-33.8689 z m 0,16.9344 a 16.933333,16.933333 0 0 1 16.9344,16.9345 16.933333,16.933333 0 0 1 -16.9344,16.9344 16.933333,16.933333 0 0 1 -16.928,-16.9344 16.933333,16.933333 0 0 1 16.928,-16.9345 z" />
  </g>
</svg>
