<?xml version="1.0" encoding="UTF-8" standalone="no"?>
<!-- Created with Inkscape (http://www.inkscape.org/) -->

<svg
   width="672"
   height="1024"
   viewBox="0 0 177.8 270.93333"
   version="1.1"
   id="svg1"
   inkscape:version="1.4.2 (ebf0e940d0, 2025-05-08)"
   sodipodi:docname="laso.svg"
   xmlns:inkscape="http://www.inkscape.org/namespaces/inkscape"
   xmlns:sodipodi="http://sodipodi.sourceforge.net/DTD/sodipodi-0.dtd"
   xmlns="http://www.w3.org/2000/svg"
   xmlns:svg="http://www.w3.org/2000/svg">
  <sodipodi:namedview
     id="namedview1"
     pagecolor="#ffffff"
     bordercolor="#eeeeee"
     borderopacity="1"
     inkscape:showpageshadow="0"
     inkscape:pageopacity="0"
     inkscape:pagecheckerboard="0"
     inkscape:deskcolor="#505050"
     inkscape:document-units="mm"
     showgrid="true"
     inkscape:zoom="0.5"
     inkscape:cx="321"
     inkscape:cy="709"
     inkscape:window-width="950"
     inkscape:window-height="1039"
     inkscape:window-x="962"
     inkscape:window-y="33"
     inkscape:window-maximized="1"
     inkscape:current-layer="layer1">
    <inkscape:grid
       id="grid1"
       units="px"
       originx="0"
       originy="0"
       spacingx="7.9375"
       spacingy="7.9375"
       empcolor="#ffffff"
       empopacity="0.54509804"
       color="#ffffff"
       opacity="0.14901961"
       empspacing="4"
       enabled="false"
       visible="true" />
    <inkscape:grid
       id="grid2"
       units="px"
       originx="0"
       originy="0"
       spacingx="3.96875"
       spacingy="3.96875"
       empcolor="#ffffff"
       empopacity="0.30196078"
       color="#ffffff"
       opacity="0.14901961"
       empspacing="4"
       enabled="false"
       visible="true" />
  </sodipodi:namedview>
  <defs
     id="defs1" />
  <g
     inkscape:label="Layer 1"
     inkscape:groupmode="layer"
     id="layer1">
    <path
       id="rect105"
       style="vector-effect:non-scaling-stroke;fill:#000000;stroke:none;stroke-width:0.264583;stroke-miterlimit:7.9;-inkscape-stroke:hairline;paint-order:stroke fill markers"
       d="m 38.098298,67.732529 c 0,0 -16.9318,0.2463 -16.9317,5e-4 v 8.4667 c 0,32.732501 26.5315,59.268901 59.264,59.270301 v 8.4594 l -59.264,59.2703 H 156.6291 l -59.264102,-59.2703 v -8.4589 c 32.729102,0 59.258802,-26.5403 59.256802,-59.270301 l 0.01,-8.4672 h -16.9379 c -21.5581,0 -40.428502,11.5087 -50.800602,28.7176 -10.3707,-17.2079 -29.2372,-28.717 -50.7932,-28.7181 z m 0.8512,16.9437 c 19.7892,0.3999 36.6599,14.458 40.6223,33.850601 -19.7892,-0.3999 -36.6599,-14.458 -40.6223,-33.850601 z m 99.889002,0 C 134.8761,104.06883 118.0053,118.12743 98.216098,118.52733 102.1785,99.134729 119.0493,85.076129 138.8385,84.676229 Z M 88.897798,159.41733 115.752,186.27203 H 62.043698 Z"
       sodipodi:nodetypes="scsccccccccscsscccccccccc" />
  </g>
</svg>
