<?xml version="1.0" encoding="UTF-8" standalone="no"?>
<!-- Created with Inkscape (http://www.inkscape.org/) -->

<svg
   width="672"
   height="1024"
   viewBox="0 0 177.8 270.93333"
   version="1.1"
   id="svg1"
   inkscape:version="1.4.2 (ebf0e940d0, 2025-05-08)"
   sodipodi:docname="lukin.svg"
   xmlns:inkscape="http://www.inkscape.org/namespaces/inkscape"
   xmlns:sodipodi="http://sodipodi.sourceforge.net/DTD/sodipodi-0.dtd"
   xmlns="http://www.w3.org/2000/svg"
   xmlns:svg="http://www.w3.org/2000/svg">
  <sodipodi:namedview
     id="namedview1"
     pagecolor="#ffffff"
     bordercolor="#eeeeee"
     borderopacity="1"
     inkscape:showpageshadow="0"
     inkscape:pageopacity="0"
     inkscape:pagecheckerboard="0"
     inkscape:deskcolor="#505050"
     inkscape:document-units="mm"
     showgrid="true"
     inkscape:zoom="0.5"
     inkscape:cx="321"
     inkscape:cy="709"
     inkscape:window-width="950"
     inkscape:window-height="1039"
     inkscape:window-x="962"
     inkscape:window-y="33"
     inkscape:window-maximized="1"
     inkscape:current-layer="layer1">
    <inkscape:grid
       id="grid1"
       units="px"
       originx="0"
       originy="0"
       spacingx="7.9375"
       spacingy="7.9375"
       empcolor="#ffffff"
       empopacity="0.54509804"
       color="#ffffff"
       opacity="0.14901961"
       empspacing="4"
       enabled="false"
       visible="true" />
    <inkscape:grid
       id="grid2"
       units="px"
       originx="0"
       originy="0"
       spacingx="3.96875"
       spacingy="3.96875"
       empcolor="#ffffff"
       empopacity="0.30196078"
       color="#ffffff"
       opacity="0.14901961"
       empspacing="4"
       enabled="false"
       visible="true" />
  </sodipodi:namedview>
  <defs
     id="defs1" />
  <g
     inkscape:label="Layer 1"
     inkscape:groupmode="layer"
     id="layer1">
    <circle
       style="vector-effect:non-scaling-stroke;fill:#000000;stroke:none;stroke-width:0.264583;stroke-miterlimit:7.9;-inkscape-stroke:hairline;paint-order:stroke fill markers"
       id="path77-6"
       cx="88.899902"
       cy="135.46667"
       r="12.7" />
    <path
       id="path85"
       style="vector-effect:non-scaling-stroke;stroke:none;stroke-width:0.264584;stroke-miterlimit:7.9;-inkscape-stroke:hairline;paint-order:stroke fill markers"
       inkscape:transform-center-x="67.739329"
       inkscape:transform-center-y="0.00078179602"
       d="m 88.903576,96.356307 a 78.211137,78.211137 0 0 0 -56.3904,24.019203 78.211137,78.211137 0 0 0 -11.3472,15.0912 78.211137,78.211137 0 0 0 11.3472,15.0848 78.211137,78.211137 0 0 0 56.3904,24.0192 78.211137,78.211137 0 0 0 56.390404,-24.0192 78.211137,78.211137 0 0 0 11.3408,-15.0848 78.211137,78.211137 0 0 0 -11.3408,-15.0912 78.211137,78.211137 0 0 0 -56.390404,-24.019203 z m 0,16.934403 a 61.300623,61.300623 0 0 1 47.065604,22.176 61.300623,61.300623 0 0 1 -47.065604,22.1696 61.300623,61.300623 0 0 1 -47.0656,-22.1696 61.300623,61.300623 0 0 1 47.0656,-22.176 z" />
  </g>
</svg>
