<?xml version="1.0" encoding="UTF-8" standalone="no"?>
<!-- Created with Inkscape (http://www.inkscape.org/) -->

<svg
   width="672"
   height="1024"
   viewBox="0 0 177.8 270.93333"
   version="1.1"
   id="svg1"
   inkscape:version="1.4.2 (ebf0e940d0, 2025-05-08)"
   sodipodi:docname="mama.svg"
   xmlns:inkscape="http://www.inkscape.org/namespaces/inkscape"
   xmlns:sodipodi="http://sodipodi.sourceforge.net/DTD/sodipodi-0.dtd"
   xmlns="http://www.w3.org/2000/svg"
   xmlns:svg="http://www.w3.org/2000/svg">
  <sodipodi:namedview
     id="namedview1"
     pagecolor="#ffffff"
     bordercolor="#eeeeee"
     borderopacity="1"
     inkscape:showpageshadow="0"
     inkscape:pageopacity="0"
     inkscape:pagecheckerboard="0"
     inkscape:deskcolor="#505050"
     inkscape:document-units="mm"
     showgrid="true"
     inkscape:zoom="0.5"
     inkscape:cx="321"
     inkscape:cy="707"
     inkscape:window-width="950"
     inkscape:window-height="1039"
     inkscape:window-x="962"
     inkscape:window-y="33"
     inkscape:window-maximized="1"
     inkscape:current-layer="layer1">
    <inkscape:grid
       id="grid1"
       units="px"
       originx="0"
       originy="0"
       spacingx="7.9375"
       spacingy="7.9375"
       empcolor="#ffffff"
       empopacity="0.54509804"
       color="#ffffff"
       opacity="0.14901961"
       empspacing="4"
       enabled="false"
       visible="true" />
    <inkscape:grid
       id="grid2"
       units="px"
       originx="0"
       originy="0"
       spacingx="3.96875"
       spacingy="3.96875"
       empcolor="#ffffff"
       empopacity="0.30196078"
       color="#ffffff"
       opacity="0.14901961"
       empspacing="4"
       enabled="false"
       visible="true" />
  </sodipodi:namedview>
  <defs
     id="defs1" />
  <g
     inkscape:label="Layer 1"
     inkscape:groupmode="layer"
     id="layer1">
    <path
       id="path66-4"
       style="font-variation-settings:'wdth' 75, 'wght' 700;vector-effect:non-scaling-stroke;fill:#000000;stroke:none;stroke-width:0.264583;stroke-miterlimit:7.9;-inkscape-stroke:hairline;paint-order:stroke fill markers"
       d="M 88.902584 63.497933 A 50.8 50.8 0 0 0 38.099483 114.30103 A 50.8 50.8 0 0 0 64.125285 158.64665 A 30.691667 30.691667 0 0 0 58.207817 176.75872 A 30.691667 30.691667 0 0 0 88.902584 207.45297 A 30.691667 30.691667 0 0 0 119.59063 176.75872 A 30.691667 30.691667 0 0 0 113.68195 158.65078 A 50.8 50.8 0 0 0 139.69948 114.30775 A 50.8 50.8 0 0 0 88.902584 63.504134 L 88.902584 63.497933 z M 88.902584 80.4323 A 33.866666 33.866666 0 0 1 122.7646 114.30103 A 33.866666 33.866666 0 0 1 88.902584 148.16357 A 33.866666 33.866666 0 0 1 55.03385 114.30103 A 33.866666 33.866666 0 0 1 88.902584 80.4323 z M 88.902584 162.97972 A 13.758333 13.758333 0 0 1 102.65627 176.7396 A 13.758333 13.758333 0 0 1 88.902584 190.49948 A 13.758333 13.758333 0 0 1 75.1427 176.7396 A 13.758333 13.758333 0 0 1 88.902584 162.97972 z " />
  </g>
</svg>
