<?xml version="1.0" encoding="UTF-8" standalone="no"?>
<!-- Created with Inkscape (http://www.inkscape.org/) -->

<svg
   width="672"
   height="1024"
   viewBox="0 0 177.8 270.93333"
   version="1.1"
   id="svg1"
   inkscape:version="1.4.2 (ebf0e940d0, 2025-05-08)"
   sodipodi:docname="mi.svg"
   xmlns:inkscape="http://www.inkscape.org/namespaces/inkscape"
   xmlns:sodipodi="http://sodipodi.sourceforge.net/DTD/sodipodi-0.dtd"
   xmlns="http://www.w3.org/2000/svg"
   xmlns:svg="http://www.w3.org/2000/svg">
  <sodipodi:namedview
     id="namedview1"
     pagecolor="#ffffff"
     bordercolor="#eeeeee"
     borderopacity="1"
     inkscape:showpageshadow="0"
     inkscape:pageopacity="0"
     inkscape:pagecheckerboard="0"
     inkscape:deskcolor="#505050"
     inkscape:document-units="mm"
     showgrid="true"
     inkscape:zoom="0.5"
     inkscape:cx="321"
     inkscape:cy="709"
     inkscape:window-width="950"
     inkscape:window-height="1039"
     inkscape:window-x="962"
     inkscape:window-y="33"
     inkscape:window-maximized="1"
     inkscape:current-layer="layer1">
    <inkscape:grid
       id="grid1"
       units="px"
       originx="0"
       originy="0"
       spacingx="7.9375"
       spacingy="7.9375"
       empcolor="#ffffff"
       empopacity="0.54509804"
       color="#ffffff"
       opacity="0.14901961"
       empspacing="4"
       enabled="false"
       visible="true" />
    <inkscape:grid
       id="grid2"
       units="px"
       originx="0"
       originy="0"
       spacingx="3.96875"
       spacingy="3.96875"
       empcolor="#ffffff"
       empopacity="0.30196078"
       color="#ffffff"
       opacity="0.14901961"
       empspacing="4"
       enabled="false"
       visible="true" />
  </sodipodi:namedview>
  <defs
     id="defs1" />
  <g
     inkscape:label="Layer 1"
     inkscape:groupmode="layer"
     id="layer1">
    <path
       id="path71-2-4-0-6"
       style="fill:#000000;stroke:none;stroke-width:0.264583;stroke-linecap:square;stroke-miterlimit:0;paint-order:fill markers stroke"
       d="m 127.00005,105.8333 a 38.099979,38.099979 0 0 1 -38.100002,38.1 38.099979,38.099979 0 0 1 -16.0135,-3.5285 c 6.0709,19.9075 17.3409,38.0718 32.927702,52.4775 l -11.493302,12.4354 c -27.7445,-25.642 -43.5207,-61.7047 -43.5209,-99.4839 v -5e-4 a 38.099979,38.099979 0 0 1 38.1,-38.099996 38.099979,38.099979 0 0 1 38.100002,38.099996 z m -16.9333,0 A 21.166769,21.166769 0 0 0 88.900048,84.666104 21.166769,21.166769 0 0 0 67.733348,105.8333 21.166769,21.166769 0 0 0 88.900048,127 21.166769,21.166769 0 0 0 110.06675,105.8333 Z" />
  </g>
</svg>
