<?xml version="1.0" encoding="UTF-8" standalone="no"?>
<!-- Created with Inkscape (http://www.inkscape.org/) -->

<svg
   width="672"
   height="1024"
   viewBox="0 0 177.8 270.93333"
   version="1.1"
   id="svg1"
   inkscape:version="1.4.2 (ebf0e940d0, 2025-05-08)"
   sodipodi:docname="mije.svg"
   xmlns:inkscape="http://www.inkscape.org/namespaces/inkscape"
   xmlns:sodipodi="http://sodipodi.sourceforge.net/DTD/sodipodi-0.dtd"
   xmlns="http://www.w3.org/2000/svg"
   xmlns:svg="http://www.w3.org/2000/svg">
  <sodipodi:namedview
     id="namedview1"
     pagecolor="#ffffff"
     bordercolor="#eeeeee"
     borderopacity="1"
     inkscape:showpageshadow="0"
     inkscape:pageopacity="0"
     inkscape:pagecheckerboard="0"
     inkscape:deskcolor="#505050"
     inkscape:document-units="mm"
     showgrid="true"
     inkscape:zoom="0.5"
     inkscape:cx="321"
     inkscape:cy="709"
     inkscape:window-width="950"
     inkscape:window-height="1039"
     inkscape:window-x="962"
     inkscape:window-y="33"
     inkscape:window-maximized="1"
     inkscape:current-layer="layer1">
    <inkscape:grid
       id="grid1"
       units="px"
       originx="0"
       originy="0"
       spacingx="7.9375"
       spacingy="7.9375"
       empcolor="#ffffff"
       empopacity="0.54509804"
       color="#ffffff"
       opacity="0.14901961"
       empspacing="4"
       enabled="false"
       visible="true" />
    <inkscape:grid
       id="grid2"
       units="px"
       originx="0"
       originy="0"
       spacingx="3.96875"
       spacingy="3.96875"
       empcolor="#ffffff"
       empopacity="0.30196078"
       color="#ffffff"
       opacity="0.14901961"
       empspacing="4"
       enabled="false"
       visible="true" />
  </sodipodi:namedview>
  <defs
     id="defs1" />
  <g
     inkscape:label="Layer 1"
     inkscape:groupmode="layer"
     id="layer1">
    <path
       id="path105-8-0"
       style="vector-effect:non-scaling-stroke;fill:#000000;stroke:none;stroke-width:0.264584;stroke-miterlimit:7.9;-inkscape-stroke:hairline;paint-order:stroke fill markers"
       d="m 97.369177,67.733306 v 16.928 H 129.11958 L 94.124377,118.26771 c -7.7632,-5.312 -16.9664,-8.2048 -26.3872,-8.2048 -25.7216,0 -46.5664,20.85121 -46.5664,46.56634 0,25.7216 20.8448,46.5664 46.5664,46.5664 25.7152,0 46.566403,-20.8448 46.566403,-46.5664 0,-9.42073 -2.88,-18.62393 -8.2048,-26.39353 l 33.6,-34.988814 v 31.750414 h 16.9344 V 67.733306 Z m -29.632,59.264014 c 16.3648,0 29.632,13.2672 29.632,29.63193 0,16.3648 -13.2672,29.632 -29.632,29.632 -16.3712,0 -29.6384,-13.2672 -29.6384,-29.632 0,-16.36473 13.2672,-29.63193 29.6384,-29.63193 z"
       sodipodi:nodetypes="cccccsssccccccsssss" />
  </g>
</svg>
