<?xml version="1.0" encoding="UTF-8" standalone="no"?>
<!-- Created with Inkscape (http://www.inkscape.org/) -->

<svg
   width="672"
   height="1024"
   viewBox="0 0 177.8 270.93333"
   version="1.1"
   id="svg1"
   inkscape:version="1.4.2 (ebf0e940d0, 2025-05-08)"
   sodipodi:docname="mu.svg"
   xmlns:inkscape="http://www.inkscape.org/namespaces/inkscape"
   xmlns:sodipodi="http://sodipodi.sourceforge.net/DTD/sodipodi-0.dtd"
   xmlns="http://www.w3.org/2000/svg"
   xmlns:svg="http://www.w3.org/2000/svg">
  <sodipodi:namedview
     id="namedview1"
     pagecolor="#ffffff"
     bordercolor="#eeeeee"
     borderopacity="1"
     inkscape:showpageshadow="0"
     inkscape:pageopacity="0"
     inkscape:pagecheckerboard="0"
     inkscape:deskcolor="#505050"
     inkscape:document-units="mm"
     showgrid="true"
     inkscape:zoom="0.5"
     inkscape:cx="321"
     inkscape:cy="709"
     inkscape:window-width="950"
     inkscape:window-height="1039"
     inkscape:window-x="962"
     inkscape:window-y="33"
     inkscape:window-maximized="1"
     inkscape:current-layer="layer1">
    <inkscape:grid
       id="grid1"
       units="px"
       originx="0"
       originy="0"
       spacingx="7.9375"
       spacingy="7.9375"
       empcolor="#ffffff"
       empopacity="0.54509804"
       color="#ffffff"
       opacity="0.14901961"
       empspacing="4"
       enabled="false"
       visible="true" />
    <inkscape:grid
       id="grid2"
       units="px"
       originx="0"
       originy="0"
       spacingx="3.96875"
       spacingy="3.96875"
       empcolor="#ffffff"
       empopacity="0.30196078"
       color="#ffffff"
       opacity="0.14901961"
       empspacing="4"
       enabled="false"
       visible="true" />
  </sodipodi:namedview>
  <defs
     id="defs1" />
  <g
     inkscape:label="Layer 1"
     inkscape:groupmode="layer"
     id="layer1">
    <path
       id="path15-8"
       style="vector-effect:non-scaling-stroke;fill:#000000;stroke:none;stroke-width:0.264583;stroke-miterlimit:7.9;-inkscape-stroke:hairline;paint-order:stroke fill markers"
       d="m 88.902102,93.130274 a 57.149996,57.149996 0 0 0 -57.152,57.152006 57.149996,57.149996 0 0 0 57.152,57.152 57.149996,57.149996 0 0 0 57.151998,-57.152 57.149996,57.149996 0 0 0 -57.151998,-57.152006 z m 0,16.934396 a 40.216666,40.216666 0 0 1 40.217598,40.21761 40.216666,40.216666 0 0 1 -40.217598,40.2176 40.216666,40.216666 0 0 1 -40.2176,-40.2176 40.216666,40.216666 0 0 1 40.2176,-40.21761 z" />
    <path
       id="path4-50"
       style="vector-effect:non-scaling-stroke;fill:#000000;stroke:none;stroke-width:0.264583;stroke-miterlimit:7.9;-inkscape-stroke:hairline;paint-order:stroke fill markers"
       d="m 50.802902,63.498274 c -18.7072,0 -33.8688,15.1616 -33.8688,33.8688 0,17.958396 13.9776,32.646396 31.648,33.791996 l 4.352,-14.7456 31.488,-14.816 c 0,-1.408 0,-2.815996 0,-4.223996 0,-18.7072 -15.1616,-33.8688 -33.8624,-33.8688 z m 78.316798,0 c -18.7072,0 -33.868798,15.1616 -33.868798,33.8688 0,1.536 0,3.007996 0,4.479996 l 21.971198,7.8464 c -3.264,-3.072 -5.312,-7.4688 -5.312,-12.332796 0,-9.3568 7.5776,-16.9344 16.9344,-16.9344 9.3504,0 16.9344,7.5776 16.9344,16.9344 0,9.350396 -7.584,16.927996 -16.9344,16.927996 -3.84,0 -7.3856,-1.28 -10.2272,-3.456 l 9.1584,20.352 c 0.64,0 0.704,0.0192 1.088,0.0192 18.7008,0 33.8624,-15.1616 33.8624,-33.868796 0,-18.7008 -15.1616,-33.8624 -33.8624,-33.8624 z m -78.316798,16.9344 c 9.3504,0 16.9344,7.5776 16.9344,16.9344 0,9.350396 -7.584,16.927996 -16.9344,16.927996 -9.3568,0 -16.9344,-7.5776 -16.9344,-16.927996 0,-9.3568 7.5776,-16.9344 16.9344,-16.9344 z" />
    <circle
       style="vector-effect:non-scaling-stroke;fill:#000000;stroke:none;stroke-width:0.264583;stroke-miterlimit:7.9;-inkscape-stroke:hairline;paint-order:stroke fill markers"
       id="path77-64-9-4"
       cx="88.899002"
       cy="165.10059"
       r="12.7" />
  </g>
</svg>
