<?xml version="1.0" encoding="UTF-8" standalone="no"?>
<!-- Created with Inkscape (http://www.inkscape.org/) -->

<svg
   width="672"
   height="1024"
   viewBox="0 0 177.8 270.93333"
   version="1.1"
   id="svg1"
   inkscape:version="1.4.2 (ebf0e940d0, 2025-05-08)"
   sodipodi:docname="]mun.svg"
   xmlns:inkscape="http://www.inkscape.org/namespaces/inkscape"
   xmlns:sodipodi="http://sodipodi.sourceforge.net/DTD/sodipodi-0.dtd"
   xmlns="http://www.w3.org/2000/svg"
   xmlns:svg="http://www.w3.org/2000/svg">
  <sodipodi:namedview
     id="namedview1"
     pagecolor="#ffffff"
     bordercolor="#eeeeee"
     borderopacity="1"
     inkscape:showpageshadow="0"
     inkscape:pageopacity="0"
     inkscape:pagecheckerboard="0"
     inkscape:deskcolor="#505050"
     inkscape:document-units="mm"
     showgrid="true"
     inkscape:zoom="0.5"
     inkscape:cx="321"
     inkscape:cy="709"
     inkscape:window-width="950"
     inkscape:window-height="1039"
     inkscape:window-x="962"
     inkscape:window-y="33"
     inkscape:window-maximized="1"
     inkscape:current-layer="layer1">
    <inkscape:grid
       id="grid1"
       units="px"
       originx="0"
       originy="0"
       spacingx="7.9375"
       spacingy="7.9375"
       empcolor="#ffffff"
       empopacity="0.54509804"
       color="#ffffff"
       opacity="0.14901961"
       empspacing="4"
       enabled="false"
       visible="true" />
    <inkscape:grid
       id="grid2"
       units="px"
       originx="0"
       originy="0"
       spacingx="3.96875"
       spacingy="3.96875"
       empcolor="#ffffff"
       empopacity="0.30196078"
       color="#ffffff"
       opacity="0.14901961"
       empspacing="4"
       enabled="false"
       visible="true" />
  </sodipodi:namedview>
  <defs
     id="defs1" />
  <g
     inkscape:label="Layer 1"
     inkscape:groupmode="layer"
     id="layer1">
    <path
       id="path100"
       style="stroke:none;stroke-width:0.264583;stroke-miterlimit:7.9;paint-order:stroke fill markers"
       d="m 86.783315,63.500146 a 71.96669,71.96669 0 0 0 -51.8583,22.06791 71.96669,71.96669 0 0 0 -16.9313,28.757934 33.866661,33.866661 0 0 1 25.3979,-12.7093 33.866661,33.866661 0 0 1 1.0584,-0.0165 33.866661,33.866661 0 0 1 33.8666,33.86667 33.866661,33.866661 0 0 1 -33.8666,33.86667 33.866661,33.866661 0 0 1 -1.0568,-0.0165 33.866661,33.866661 0 0 1 -25.3969,-12.70775 71.96669,71.96669 0 0 0 16.9292,28.75742 71.96669,71.96669 0 0 0 51.8578,22.06687 A 71.96669,71.96669 0 0 0 158.75002,135.4669 71.96669,71.96669 0 0 0 86.783315,63.500226 Z m 0,16.93334 a 55.033348,55.033348 0 0 1 55.033305,55.033334 55.033348,55.033348 0 0 1 -55.033305,55.03333 55.033348,55.033348 0 0 1 -26.4578,-6.77839 50.800121,50.800121 0 0 0 34.9245,-48.25494 50.800121,50.800121 0 0 0 -34.925,-48.255974 55.033348,55.033348 0 0 1 26.4583,-6.77736 z" />
  </g>
</svg>
