<?xml version="1.0" encoding="UTF-8" standalone="no"?>
<!-- Created with Inkscape (http://www.inkscape.org/) -->

<svg
   width="672"
   height="1024"
   viewBox="0 0 177.8 270.93333"
   version="1.1"
   id="svg1"
   inkscape:version="1.4.2 (ebf0e940d0, 2025-05-08)"
   sodipodi:docname="nasa.svg"
   xmlns:inkscape="http://www.inkscape.org/namespaces/inkscape"
   xmlns:sodipodi="http://sodipodi.sourceforge.net/DTD/sodipodi-0.dtd"
   xmlns="http://www.w3.org/2000/svg"
   xmlns:svg="http://www.w3.org/2000/svg">
  <sodipodi:namedview
     id="namedview1"
     pagecolor="#ffffff"
     bordercolor="#eeeeee"
     borderopacity="1"
     inkscape:showpageshadow="0"
     inkscape:pageopacity="0"
     inkscape:pagecheckerboard="0"
     inkscape:deskcolor="#505050"
     inkscape:document-units="mm"
     showgrid="true"
     inkscape:zoom="0.5"
     inkscape:cx="321"
     inkscape:cy="709"
     inkscape:window-width="950"
     inkscape:window-height="1039"
     inkscape:window-x="962"
     inkscape:window-y="33"
     inkscape:window-maximized="1"
     inkscape:current-layer="layer1">
    <inkscape:grid
       id="grid1"
       units="px"
       originx="0"
       originy="0"
       spacingx="7.9375"
       spacingy="7.9375"
       empcolor="#ffffff"
       empopacity="0.54509804"
       color="#ffffff"
       opacity="0.14901961"
       empspacing="4"
       enabled="false"
       visible="true" />
    <inkscape:grid
       id="grid2"
       units="px"
       originx="0"
       originy="0"
       spacingx="3.96875"
       spacingy="3.96875"
       empcolor="#ffffff"
       empopacity="0.30196078"
       color="#ffffff"
       opacity="0.14901961"
       empspacing="4"
       enabled="false"
       visible="true" />
  </sodipodi:namedview>
  <defs
     id="defs1" />
  <g
     inkscape:label="Layer 1"
     inkscape:groupmode="layer"
     id="layer1">
    <path
       id="path5"
       style="fill:#000000;stroke:none;stroke-width:0.264583;stroke-linecap:square;stroke-miterlimit:0;paint-order:fill markers stroke"
       d="m 156.63326,135.46649 c 1e-4,-37.408101 -30.3252,-67.733371 -67.733302,-67.733331 -37.4081,-1e-4 -67.7335,30.32519 -67.7334,67.733331 0.01,26.65691 12.5719,51.75292 33.907,67.73437 l 10.141,-13.53199 c -17.0681,-12.79061 -27.1145,-32.87355 -27.1146,-54.20238 10e-5,-28.05601 22.744,-50.799871 50.8,-50.800001 28.056202,-1.5e-4 50.800402,22.743791 50.800502,50.800001 h -5e-4 c 0,18.70406 -15.1626,33.86669 -33.8667,33.86667 -18.704102,2e-5 -33.866702,-15.16261 -33.866702,-33.86667 -1e-4,-9.35207 7.5813,-16.93342 16.9334,-16.93333 9.352,-4e-5 16.933402,7.5813 16.933302,16.93333 2e-4,4.49106 -1.7838,8.79823 -4.9594,11.97395 l 11.9734,11.97343 c 6.3512,-6.35124 9.9193,-14.96537 9.9193,-23.94738 0,-18.70402 -15.1626,-33.86662 -33.866602,-33.86666 -18.7041,-2e-5 -33.8667,15.16261 -33.8667,33.86666 1e-4,28.05604 22.744,50.79994 50.800002,50.8 28.0562,2.1e-4 50.8004,-22.74377 50.8005,-50.8 z"
       sodipodi:nodetypes="cscccssccssssccsssscc" />
  </g>
</svg>
