<?xml version="1.0" encoding="UTF-8" standalone="no"?>
<!-- Created with Inkscape (http://www.inkscape.org/) -->

<svg
   width="672"
   height="1024"
   viewBox="0 0 177.8 270.93333"
   version="1.1"
   id="svg1"
   inkscape:version="1.4.2 (ebf0e940d0, 2025-05-08)"
   sodipodi:docname="olin.svg"
   xmlns:inkscape="http://www.inkscape.org/namespaces/inkscape"
   xmlns:sodipodi="http://sodipodi.sourceforge.net/DTD/sodipodi-0.dtd"
   xmlns="http://www.w3.org/2000/svg"
   xmlns:svg="http://www.w3.org/2000/svg">
  <sodipodi:namedview
     id="namedview1"
     pagecolor="#ffffff"
     bordercolor="#eeeeee"
     borderopacity="1"
     inkscape:showpageshadow="0"
     inkscape:pageopacity="0"
     inkscape:pagecheckerboard="0"
     inkscape:deskcolor="#505050"
     inkscape:document-units="mm"
     showgrid="true"
     inkscape:zoom="0.5"
     inkscape:cx="321"
     inkscape:cy="709"
     inkscape:window-width="950"
     inkscape:window-height="1039"
     inkscape:window-x="962"
     inkscape:window-y="33"
     inkscape:window-maximized="1"
     inkscape:current-layer="layer1">
    <inkscape:grid
       id="grid1"
       units="px"
       originx="0"
       originy="0"
       spacingx="7.9375"
       spacingy="7.9375"
       empcolor="#ffffff"
       empopacity="0.54509804"
       color="#ffffff"
       opacity="0.14901961"
       empspacing="4"
       enabled="false"
       visible="true" />
    <inkscape:grid
       id="grid2"
       units="px"
       originx="0"
       originy="0"
       spacingx="3.96875"
       spacingy="3.96875"
       empcolor="#ffffff"
       empopacity="0.30196078"
       color="#ffffff"
       opacity="0.14901961"
       empspacing="4"
       enabled="false"
       visible="true" />
  </sodipodi:namedview>
  <defs
     id="defs1" />
  <g
     inkscape:label="Layer 1"
     inkscape:groupmode="layer"
     id="layer1">
    <path
       id="path4-4-0"
       style="vector-effect:non-scaling-stroke;fill:#000000;stroke:none;stroke-width:0.264583;stroke-miterlimit:7.9;-inkscape-stroke:hairline;paint-order:stroke fill markers"
       d="m 63.504641,57.147499 c -18.7072,0 -33.8688,15.16153 -33.8688,33.86873 0,9.792001 4.1601,18.617641 10.8097,24.800041 l 1.8433,1.71359 c -7.7158,6.20751 -12.653,15.7279 -12.653,26.40304 0,9.792 4.1601,18.61795 10.8097,24.80675 l 48.4544,45.04325 48.461099,-45.04325 c 6.6496,-6.208 10.8092,-15.01475 10.8092,-24.80675 0,-10.6609 -4.9239,-20.17018 -12.622,-26.37824 l 1.8702,-1.73839 c 6.6496,-6.208 10.8097,-15.00804 10.8097,-24.800041 0,-18.7072 -15.1616,-33.86873 -33.8688,-33.86873 -10.112,0 -19.193499,7.78202 -25.401499,14.81563 -6.208,-7.03361 -15.2834,-14.81563 -25.3954,-14.81563 z m 0.026,16.93436 c 9.3504,0 21.1649,12.6974 25.3953,21.1646 4.224,-8.4672 16.051199,-21.1646 25.401599,-21.1646 9.3504,0 16.9344,7.57757 16.9344,16.93437 0,4.864 -2.0479,9.305461 -5.3759,12.396661 l -7.4244,6.90449 c -2e-4,-2e-5 -3e-4,2e-5 -5e-4,0 -1.363,-0.16686 -2.7513,-0.25322 -4.1594,-0.25322 -10.112,0 -19.193599,7.78895 -25.401599,14.81615 -6.208,-7.0272 -15.2833,-14.81615 -25.3953,-14.81615 -1.3917,0 -2.7638,0.084 -4.1114,0.24702 l -7.4213,-6.89829 c -3.328,-3.072 -5.3759,-7.500661 -5.3759,-12.396661 0,-9.3568 7.5776,-16.93437 16.9344,-16.93437 z m -5e-4,52.916671 c 9.3464,0.0227 21.1434,12.70549 25.37,21.16512 4.224,-8.4672 16.051199,-21.16512 25.401599,-21.16512 9.3504,0 16.9343,7.58397 16.9343,16.93437 0,4.928 -2.0479,9.31217 -5.3759,12.40337 l -36.927999,34.32969 -36.9279,-34.32969 c -3.328,-3.072 -5.3759,-7.50737 -5.3759,-12.40337 0,-9.33958 7.5599,-16.91684 16.9018,-16.93437 z" />
  </g>
</svg>
