<?xml version="1.0" encoding="UTF-8" standalone="no"?>
<!-- Created with Inkscape (http://www.inkscape.org/) -->

<svg
   width="672"
   height="1024"
   viewBox="0 0 177.8 270.93333"
   version="1.1"
   id="svg1"
   inkscape:version="1.4.2 (ebf0e940d0, 2025-05-08)"
   sodipodi:docname="ona.svg"
   xmlns:inkscape="http://www.inkscape.org/namespaces/inkscape"
   xmlns:sodipodi="http://sodipodi.sourceforge.net/DTD/sodipodi-0.dtd"
   xmlns="http://www.w3.org/2000/svg"
   xmlns:svg="http://www.w3.org/2000/svg">
  <sodipodi:namedview
     id="namedview1"
     pagecolor="#ffffff"
     bordercolor="#eeeeee"
     borderopacity="1"
     inkscape:showpageshadow="0"
     inkscape:pageopacity="0"
     inkscape:pagecheckerboard="0"
     inkscape:deskcolor="#505050"
     inkscape:document-units="mm"
     showgrid="true"
     inkscape:zoom="0.70710678"
     inkscape:cx="516.89506"
     inkscape:cy="836.50732"
     inkscape:window-width="950"
     inkscape:window-height="1039"
     inkscape:window-x="962"
     inkscape:window-y="33"
     inkscape:window-maximized="1"
     inkscape:current-layer="layer1">
    <inkscape:grid
       id="grid1"
       units="px"
       originx="0"
       originy="0"
       spacingx="7.9375"
       spacingy="7.9375"
       empcolor="#ffffff"
       empopacity="0.54509804"
       color="#ffffff"
       opacity="0.14901961"
       empspacing="4"
       enabled="false"
       visible="true" />
    <inkscape:grid
       id="grid2"
       units="px"
       originx="0"
       originy="0"
       spacingx="3.96875"
       spacingy="3.96875"
       empcolor="#ffffff"
       empopacity="0.30196078"
       color="#ffffff"
       opacity="0.14901961"
       empspacing="4"
       enabled="false"
       visible="true" />
  </sodipodi:namedview>
  <defs
     id="defs1" />
  <g
     inkscape:label="Layer 1"
     inkscape:groupmode="layer"
     id="layer1">
    <path
       id="path71-2-4-0"
       style="fill:#000000;stroke:none;stroke-width:0.264583;stroke-linecap:square;stroke-miterlimit:0;paint-order:fill markers stroke"
       d="m 120.64968,97.366586 a 38.099979,38.099979 0 0 0 -38.100002,38.100004 38.099979,38.099979 0 0 0 3.5285,16.0135 c -19.9075,-6.07094 -38.0718,-17.34089 -52.4775,-32.92771 l -12.4354,11.49336 c 25.642,27.74442 61.7047,43.52068 99.483902,43.52085 h 5e-4 a 38.099979,38.099979 0 0 0 38.1,-38.1 38.099979,38.099979 0 0 0 -38.1,-38.100004 z m 0,16.933344 a 21.166769,21.166769 0 0 1 21.1672,21.16666 21.166769,21.166769 0 0 1 -21.1672,21.16667 21.166769,21.166769 0 0 1 -21.166702,-21.16667 21.166769,21.166769 0 0 1 21.166702,-21.16666 z" />
  </g>
</svg>
