<?xml version="1.0" encoding="UTF-8" standalone="no"?>
<!-- Created with Inkscape (http://www.inkscape.org/) -->

<svg
   width="672"
   height="1024"
   viewBox="0 0 177.8 270.93333"
   version="1.1"
   id="svg1"
   inkscape:version="1.4.2 (ebf0e940d0, 2025-05-08)"
   sodipodi:docname="palisa.svg"
   xmlns:inkscape="http://www.inkscape.org/namespaces/inkscape"
   xmlns:sodipodi="http://sodipodi.sourceforge.net/DTD/sodipodi-0.dtd"
   xmlns="http://www.w3.org/2000/svg"
   xmlns:svg="http://www.w3.org/2000/svg">
  <sodipodi:namedview
     id="namedview1"
     pagecolor="#ffffff"
     bordercolor="#eeeeee"
     borderopacity="1"
     inkscape:showpageshadow="0"
     inkscape:pageopacity="0"
     inkscape:pagecheckerboard="0"
     inkscape:deskcolor="#505050"
     inkscape:document-units="mm"
     showgrid="true"
     inkscape:zoom="0.70710678"
     inkscape:cx="177.4838"
     inkscape:cy="497.09607"
     inkscape:window-width="950"
     inkscape:window-height="1039"
     inkscape:window-x="962"
     inkscape:window-y="33"
     inkscape:window-maximized="1"
     inkscape:current-layer="layer1">
    <inkscape:grid
       id="grid1"
       units="px"
       originx="0"
       originy="0"
       spacingx="7.9375"
       spacingy="7.9375"
       empcolor="#ffffff"
       empopacity="0.54509804"
       color="#ffffff"
       opacity="0.14901961"
       empspacing="4"
       enabled="false"
       visible="true" />
    <inkscape:grid
       id="grid2"
       units="px"
       originx="0"
       originy="0"
       spacingx="3.96875"
       spacingy="3.96875"
       empcolor="#ffffff"
       empopacity="0.30196078"
       color="#ffffff"
       opacity="0.14901961"
       empspacing="4"
       enabled="false"
       visible="true" />
  </sodipodi:namedview>
  <defs
     id="defs1" />
  <g
     inkscape:label="Layer 1"
     inkscape:groupmode="layer"
     id="layer1">
    <path
       id="path69"
       style="font-variation-settings:'wdth' 75, 'wght' 700;vector-effect:non-scaling-stroke;fill:#000000;stroke:none;stroke-width:0.264583;stroke-miterlimit:7.9;-inkscape-stroke:hairline;paint-order:stroke fill markers"
       d="m 88.90009,65.616307 c -14.0293,-8.8e-4 -25.4025,11.37232 -25.4016,25.4016 l 1e-4,88.896813 c -9e-4,14.02928 11.3723,25.40249 25.4016,25.4016 14.0292,8.9e-4 25.4024,-11.37232 25.4016,-25.4016 l -1e-4,-88.896813 c 8e-4,-14.02928 -11.3724,-25.40248 -25.4016,-25.4016 z m 0,16.9344 c 4.6764,-3e-4 8.4674,3.79077 8.4672,8.4672 l 1e-4,88.896813 c 2e-4,4.67643 -3.7908,8.4675 -8.4672,8.4672 -4.6765,3e-4 -8.4675,-3.79077 -8.4672,-8.4672 l -1e-4,-88.896813 c -3e-4,-4.67643 3.7907,-8.4675 8.4672,-8.4672 z"
       sodipodi:nodetypes="cccccccccccccc" />
  </g>
</svg>
