<?xml version="1.0" encoding="UTF-8" standalone="no"?>
<!-- Created with Inkscape (http://www.inkscape.org/) -->

<svg
   width="672"
   height="1024"
   viewBox="0 0 177.8 270.93333"
   version="1.1"
   id="svg1"
   inkscape:version="1.4.2 (ebf0e940d0, 2025-05-08)"
   sodipodi:docname="pali.svg"
   xmlns:inkscape="http://www.inkscape.org/namespaces/inkscape"
   xmlns:sodipodi="http://sodipodi.sourceforge.net/DTD/sodipodi-0.dtd"
   xmlns="http://www.w3.org/2000/svg"
   xmlns:svg="http://www.w3.org/2000/svg">
  <sodipodi:namedview
     id="namedview1"
     pagecolor="#ffffff"
     bordercolor="#eeeeee"
     borderopacity="1"
     inkscape:showpageshadow="0"
     inkscape:pageopacity="0"
     inkscape:pagecheckerboard="0"
     inkscape:deskcolor="#505050"
     inkscape:document-units="mm"
     showgrid="true"
     inkscape:zoom="0.70710678"
     inkscape:cx="368.40263"
     inkscape:cy="383.95898"
     inkscape:window-width="950"
     inkscape:window-height="1039"
     inkscape:window-x="962"
     inkscape:window-y="33"
     inkscape:window-maximized="1"
     inkscape:current-layer="layer1">
    <inkscape:grid
       id="grid1"
       units="px"
       originx="0"
       originy="0"
       spacingx="7.9375"
       spacingy="7.9375"
       empcolor="#ffffff"
       empopacity="0.54509804"
       color="#ffffff"
       opacity="0.14901961"
       empspacing="4"
       enabled="false"
       visible="true" />
    <inkscape:grid
       id="grid2"
       units="px"
       originx="0"
       originy="0"
       spacingx="3.96875"
       spacingy="3.96875"
       empcolor="#ffffff"
       empopacity="0.30196078"
       color="#ffffff"
       opacity="0.14901961"
       empspacing="4"
       enabled="false"
       visible="true" />
  </sodipodi:namedview>
  <defs
     id="defs1" />
  <g
     inkscape:label="Layer 1"
     inkscape:groupmode="layer"
     id="layer1">
    <path
       id="rect93-1-7"
       style="vector-effect:non-scaling-stroke;fill:#000000;stroke:none;stroke-width:0.264583;stroke-miterlimit:7.9;-inkscape-stroke:hairline;paint-order:stroke fill markers"
       inkscape:transform-center-y="-74.089283"
       d="m 97.364851,127.00781 c -23.3792,0 -42.3296,18.9504 -42.3296,42.336 v 5.632 l -11.8528,-15.8016 -13.5488,10.1632 25.4016,33.86241 h 16.9344 v -33.86241 c 0,-14.0288 11.3664,-25.4016 25.3952,-25.4016 14.028799,0 25.401599,11.3728 25.401599,25.4016 v 33.86241 h 16.9344 v -33.86241 c 0,-23.3856 -18.9568,-42.336 -42.335999,-42.336 z"
       sodipodi:nodetypes="sscccccsssccss"
       inkscape:transform-center-x="0.0031660203" />
    <path
       id="path101"
       style="vector-effect:non-scaling-stroke;fill:#000000;stroke:none;stroke-width:0.264583;stroke-miterlimit:7.9;-inkscape-stroke:hairline;paint-order:stroke fill markers"
       d="m 97.364451,63.496645 a 38.1,38.1 0 0 0 -38.0992,38.099205 38.1,38.1 0 0 0 38.0992,38.0992 38.1,38.1 0 0 0 38.099199,-38.0992 38.1,38.1 0 0 0 -38.099199,-38.099205 z m 0,16.9344 a 21.166666,21.166666 0 0 1 21.171199,21.164805 21.166666,21.166666 0 0 1 -21.171199,21.1648 21.166666,21.166666 0 0 1 -21.1648,-21.1648 21.166666,21.166666 0 0 1 21.1648,-21.164805 z" />
  </g>
</svg>
