<?xml version="1.0" encoding="UTF-8" standalone="no"?>
<!-- Created with Inkscape (http://www.inkscape.org/) -->

<svg
   width="672"
   height="1024"
   viewBox="0 0 177.8 270.93333"
   version="1.1"
   id="svg1"
   inkscape:version="1.4.2 (ebf0e940d0, 2025-05-08)"
   sodipodi:docname="pilin.svg"
   xmlns:inkscape="http://www.inkscape.org/namespaces/inkscape"
   xmlns:sodipodi="http://sodipodi.sourceforge.net/DTD/sodipodi-0.dtd"
   xmlns="http://www.w3.org/2000/svg"
   xmlns:svg="http://www.w3.org/2000/svg">
  <sodipodi:namedview
     id="namedview1"
     pagecolor="#ffffff"
     bordercolor="#eeeeee"
     borderopacity="1"
     inkscape:showpageshadow="0"
     inkscape:pageopacity="0"
     inkscape:pagecheckerboard="0"
     inkscape:deskcolor="#505050"
     inkscape:document-units="mm"
     showgrid="true"
     inkscape:zoom="0.70710678"
     inkscape:cx="516.89506"
     inkscape:cy="497.09607"
     inkscape:window-width="950"
     inkscape:window-height="1039"
     inkscape:window-x="962"
     inkscape:window-y="33"
     inkscape:window-maximized="1"
     inkscape:current-layer="layer1">
    <inkscape:grid
       id="grid1"
       units="px"
       originx="0"
       originy="0"
       spacingx="7.9375"
       spacingy="7.9375"
       empcolor="#ffffff"
       empopacity="0.54509804"
       color="#ffffff"
       opacity="0.14901961"
       empspacing="4"
       enabled="false"
       visible="true" />
    <inkscape:grid
       id="grid2"
       units="px"
       originx="0"
       originy="0"
       spacingx="3.96875"
       spacingy="3.96875"
       empcolor="#ffffff"
       empopacity="0.30196078"
       color="#ffffff"
       opacity="0.14901961"
       empspacing="4"
       enabled="false"
       visible="true" />
  </sodipodi:namedview>
  <defs
     id="defs1" />
  <g
     inkscape:label="Layer 1"
     inkscape:groupmode="layer"
     id="layer1">
    <path
       id="path73-0"
       style="font-variation-settings:'wdth' 75, 'wght' 700;vector-effect:non-scaling-stroke;fill:#000000;stroke:none;stroke-width:0.264583;stroke-miterlimit:7.9;-inkscape-stroke:hairline;paint-order:stroke fill markers"
       d="m 59.267966,67.737771 c -21.0432,0 -38.0992,17.056003 -38.0992,38.099199 0,8.5248 2.88,16.8064 8.1216,23.52 l 59.6096,73.84321 59.609604,-73.84321 c 5.248,-6.7136 8.1216,-14.9952 8.1216,-23.52 0,-21.043196 -17.056,-38.099199 -38.0992,-38.099199 -11.968,0 -22.649604,10.4128 -29.632004,19.046403 -6.9824,-8.633603 -17.664,-19.046403 -29.632,-19.046403 z m 0,16.928003 c 11.6864,0 25.4016,21.171196 29.632,29.638396 4.224,-8.4672 17.945604,-29.638396 29.632004,-29.638396 11.6928,0 21.1712,9.4784 21.1712,21.171196 0,4.736 -1.6,9.3376 -4.544,13.0624 l -46.284804,58.98881 -46.2848,-58.98881 c -2.944,-3.712 -4.48,-8.3264 -4.48,-13.0624 0,-11.692796 9.472,-21.171196 21.1648,-21.171196 z"
       sodipodi:nodetypes="scccccscsscssccccs" />
  </g>
</svg>
