<?xml version="1.0" encoding="UTF-8" standalone="no"?>
<!-- Created with Inkscape (http://www.inkscape.org/) -->

<svg
   width="672"
   height="1024"
   viewBox="0 0 177.8 270.93333"
   version="1.1"
   id="svg1"
   inkscape:version="1.4.2 (ebf0e940d0, 2025-05-08)"
   sodipodi:docname="suno.svg"
   xmlns:inkscape="http://www.inkscape.org/namespaces/inkscape"
   xmlns:sodipodi="http://sodipodi.sourceforge.net/DTD/sodipodi-0.dtd"
   xmlns="http://www.w3.org/2000/svg"
   xmlns:svg="http://www.w3.org/2000/svg">
  <sodipodi:namedview
     id="namedview1"
     pagecolor="#ffffff"
     bordercolor="#eeeeee"
     borderopacity="1"
     inkscape:showpageshadow="0"
     inkscape:pageopacity="0"
     inkscape:pagecheckerboard="0"
     inkscape:deskcolor="#505050"
     inkscape:document-units="mm"
     showgrid="true"
     inkscape:zoom="0.70710678"
     inkscape:cx="368.40263"
     inkscape:cy="383.95898"
     inkscape:window-width="950"
     inkscape:window-height="1039"
     inkscape:window-x="962"
     inkscape:window-y="33"
     inkscape:window-maximized="1"
     inkscape:current-layer="layer1">
    <inkscape:grid
       id="grid1"
       units="px"
       originx="0"
       originy="0"
       spacingx="7.9375"
       spacingy="7.9375"
       empcolor="#ffffff"
       empopacity="0.54509804"
       color="#ffffff"
       opacity="0.14901961"
       empspacing="4"
       enabled="false"
       visible="true" />
    <inkscape:grid
       id="grid2"
       units="px"
       originx="0"
       originy="0"
       spacingx="3.96875"
       spacingy="3.96875"
       empcolor="#ffffff"
       empopacity="0.30196078"
       color="#ffffff"
       opacity="0.14901961"
       empspacing="4"
       enabled="false"
       visible="true" />
  </sodipodi:namedview>
  <defs
     id="defs1" />
  <g
     inkscape:label="Layer 1"
     inkscape:groupmode="layer"
     id="layer1">
    <path
       id="path23-6"
       style="vector-effect:non-scaling-stroke;fill:#000000;stroke:none;stroke-width:0.264583;stroke-linecap:square;stroke-miterlimit:180;stroke-dasharray:none;-inkscape-stroke:hairline;paint-order:fill markers stroke"
       d="m 80.432954,67.733326 v 26.3616 a 42.333333,42.333333 0 0 0 -32.9024,32.908814 h -26.3616 v 16.9344 h 26.3616 a 42.333333,42.333333 0 0 0 32.9024,32.9024 v 26.3616 h 16.9344 v -26.3616 a 42.333333,42.333333 0 0 0 32.902396,-32.9024 h 26.3616 v -16.9344 h -26.2592 A 42.333333,42.333333 0 0 0 97.367354,93.992526 v -26.2592 z m 8.4672,42.336014 a 25.4,25.4 0 0 1 25.401596,25.4016 25.4,25.4 0 0 1 -25.401596,25.3952 25.4,25.4 0 0 1 -25.4016,-25.3952 25.4,25.4 0 0 1 25.4016,-25.4016 z" />
  </g>
</svg>
