<?xml version="1.0" encoding="UTF-8" standalone="no"?>
<!-- Created with Inkscape (http://www.inkscape.org/) -->

<svg
   width="672"
   height="1024"
   viewBox="0 0 177.8 270.93333"
   version="1.1"
   id="svg1"
   inkscape:version="1.4.2 (ebf0e940d0, 2025-05-08)"
   sodipodi:docname="unpa.svg"
   xmlns:inkscape="http://www.inkscape.org/namespaces/inkscape"
   xmlns:sodipodi="http://sodipodi.sourceforge.net/DTD/sodipodi-0.dtd"
   xmlns="http://www.w3.org/2000/svg"
   xmlns:svg="http://www.w3.org/2000/svg">
  <sodipodi:namedview
     id="namedview1"
     pagecolor="#ffffff"
     bordercolor="#eeeeee"
     borderopacity="1"
     inkscape:showpageshadow="0"
     inkscape:pageopacity="0"
     inkscape:pagecheckerboard="0"
     inkscape:deskcolor="#505050"
     inkscape:document-units="mm"
     showgrid="true"
     inkscape:zoom="0.70710678"
     inkscape:cx="368.40263"
     inkscape:cy="497.09607"
     inkscape:window-width="950"
     inkscape:window-height="1039"
     inkscape:window-x="962"
     inkscape:window-y="33"
     inkscape:window-maximized="1"
     inkscape:current-layer="layer1">
    <inkscape:grid
       id="grid1"
       units="px"
       originx="0"
       originy="0"
       spacingx="7.9375"
       spacingy="7.9375"
       empcolor="#ffffff"
       empopacity="0.54509804"
       color="#ffffff"
       opacity="0.14901961"
       empspacing="4"
       enabled="false"
       visible="true" />
    <inkscape:grid
       id="grid2"
       units="px"
       originx="0"
       originy="0"
       spacingx="3.96875"
       spacingy="3.96875"
       empcolor="#ffffff"
       empopacity="0.30196078"
       color="#ffffff"
       opacity="0.14901961"
       empspacing="4"
       enabled="false"
       visible="true" />
  </sodipodi:namedview>
  <defs
     id="defs1" />
  <g
     inkscape:label="Layer 1"
     inkscape:groupmode="layer"
     id="layer1">
    <path
       id="path81-6"
       style="font-variation-settings:'wdth' 75, 'wght' 700;vector-effect:non-scaling-stroke;fill:#000000;stroke:none;stroke-width:0.264583;stroke-miterlimit:7.9;-inkscape-stroke:hairline;paint-order:stroke fill markers"
       d="m 59.271127,71.971709 a 38.1,38.1 0 0 0 -38.1056,38.099201 38.1,38.1 0 0 0 29.6384,37.14561 v 13.6512 a 38.1,38.1 0 0 0 38.0992,38.0992 38.1,38.1 0 0 0 38.099203,-38.0736 38.1,38.1 0 0 0 0,-0.0256 v -13.6512 a 38.1,38.1 0 0 0 29.632,-37.14561 38.1,38.1 0 0 0 -38.0992,-38.099201 67.733331,67.733331 0 0 0 -29.632003,6.9824 67.733331,67.733331 0 0 0 -29.632,-6.9824 z m 0,16.9344 a 50.8,50.8 0 0 1 12.7104,1.664 67.733331,67.733331 0 0 0 -20.448,39.168001 21.166666,21.166666 0 0 1 -13.4336,-19.6992 21.166666,21.166666 0 0 1 21.1712,-21.164801 z m 59.264003,0 a 21.166666,21.166666 0 0 1 21.1648,21.164801 21.166666,21.166666 0 0 1 -13.4272,19.6992 67.733331,67.733331 0 0 0 -20.448,-39.168001 50.8,50.8 0 0 1 12.7104,-1.664 z m -29.632003,9.6896 A 50.8,50.8 0 0 1 109.35753,131.23571 H 68.442327 a 50.8,50.8 0 0 1 20.4608,-32.640001 z m -21.1648,49.574411 h 42.329603 v 12.6976 a 21.166666,21.166666 0 0 1 0,0.0256 21.166666,21.166666 0 0 1 -21.164803,21.1456 21.166666,21.166666 0 0 1 -21.1648,-21.1712 z" />
  </g>
</svg>
