<?xml version="1.0" encoding="UTF-8" standalone="no"?>
<!-- Created with Inkscape (http://www.inkscape.org/) -->

<svg
   width="672"
   height="1024"
   viewBox="0 0 177.8 270.93333"
   version="1.1"
   id="svg1"
   inkscape:version="1.4.2 (ebf0e940d0, 2025-05-08)"
   sodipodi:docname="wile.svg"
   xmlns:inkscape="http://www.inkscape.org/namespaces/inkscape"
   xmlns:sodipodi="http://sodipodi.sourceforge.net/DTD/sodipodi-0.dtd"
   xmlns="http://www.w3.org/2000/svg"
   xmlns:svg="http://www.w3.org/2000/svg">
  <sodipodi:namedview
     id="namedview1"
     pagecolor="#ffffff"
     bordercolor="#eeeeee"
     borderopacity="1"
     inkscape:showpageshadow="0"
     inkscape:pageopacity="0"
     inkscape:pagecheckerboard="0"
     inkscape:deskcolor="#505050"
     inkscape:document-units="mm"
     showgrid="true"
     inkscape:zoom="0.70710678"
     inkscape:cx="368.40263"
     inkscape:cy="497.09607"
     inkscape:window-width="950"
     inkscape:window-height="1039"
     inkscape:window-x="962"
     inkscape:window-y="33"
     inkscape:window-maximized="1"
     inkscape:current-layer="layer1">
    <inkscape:grid
       id="grid1"
       units="px"
       originx="0"
       originy="0"
       spacingx="7.9375"
       spacingy="7.9375"
       empcolor="#ffffff"
       empopacity="0.54509804"
       color="#ffffff"
       opacity="0.14901961"
       empspacing="4"
       enabled="false"
       visible="true" />
    <inkscape:grid
       id="grid2"
       units="px"
       originx="0"
       originy="0"
       spacingx="3.96875"
       spacingy="3.96875"
       empcolor="#ffffff"
       empopacity="0.30196078"
       color="#ffffff"
       opacity="0.14901961"
       empspacing="4"
       enabled="false"
       visible="true" />
  </sodipodi:namedview>
  <defs
     id="defs1" />
  <g
     inkscape:label="Layer 1"
     inkscape:groupmode="layer"
     id="layer1">
    <path
       id="path74"
       style="font-variation-settings:'wdth' 75, 'wght' 700;vector-effect:non-scaling-stroke;fill:#000000;stroke:none;stroke-width:0.264583;stroke-miterlimit:7.9;-inkscape-stroke:hairline;paint-order:stroke fill markers"
       d="m 49.874942,79.509761 c -18.4114,18.96041 -28.71,44.348879 -28.7104,70.777589 0,0.70405 0.01,1.40809 0.019,2.11201 h -0.019 c 3e-4,21.04146 17.0575,38.09894 38.099,38.09949 11.5084,-6.6e-4 22.3999,-5.20319 29.6328,-14.1547 7.2339,8.95279 18.127398,14.15546 29.637498,14.1547 21.0416,-3.3e-4 38.0991,-17.05787 38.0994,-38.09949 h -0.026 c 0.016,-0.70389 0.024,-1.40794 0.026,-2.11201 -4e-4,-26.42871 -10.299,-51.817179 -28.7104,-70.777589 l -11.9744,11.97446 c 15.236,15.783849 23.7508,36.865339 23.7505,58.803129 1e-4,0.70408 -0.01,1.40814 -0.026,2.11201 h 0.026 c 0,11.69123 -9.4739,21.17046 -21.1651,21.17132 -11.6933,0.002 -21.173198,-9.47751 -21.170898,-21.1708 v -8.46661 l -16.9334,-1e-4 v 8.46666 c 0,11.69123 -9.4777,21.16999 -21.1689,21.17085 -11.691,-0.001 -21.1672,-9.48028 -21.1646,-21.17132 h 0.025 c -0.017,-0.70387 -0.026,-1.40793 -0.026,-2.11201 -3e-4,-21.93779 8.5145,-43.01928 23.7505,-58.803129 z"
       sodipodi:nodetypes="ccccccccccccsccccccccccccc" />
  </g>
</svg>
