<?xml version="1.0" encoding="UTF-8" standalone="no"?>
<!-- Created with Inkscape (http://www.inkscape.org/) -->

<svg
   width="110mm"
   height="130mm"
   viewBox="0 0 110 130"
   version="1.1"
   id="svg1"
   inkscape:version="1.4 (e7c3feb100, 2024-10-09)"
   sodipodi:docname="a.svg"
   xmlns:inkscape="http://www.inkscape.org/namespaces/inkscape"
   xmlns:sodipodi="http://sodipodi.sourceforge.net/DTD/sodipodi-0.dtd"
   xmlns="http://www.w3.org/2000/svg"
   xmlns:svg="http://www.w3.org/2000/svg">
  <sodipodi:namedview
     id="namedview1"
     pagecolor="#505050"
     bordercolor="#eeeeee"
     borderopacity="1"
     inkscape:showpageshadow="0"
     inkscape:pageopacity="0"
     inkscape:pagecheckerboard="0"
     inkscape:deskcolor="#505050"
     inkscape:document-units="mm"
     showgrid="true"
     inkscape:zoom="0.87290877"
     inkscape:cx="203.91593"
     inkscape:cy="261.19568"
     inkscape:window-width="1366"
     inkscape:window-height="768"
     inkscape:window-x="0"
     inkscape:window-y="0"
     inkscape:window-maximized="1"
     inkscape:current-layer="layer1">
    <inkscape:grid
       id="grid1"
       units="mm"
       originx="0"
       originy="0"
       spacingx="2.5"
       spacingy="2.5"
       empcolor="#ffffff"
       empopacity="0.30196078"
       color="#ffffff"
       opacity="0.14901961"
       empspacing="4"
       dotted="false"
       gridanglex="30"
       gridanglez="30"
       visible="true" />
  </sodipodi:namedview>
  <defs
     id="defs1" />
  <g
     inkscape:label="Layer 1"
     inkscape:groupmode="layer"
     id="layer1">
    <path
       id="path1-5"
       style="vector-effect:non-scaling-stroke;fill:#ffffff;stroke-width:0.264583;stroke-linecap:round;stroke-miterlimit:180;-inkscape-stroke:hairline;paint-order:fill markers stroke"
       d="M 44.999998,20.000001 V 60.000003 H 54.999999 V 20.000001 Z m 5,50.000003 a 20.000001,20.000001 0 0 0 -20.000001,20 20.000001,20.000001 0 0 0 20.000001,20.000006 20.000001,20.000001 0 0 0 14.999349,-6.78712 20.000001,20.000001 0 0 0 15.000656,6.78712 V 100 a 10.000001,10.000001 0 0 1 -10.000001,-9.999996 20.000001,20.000001 0 0 0 -20.000004,-20 z m 0,10 a 10.000001,10.000001 0 0 1 10.000004,10 A 10.000001,10.000001 0 0 1 49.999998,100 a 10.000001,10.000001 0 0 1 -10,-9.999996 10.000001,10.000001 0 0 1 10,-10 z" />
  </g>
</svg>
