<?xml version="1.0" encoding="UTF-8" standalone="no"?>
<!-- Created with Inkscape (http://www.inkscape.org/) -->

<svg
   width="110mm"
   height="130mm"
   viewBox="0 0 110 130"
   version="1.1"
   id="svg1"
   inkscape:version="1.4.2 (ebf0e940d0, 2025-05-08)"
   sodipodi:docname="jo.svg"
   xmlns:inkscape="http://www.inkscape.org/namespaces/inkscape"
   xmlns:sodipodi="http://sodipodi.sourceforge.net/DTD/sodipodi-0.dtd"
   xmlns="http://www.w3.org/2000/svg"
   xmlns:svg="http://www.w3.org/2000/svg">
  <sodipodi:namedview
     id="namedview1"
     pagecolor="#505050"
     bordercolor="#eeeeee"
     borderopacity="1"
     inkscape:showpageshadow="0"
     inkscape:pageopacity="0"
     inkscape:pagecheckerboard="0"
     inkscape:deskcolor="#505050"
     inkscape:document-units="mm"
     showgrid="true"
     inkscape:zoom="0.0625"
     inkscape:cx="432"
     inkscape:cy="568"
     inkscape:window-width="1920"
     inkscape:window-height="1080"
     inkscape:window-x="0"
     inkscape:window-y="0"
     inkscape:window-maximized="1"
     inkscape:current-layer="layer1"
     showguides="true">
    <inkscape:grid
       id="grid1"
       units="mm"
       originx="0"
       originy="0"
       spacingx="2.5000001"
       spacingy="2.5000001"
       empcolor="#ffffff"
       empopacity="0.30196078"
       color="#ffffff"
       opacity="0.14901961"
       empspacing="4"
       dotted="false"
       gridanglex="30"
       gridanglez="30"
       visible="true" />
  </sodipodi:namedview>
  <defs
     id="defs1">
    <inkscape:path-effect
       effect="spiro"
       id="path-effect11"
       is_visible="true"
       lpeversion="1" />
    <inkscape:path-effect
       effect="spiro"
       id="path-effect11-1"
       is_visible="true"
       lpeversion="1" />
  </defs>
  <g
     inkscape:label="Layer 1"
     inkscape:groupmode="layer"
     id="layer1">
    <path
       id="rect8"
       style="vector-effect:non-scaling-stroke;fill:#020202;fill-opacity:1;stroke:none;stroke-width:0.252566;stroke-miterlimit:100;stroke-dasharray:none;stroke-opacity:1;-inkscape-stroke:hairline"
       d="m 50.000252,69.999896 v 5.000212 4.999695 l 29.999999,1.99e-4 v -4.999894 l -2.54e-4,-2.500107 8.727231,-2.500105 z"
       sodipodi:nodetypes="cccccccc" />
    <path
       id="path2"
       style="vector-effect:non-scaling-stroke;fill:#000000;fill-rule:evenodd;stroke-width:0.264583;stroke-miterlimit:100;-inkscape-stroke:hairline"
       d="M 44.999837 39.05033 A 33.75 33.75 0 0 0 21.249349 71.249915 A 33.75 33.75 0 0 0 54.999744 104.99979 A 33.75 33.75 0 0 0 88.750138 71.249915 A 33.75 33.75 0 0 0 88.707764 69.999862 L 78.70734 69.999862 A 23.749998 23.749998 0 0 1 78.749715 71.249915 A 23.749998 23.749998 0 0 1 54.999744 94.999886 A 23.749998 23.749998 0 0 1 31.249772 71.249915 A 23.749998 23.749998 0 0 1 44.999837 49.807812 L 44.999837 39.05033 z " />
    <path
       id="path3"
       style="vector-effect:non-scaling-stroke;fill:#000000;stroke-width:0.264583;stroke-miterlimit:7.9;-inkscape-stroke:hairline;paint-order:stroke fill markers"
       d="M 54.999998,19.999813 A 20,20 0 0 0 35.000185,40.000142 20,20 0 0 0 54.999998,59.999955 20,20 0 0 0 74.999811,40.000142 20,20 0 0 0 54.999998,19.999813 Z m 0,10.000423 a 9.999999,9.999999 0 0 1 9.999907,9.999906 9.999999,9.999999 0 0 1 -9.999907,9.999907 9.999999,9.999999 0 0 1 -9.999906,-9.999907 9.999999,9.999999 0 0 1 9.999906,-9.999906 z" />
  </g>
</svg>
