<?xml version="1.0" encoding="UTF-8" standalone="no"?>
<!-- Created with Inkscape (http://www.inkscape.org/) -->

<svg
   width="110mm"
   height="130mm"
   viewBox="0 0 110 130"
   version="1.1"
   id="svg1"
   inkscape:version="1.4.2 (ebf0e940d0, 2025-05-08)"
   sodipodi:docname="kepeken.svg"
   xmlns:inkscape="http://www.inkscape.org/namespaces/inkscape"
   xmlns:sodipodi="http://sodipodi.sourceforge.net/DTD/sodipodi-0.dtd"
   xmlns="http://www.w3.org/2000/svg"
   xmlns:svg="http://www.w3.org/2000/svg">
  <sodipodi:namedview
     id="namedview1"
     pagecolor="#505050"
     bordercolor="#eeeeee"
     borderopacity="1"
     inkscape:showpageshadow="0"
     inkscape:pageopacity="0"
     inkscape:pagecheckerboard="0"
     inkscape:deskcolor="#505050"
     inkscape:document-units="mm"
     showgrid="true"
     inkscape:zoom="1.4142136"
     inkscape:cx="191.62594"
     inkscape:cy="182.08"
     inkscape:window-width="633"
     inkscape:window-height="1039"
     inkscape:window-x="642"
     inkscape:window-y="33"
     inkscape:window-maximized="0"
     inkscape:current-layer="layer1">
    <inkscape:grid
       id="grid1"
       units="mm"
       originx="0"
       originy="0"
       spacingx="1.25"
       spacingy="1.25"
       empcolor="#ffffff"
       empopacity="0.30196078"
       color="#ffffff"
       opacity="0.14901961"
       empspacing="8"
       dotted="false"
       gridanglex="30"
       gridanglez="30"
       visible="true" />
  </sodipodi:namedview>
  <defs
     id="defs1" />
  <g
     inkscape:label="Layer 1"
     inkscape:groupmode="layer"
     id="layer1">
    <path
       id="rect2"
       style="vector-effect:non-scaling-stroke;fill:#020202;stroke-width:0.264583;stroke-miterlimit:100;-inkscape-stroke:hairline"
       d="m 29.999995,20.000012 4e-6,34.999989 h 59.999998 l -4e-6,-34.999989 z m 9.999906,9.999907 15.000144,-9.3e-5 4e-6,15.000175 -15.000144,9.3e-5 z m 25.00005,-9.3e-5 15.000136,9.3e-5 4e-6,15.000175 -15.000136,-9.3e-5 z"
       sodipodi:nodetypes="ccccccccccccccc" />
    <path
       id="rect3"
       style="vector-effect:non-scaling-stroke;fill:#020202;stroke-width:0.264583;stroke-miterlimit:100;-inkscape-stroke:hairline"
       d="m 54.999996,50.000012 h 9.999999 v 19.999999 h -9.999999 z"
       sodipodi:nodetypes="ccccc" />
    <path
       id="rect4"
       style="vector-effect:non-scaling-stroke;fill:#020202;stroke-width:0.295813;stroke-miterlimit:100;-inkscape-stroke:hairline"
       d="m 32.499999,95.000002 h 9.999999 V 110 h -9.999999 z" />
    <path
       id="rect5"
       style="vector-effect:non-scaling-stroke;fill:#020202;stroke-width:0.295813;stroke-miterlimit:100;-inkscape-stroke:hairline"
       d="m 79.999996,94.945131 h 9.999999 V 110 h -9.999999 z" />
    <path
       id="rect6"
       style="vector-effect:non-scaling-stroke;fill:#020202;stroke-width:0.216031;stroke-miterlimit:100;-inkscape-stroke:hairline"
       inkscape:transform-center-x="-12.769068"
       inkscape:transform-center-y="11.966656"
       d="m 14.999999,80.000002 8.63779,-5.038707 17.5,30.000005 -8.63779,5.0387 z"
       sodipodi:nodetypes="ccccc" />
    <path
       id="path2"
       style="vector-effect:non-scaling-stroke;fill:#000000;stroke:none;stroke-width:0.264583;stroke-miterlimit:7.9;-inkscape-stroke:hairline;paint-order:stroke fill markers"
       d="m 61.250008,66.140025 a 28.75,28.75 0 0 0 -28.750183,28.749662 28.75,28.75 0 0 0 0,0.11008 h 10.000423 a 18.75,18.75 0 0 1 18.74976,-18.749765 18.75,18.75 0 0 1 18.74976,18.749765 h 10.000423 a 28.75,28.75 0 0 0 0,-0.11008 28.75,28.75 0 0 0 -28.750183,-28.749662 z" />
  </g>
</svg>
