<?xml version="1.0" encoding="UTF-8" standalone="no"?>
<!-- Created with Inkscape (http://www.inkscape.org/) -->

<svg
   width="110mm"
   height="130mm"
   viewBox="0 0 110 130"
   version="1.1"
   id="svg1"
   inkscape:version="1.3.2 (091e20ef0f, 2023-11-25, custom)"
   sodipodi:docname="kijesankalu.svg"
   xmlns:inkscape="http://www.inkscape.org/namespaces/inkscape"
   xmlns:sodipodi="http://sodipodi.sourceforge.net/DTD/sodipodi-0.dtd"
   xmlns="http://www.w3.org/2000/svg"
   xmlns:svg="http://www.w3.org/2000/svg">
  <sodipodi:namedview
     id="namedview1"
     pagecolor="#505050"
     bordercolor="#eeeeee"
     borderopacity="1"
     inkscape:showpageshadow="0"
     inkscape:pageopacity="0"
     inkscape:pagecheckerboard="0"
     inkscape:deskcolor="#505050"
     inkscape:document-units="mm"
     showgrid="true"
     inkscape:zoom="0.62496062"
     inkscape:cx="174.41099"
     inkscape:cy="317.62002"
     inkscape:window-width="1354"
     inkscape:window-height="733"
     inkscape:window-x="5"
     inkscape:window-y="5"
     inkscape:window-maximized="1"
     inkscape:current-layer="layer1"
     showguides="true">
    <inkscape:grid
       id="grid1"
       units="mm"
       originx="0"
       originy="0"
       spacingx="2.5000001"
       spacingy="2.5000001"
       empcolor="#ffffff"
       empopacity="0.30196078"
       color="#ffffff"
       opacity="0.14901961"
       empspacing="4"
       dotted="false"
       gridanglex="30"
       gridanglez="30"
       visible="true" />
  </sodipodi:namedview>
  <defs
     id="defs1">
    <inkscape:path-effect
       effect="spiro"
       id="path-effect22"
       is_visible="true"
       lpeversion="1" />
    <inkscape:path-effect
       effect="spiro"
       id="path-effect11"
       is_visible="true"
       lpeversion="1" />
    <inkscape:path-effect
       effect="spiro"
       id="path-effect11-1"
       is_visible="true"
       lpeversion="1" />
  </defs>
  <g
     inkscape:label="Layer 1"
     inkscape:groupmode="layer"
     id="layer1">
    <path
       id="path15"
       style="font-variation-settings:'wght' 700;fill:#000000;fill-opacity:1;stroke-width:0.264583"
       d="M 30.000237,69.999962 C 18.954486,69.999779 10.00001,78.954024 9.9999078,89.999775 9.9997217,101.04573 18.954282,110.00029 30.000237,110.00011 L 39.999999,110 v -10 l -9.999762,2e-4 c -5.523179,2.3e-4 -10.000658,-4.477246 -10.000423,-10.000425 5.1e-5,-5.522976 4.477447,-10.00014 10.000423,-9.999906 l 9.999762,1.33e-4 V 70.000001 Z"
       sodipodi:nodetypes="ccccccccccc" />
    <path
       id="path24"
       style="font-variation-settings:'wght' 700;stroke-width:0.295855"
       inkscape:transform-center-x="4.9600136"
       inkscape:transform-center-y="2.5801288"
       d="m 82.460014,59.91987 a 5.5909615,5.5909615 0 0 1 -2.379887,7.540149 5.5909615,5.5909615 0 0 1 -7.540148,-2.379888 5.5909615,5.5909615 0 0 1 2.379886,-7.540147 5.5909615,5.5909615 0 0 1 7.540149,2.379886 z" />
    <path
       id="path24-1"
       style="font-variation-settings:'wght' 700;stroke-width:0.295855"
       inkscape:transform-center-x="4.9600136"
       inkscape:transform-center-y="2.5801288"
       d="m 62.500001,59.999999 a 5.5909615,5.5909615 0 0 1 -2.379886,7.540149 5.5909615,5.5909615 0 0 1 -7.540149,-2.379887 5.5909615,5.5909615 0 0 1 2.379888,-7.540149 5.5909615,5.5909615 0 0 1 7.540147,2.379887 z" />
    <path
       id="rect1"
       style="fill:#000000;stroke-width:2.64583;stroke-linejoin:round;stroke-miterlimit:40;paint-order:stroke fill markers"
       d="M 34.999931,19.999813 V 110 H 100.0001 V 19.999813 L 67.499756,39.999626 Z m 9.999906,17.895548 22.500436,13.8467 22.499918,-13.8467 V 100.0001 H 44.999837 Z"
       sodipodi:nodetypes="cccccccccccc" />
    <rect
       style="vector-effect:non-scaling-stroke;fill:#000000;stroke:none;stroke-width:0.264583;stroke-linejoin:round;stroke-miterlimit:40;-inkscape-stroke:hairline;paint-order:stroke fill markers"
       id="rect3"
       width="7.5"
       height="28.803488"
       x="23.749998"
       y="75.598259" />
  </g>
</svg>
