<?xml version="1.0" encoding="UTF-8" standalone="no"?>
<!-- Created with Inkscape (http://www.inkscape.org/) -->

<svg
   width="110mm"
   height="130mm"
   viewBox="0 0 110 130"
   version="1.1"
   id="svg1"
   inkscape:version="1.3.2 (091e20ef0f, 2023-11-25, custom)"
   sodipodi:docname="kala.svg"
   xmlns:inkscape="http://www.inkscape.org/namespaces/inkscape"
   xmlns:sodipodi="http://sodipodi.sourceforge.net/DTD/sodipodi-0.dtd"
   xmlns="http://www.w3.org/2000/svg"
   xmlns:svg="http://www.w3.org/2000/svg">
  <sodipodi:namedview
     id="namedview1"
     pagecolor="#505050"
     bordercolor="#eeeeee"
     borderopacity="1"
     inkscape:showpageshadow="0"
     inkscape:pageopacity="0"
     inkscape:pagecheckerboard="0"
     inkscape:deskcolor="#505050"
     inkscape:document-units="mm"
     showgrid="true"
     inkscape:zoom="0.53933893"
     inkscape:cx="57.477772"
     inkscape:cy="350.429"
     inkscape:window-width="1366"
     inkscape:window-height="768"
     inkscape:window-x="0"
     inkscape:window-y="0"
     inkscape:window-maximized="1"
     inkscape:current-layer="layer1"
     showguides="true">
    <inkscape:grid
       id="grid1"
       units="mm"
       originx="0"
       originy="0"
       spacingx="2.5"
       spacingy="2.5"
       empcolor="#ffffff"
       empopacity="0.30196078"
       color="#ffffff"
       opacity="0.14901961"
       empspacing="4"
       dotted="false"
       gridanglex="30"
       gridanglez="30"
       visible="true" />
  </sodipodi:namedview>
  <defs
     id="defs1">
    <inkscape:path-effect
       effect="spiro"
       id="path-effect11"
       is_visible="true"
       lpeversion="1" />
    <inkscape:path-effect
       effect="spiro"
       id="path-effect11-1"
       is_visible="true"
       lpeversion="1" />
  </defs>
  <g
     inkscape:label="Layer 1"
     inkscape:groupmode="layer"
     id="layer1">
    <path
       id="path2"
       style="vector-effect:non-scaling-stroke;fill:#000000;stroke-width:0.264583;stroke-miterlimit:40;-inkscape-stroke:hairline;paint-order:stroke fill markers"
       d="m 63.749932,51.249872 c -3.333227,0.0019 -6.552307,1.214447 -9.058362,3.412195 l -0.0036,-0.0041 -6.112289,5.355746 -8.575704,-7.513753 -4.94285,5.640999 7.827946,6.859013 -7.827946,6.859013 4.94285,5.640999 8.575704,-7.51427 6.112289,5.355745 0.0036,-0.0036 c 2.506055,2.197748 5.725135,3.410344 9.058362,3.412195 7.593958,3.5e-5 13.7501,-6.156107 13.750065,-13.750065 3.5e-5,-7.593959 -6.156107,-13.7501 -13.750065,-13.750065 z m 0,7.4998 c 3.45178,1.4e-4 6.249893,2.798484 6.249748,6.250265 -1.4e-4,3.451578 -2.79817,6.249608 -6.249748,6.249748 -1.511838,-0.0099 -2.968844,-0.567476 -4.101042,-1.569414 l -0.01809,0.02015 -5.365048,-4.700488 5.365048,-4.701005 0.01757,0.02015 c 1.13233,-1.002054 2.589542,-1.559639 4.101558,-1.569414 z" />
  </g>
</svg>
