<?xml version="1.0" encoding="UTF-8" standalone="no"?>
<!-- Created with Inkscape (http://www.inkscape.org/) -->

<svg
   width="110mm"
   height="130mm"
   viewBox="0 0 110 130"
   version="1.1"
   id="svg1"
   inkscape:version="1.3.2 (091e20ef0f, 2023-11-25, custom)"
   sodipodi:docname="ko.svg"
   xmlns:inkscape="http://www.inkscape.org/namespaces/inkscape"
   xmlns:sodipodi="http://sodipodi.sourceforge.net/DTD/sodipodi-0.dtd"
   xmlns="http://www.w3.org/2000/svg"
   xmlns:svg="http://www.w3.org/2000/svg">
  <sodipodi:namedview
     id="namedview1"
     pagecolor="#505050"
     bordercolor="#eeeeee"
     borderopacity="1"
     inkscape:showpageshadow="0"
     inkscape:pageopacity="0"
     inkscape:pagecheckerboard="0"
     inkscape:deskcolor="#505050"
     inkscape:document-units="mm"
     showgrid="true"
     inkscape:zoom="2.9024668"
     inkscape:cx="226.18691"
     inkscape:cy="240.48509"
     inkscape:window-width="1366"
     inkscape:window-height="768"
     inkscape:window-x="0"
     inkscape:window-y="0"
     inkscape:window-maximized="1"
     inkscape:current-layer="layer1">
    <inkscape:grid
       id="grid1"
       units="mm"
       originx="0"
       originy="0"
       spacingx="2.5000001"
       spacingy="2.5000001"
       empcolor="#ffffff"
       empopacity="0.30196078"
       color="#ffffff"
       opacity="0.14901961"
       empspacing="4"
       dotted="false"
       gridanglex="30"
       gridanglez="30"
       visible="true" />
  </sodipodi:namedview>
  <defs
     id="defs1">
    <inkscape:path-effect
       effect="spiro"
       id="path-effect7"
       is_visible="true"
       lpeversion="1" />
    <inkscape:path-effect
       effect="spiro"
       id="path-effect6"
       is_visible="true"
       lpeversion="1" />
    <inkscape:path-effect
       effect="spiro"
       id="path-effect5"
       is_visible="true"
       lpeversion="1" />
    <inkscape:path-effect
       effect="spiro"
       id="path-effect4"
       is_visible="true"
       lpeversion="1" />
    <inkscape:path-effect
       effect="spiro"
       id="path-effect3"
       is_visible="true"
       lpeversion="1" />
    <inkscape:path-effect
       effect="spiro"
       id="path-effect2"
       is_visible="true"
       lpeversion="1" />
    <inkscape:path-effect
       effect="spiro"
       id="path-effect26"
       is_visible="true"
       lpeversion="1" />
    <inkscape:path-effect
       effect="spiro"
       id="path-effect25"
       is_visible="true"
       lpeversion="1" />
    <inkscape:path-effect
       effect="spiro"
       id="path-effect22"
       is_visible="true"
       lpeversion="1" />
    <inkscape:path-effect
       effect="spiro"
       id="path-effect11"
       is_visible="true"
       lpeversion="1" />
    <inkscape:path-effect
       effect="spiro"
       id="path-effect11-1"
       is_visible="true"
       lpeversion="1" />
    <inkscape:path-effect
       effect="spiro"
       id="path-effect2-7"
       is_visible="true"
       lpeversion="1" />
    <inkscape:path-effect
       effect="spiro"
       id="path-effect2-0"
       is_visible="true"
       lpeversion="1" />
  </defs>
  <g
     inkscape:label="Layer 1"
     inkscape:groupmode="layer"
     id="layer1">
    <path
       style="color:#000000;fill:#000000;fill-opacity:0.991635;stroke-linecap:square;stroke-linejoin:round;stroke-miterlimit:40;-inkscape-stroke:none;paint-order:stroke fill markers"
       d="m 55.751953,42.707031 c -0.961495,-0.08686 -1.902561,0.0072 -2.779297,0.216797 -1.703612,0.407283 -3.052932,1.221149 -4.134765,2.052734 -2.14266,1.647024 -3.338696,3.18652 -4.263672,3.8125 -1.079348,0.730453 -3.548501,1.258563 -6.320313,3.347657 -1.423476,1.072863 -2.824982,2.611085 -3.46289,4.814453 -0.321472,1.110351 -0.420308,2.330424 -0.171875,3.59375 0.251272,1.277776 0.840029,2.506532 1.839843,3.53125 1.209887,1.240019 2.591219,1.77228 3.740235,2.058594 0.60605,0.151017 0.937015,0.160094 1.390625,0.216796 -0.356377,0.27247 -0.614426,0.44911 -1.074219,0.865235 -0.874804,0.791719 -1.884032,1.893034 -2.462891,3.550781 -0.727716,2.084049 -0.448111,4.13659 0.347657,5.855469 0.772937,1.66957 1.958915,2.879618 3.18164,3.765625 2.404344,1.742227 4.732983,2.260324 6.226563,2.865234 1.002304,0.40594 2.186863,1.01916 3.648437,1.609375 1.471028,0.594033 3.23775,1.163794 5.308594,1.181641 2.183684,0.01882 4.543603,-0.601164 6.464844,-2.341797 0.963246,-0.872696 1.746838,-1.97846 2.210937,-3.306641 0.468256,-1.340069 0.579122,-2.809965 0.207031,-4.289062 -0.464514,-1.8465 -1.341545,-2.890817 -1.857421,-3.570313 0.288242,-0.05665 0.41875,-0.131603 0.958984,-0.126953 0.964818,0.0083 2.33439,0.176606 4.089844,0.01172 0.881805,-0.08283 1.853834,-0.260939 2.863281,-0.654297 1.018817,-0.397011 2.04862,-1.003179 2.945312,-1.927734 1.507643,-1.554485 2.201024,-3.528434 2.214844,-5.513672 0.0135,-1.950047 -0.629503,-3.709593 -1.636719,-5.158203 C 74.232098,57.7377 72.941727,56.691598 71.578125,55.951172 70.22509,55.216484 68.835766,54.79807 67.511719,54.556641 66.379937,54.35027 65.525636,54.282563 64.978516,54.173828 c -0.528463,-0.105026 -0.773643,-0.25381 -0.746094,-0.232422 0.03425,0.02659 -0.156209,-0.160294 -0.316406,-0.591797 -0.17064,-0.459631 -0.324169,-1.199348 -0.525391,-2.195312 -0.202091,-1.00026 -0.456583,-2.272931 -1.117188,-3.667969 -0.679402,-1.434728 -1.777836,-2.943843 -3.61914,-3.917969 -0.959094,-0.507399 -1.940849,-0.774466 -2.902344,-0.861328 z m -0.808594,7.876953 c -0.144636,-0.07652 0.01416,7.12e-4 0.15625,0.300782 0.160891,0.339762 0.33173,0.958645 0.509766,1.839843 0.178903,0.885496 0.367817,2.046883 0.865234,3.386719 0.507863,1.367964 1.340192,2.895919 2.890625,4.099609 1.409888,1.094577 2.878413,1.511946 4.066407,1.748047 1.169335,0.232394 2.066393,0.298695 2.65625,0.40625 0.682688,0.124483 1.263555,0.321864 1.703125,0.560547 0.429001,0.232945 0.749913,0.528926 0.919921,0.773438 0.157256,0.22617 0.217418,0.482536 0.216797,0.572265 -3.79e-4,0.05454 -0.06602,0.131234 0.02148,0.04102 0.04088,-0.04215 -0.0024,0.0093 -0.128907,0.05859 -0.135911,0.05296 -0.3806,0.116308 -0.722656,0.148437 -0.692265,0.06502 -1.785713,-0.03403 -3.279297,-0.04687 -1.519859,-0.01308 -3.48221,0.08453 -5.498047,1.169922 -1.023148,0.550897 -2.005615,1.343452 -2.769531,2.462891 -0.777343,1.139113 -1.266438,2.525132 -1.21875,4.091797 0.03622,1.190121 0.372706,2.171067 0.753906,2.960937 0.375922,0.778935 0.786818,1.355567 1.105469,1.796875 0.51261,0.709925 0.585578,0.868056 0.621094,0.890625 -0.138558,0.09567 -0.485132,0.265971 -0.978516,0.261719 -0.584003,-0.005 -1.41548,-0.203422 -2.40625,-0.603516 -1.000223,-0.403912 -2.180192,-1.014775 -3.638672,-1.605469 -2.163078,-0.876062 -3.758533,-1.364839 -4.548828,-1.9375 -0.361749,-0.262129 -0.551432,-0.52362 -0.615234,-0.65039 0.0066,0.0014 -0.0079,-0.0056 0.216797,-0.208985 0.322345,-0.291731 0.925275,-0.712836 1.722656,-1.36914 0.807696,-0.664795 1.814684,-1.581381 2.5625,-3.029297 0.377522,-0.730954 0.670468,-1.577121 0.771484,-2.541016 0.102163,-0.974764 0.002,-2.018797 -0.416015,-3.0625 -0.74605,-1.862507 -2.134408,-2.943767 -3.472656,-3.574218 -1.277375,-0.601774 -2.412414,-0.757735 -3.251954,-0.863282 -0.40376,-0.05076 -0.525289,-0.07624 -0.794921,-0.111328 0.04171,-0.03584 0.02049,-0.04009 0.06836,-0.07617 0.936834,-0.706085 3.225463,-1.238937 5.992187,-3.111328 2.368163,-1.602663 3.642391,-3.317417 4.652344,-4.09375 0.494475,-0.380093 0.912493,-0.571946 1.142578,-0.626953 0.180229,-0.04309 0.285779,0.02647 0.125,-0.05859 z"
       id="path2"
       transform="translate(0.70090031,0.42375992)" />
  </g>
</svg>
