<?xml version="1.0" encoding="UTF-8" standalone="no"?>
<!-- Created with Inkscape (http://www.inkscape.org/) -->

<svg
   width="110mm"
   height="130mm"
   viewBox="0 0 110 130"
   version="1.1"
   id="svg1"
   inkscape:version="1.3.2 (091e20ef0f, 2023-11-25, custom)"
   sodipodi:docname="mama.svg"
   xmlns:inkscape="http://www.inkscape.org/namespaces/inkscape"
   xmlns:sodipodi="http://sodipodi.sourceforge.net/DTD/sodipodi-0.dtd"
   xmlns="http://www.w3.org/2000/svg"
   xmlns:svg="http://www.w3.org/2000/svg">
  <sodipodi:namedview
     id="namedview1"
     pagecolor="#505050"
     bordercolor="#eeeeee"
     borderopacity="1"
     inkscape:showpageshadow="0"
     inkscape:pageopacity="0"
     inkscape:pagecheckerboard="0"
     inkscape:deskcolor="#505050"
     inkscape:document-units="mm"
     showgrid="true"
     inkscape:zoom="2.9898408"
     inkscape:cx="189.30774"
     inkscape:cy="270.41573"
     inkscape:window-width="1354"
     inkscape:window-height="733"
     inkscape:window-x="5"
     inkscape:window-y="5"
     inkscape:window-maximized="1"
     inkscape:current-layer="layer1">
    <inkscape:grid
       id="grid1"
       units="mm"
       originx="0"
       originy="0"
       spacingx="2.5000001"
       spacingy="2.5000001"
       empcolor="#ffffff"
       empopacity="0.30196078"
       color="#ffffff"
       opacity="0.14901961"
       empspacing="4"
       dotted="false"
       gridanglex="30"
       gridanglez="30"
       visible="true" />
  </sodipodi:namedview>
  <defs
     id="defs1" />
  <g
     inkscape:label="Layer 1"
     inkscape:groupmode="layer"
     id="layer1">
    <path
       id="path2"
       style="vector-effect:non-scaling-stroke;fill:#000000;stroke-width:0.264583;stroke-linejoin:round;stroke-miterlimit:40;stroke-opacity:0.991635;-inkscape-stroke:hairline;paint-order:stroke fill markers"
       d="M 54.999744 42.500248 C 46.025036 42.500259 38.749584 49.775711 38.749573 58.750419 C 38.754273 64.338815 41.630113 69.532769 46.364095 72.502551 C 45.478244 74.019668 45.007701 75.743389 44.999837 77.500179 C 44.999889 83.022948 49.476975 87.500034 54.999744 87.500085 C 60.522714 87.500319 65.000115 83.02315 65.000167 77.500179 C 64.999365 75.741658 64.534851 74.014436 63.653479 72.492733 C 68.377788 69.520605 71.246196 64.331873 71.250431 58.750419 C 71.25042 49.775509 63.974654 42.499974 54.999744 42.500248 z M 54.999744 50.000566 C 59.83216 50.00054 63.749623 53.918003 63.749597 58.750419 C 63.749338 63.582634 59.831959 67.499782 54.999744 67.499756 C 50.16773 67.499497 46.250666 63.582432 46.250407 58.750419 C 46.250381 53.918204 50.167528 50.000825 54.999744 50.000566 z M 54.999744 75.000073 A 2.5 2.5 0 0 1 57.499849 77.500179 A 2.5 2.5 0 0 1 54.999744 79.999768 A 2.5 2.5 0 0 1 52.500155 77.500179 A 2.5 2.5 0 0 1 54.999744 75.000073 z " />
  </g>
</svg>
