<?xml version="1.0" encoding="UTF-8" standalone="no"?>
<!-- Created with Inkscape (http://www.inkscape.org/) -->

<svg
   width="110mm"
   height="130mm"
   viewBox="0 0 110 130"
   version="1.1"
   id="svg1"
   inkscape:version="1.3.2 (091e20ef0f, 2023-11-25, custom)"
   sodipodi:docname="mani.svg"
   xmlns:inkscape="http://www.inkscape.org/namespaces/inkscape"
   xmlns:sodipodi="http://sodipodi.sourceforge.net/DTD/sodipodi-0.dtd"
   xmlns="http://www.w3.org/2000/svg"
   xmlns:svg="http://www.w3.org/2000/svg">
  <sodipodi:namedview
     id="namedview1"
     pagecolor="#505050"
     bordercolor="#eeeeee"
     borderopacity="1"
     inkscape:showpageshadow="0"
     inkscape:pageopacity="0"
     inkscape:pagecheckerboard="0"
     inkscape:deskcolor="#505050"
     inkscape:document-units="mm"
     showgrid="true"
     inkscape:zoom="1.4934142"
     inkscape:cx="125.21643"
     inkscape:cy="274.2039"
     inkscape:window-width="1354"
     inkscape:window-height="733"
     inkscape:window-x="5"
     inkscape:window-y="5"
     inkscape:window-maximized="1"
     inkscape:current-layer="layer1">
    <inkscape:grid
       id="grid1"
       units="mm"
       originx="0"
       originy="0"
       spacingx="2.5000001"
       spacingy="2.5000001"
       empcolor="#ffffff"
       empopacity="0.30196078"
       color="#ffffff"
       opacity="0.14901961"
       empspacing="4"
       dotted="false"
       gridanglex="30"
       gridanglez="30"
       visible="true" />
  </sodipodi:namedview>
  <defs
     id="defs1" />
  <g
     inkscape:label="Layer 1"
     inkscape:groupmode="layer"
     id="layer1">
    <path
       id="path2"
       style="vector-effect:non-scaling-stroke;fill:#000000;stroke-width:0.264583;stroke-linejoin:round;stroke-miterlimit:40;stroke-opacity:0.991635;-inkscape-stroke:hairline;paint-order:stroke fill markers"
       d="m 34.999931,54.999227 v 5.17e-4 c 0.0034,4.996385 2.98169,9.510824 7.573698,11.479919 -0.03838,0.339059 -0.06286,0.679548 -0.07338,1.02061 -7e-6,6.903367 5.596129,12.499734 12.499496,12.500012 6.903569,7e-6 12.500019,-5.596443 12.500012,-12.500012 -0.0011,-0.342232 -0.01629,-0.684274 -0.04548,-1.025261 4.579357,-1.976861 7.545168,-6.486918 7.545792,-11.474752 v -5.16e-4 h -7.4998 c 0,0.366505 -0.09118,3.213679 -2.882512,4.518587 -2.374418,-2.861616 -5.899589,-4.517568 -9.618017,-4.518071 -3.714117,0.0064 -7.233058,1.664048 -9.603032,4.523755 -1.762646,-0.817167 -2.892334,-2.581422 -2.896981,-4.524271 z m 19.999813,7.500834 c 2.761589,-1.16e-4 5.000327,2.238623 5.000211,5.000212 -1.7e-4,2.761386 -2.238825,4.99981 -5.000211,4.999694 -2.761185,-1.69e-4 -4.999525,-2.238509 -4.999695,-4.999694 -1.16e-4,-2.761387 2.238308,-5.000043 4.999695,-5.000212 z"
       sodipodi:nodetypes="cscccccscccccccccccc" />
  </g>
</svg>
