<?xml version="1.0" encoding="UTF-8" standalone="no"?>
<!-- Created with Inkscape (http://www.inkscape.org/) -->

<svg
   width="110mm"
   height="130mm"
   viewBox="0 0 110 130"
   version="1.1"
   id="svg1"
   inkscape:version="1.3.2 (091e20ef0f, 2023-11-25, custom)"
   sodipodi:docname="moli.svg"
   xmlns:inkscape="http://www.inkscape.org/namespaces/inkscape"
   xmlns:sodipodi="http://sodipodi.sourceforge.net/DTD/sodipodi-0.dtd"
   xmlns="http://www.w3.org/2000/svg"
   xmlns:svg="http://www.w3.org/2000/svg">
  <sodipodi:namedview
     id="namedview1"
     pagecolor="#505050"
     bordercolor="#eeeeee"
     borderopacity="1"
     inkscape:showpageshadow="0"
     inkscape:pageopacity="0"
     inkscape:pagecheckerboard="0"
     inkscape:deskcolor="#505050"
     inkscape:document-units="mm"
     showgrid="true"
     inkscape:zoom="0.61672962"
     inkscape:cx="159.71343"
     inkscape:cy="169.44216"
     inkscape:window-width="1354"
     inkscape:window-height="733"
     inkscape:window-x="5"
     inkscape:window-y="5"
     inkscape:window-maximized="1"
     inkscape:current-layer="layer1">
    <inkscape:grid
       id="grid1"
       units="mm"
       originx="0"
       originy="0"
       spacingx="2.5000001"
       spacingy="2.5000001"
       empcolor="#ffffff"
       empopacity="0.30196078"
       color="#ffffff"
       opacity="0.14901961"
       empspacing="4"
       dotted="false"
       gridanglex="30"
       gridanglez="30"
       visible="true" />
  </sodipodi:namedview>
  <defs
     id="defs1" />
  <g
     inkscape:label="Layer 1"
     inkscape:groupmode="layer"
     id="layer1">
    <path
       id="path3"
       style="vector-effect:non-scaling-stroke;fill:#000000;stroke-width:0.264583;stroke-linejoin:round;stroke-miterlimit:40;stroke-opacity:0.991635;-inkscape-stroke:hairline;paint-order:stroke fill markers"
       d="M 54.999744 42.500248 A 22.5 22.5 0 0 0 32.499825 65.000167 A 22.5 22.5 0 0 0 54.999744 87.500085 A 22.5 22.5 0 0 0 77.500179 65.000167 A 22.5 22.5 0 0 0 54.999744 42.500248 z M 54.999744 50.000049 A 14.999997 14.999997 0 0 1 69.577148 61.470667 L 66.339103 58.232621 L 62.803402 61.767806 L 59.2677 58.232104 L 55.731999 61.767806 L 59.2677 65.303507 L 55.731999 68.838692 L 59.2677 72.374394 L 62.802885 68.838692 L 66.338586 72.374394 L 69.282593 69.430387 A 14.999997 14.999997 0 0 1 54.999744 79.999768 A 14.999997 14.999997 0 0 1 40.495203 68.601497 L 43.964242 72.071053 L 47.499943 68.535352 L 51.035645 72.071053 L 54.570829 68.535352 L 51.035645 64.99965 L 54.570829 61.464465 L 51.035645 57.929281 L 47.499943 61.464465 L 43.964758 57.928764 L 40.495203 61.398319 A 14.999997 14.999997 0 0 1 54.999744 50.000049 z M 40.467297 61.502706 L 43.964242 65.000167 L 40.467297 68.497111 A 14.999997 14.999997 0 0 1 40.000142 65.000167 A 14.999997 14.999997 0 0 1 40.467297 61.502706 z M 69.682052 61.960042 A 14.999997 14.999997 0 0 1 69.999862 65.000167 A 14.999997 14.999997 0 0 1 69.532707 68.497111 L 66.338586 65.302991 L 69.682052 61.960042 z " />
  </g>
</svg>
