<?xml version="1.0" encoding="UTF-8" standalone="no"?>
<!-- Created with Inkscape (http://www.inkscape.org/) -->

<svg
   width="1920"
   height="1080"
   viewBox="0 0 508 285.75"
   version="1.1"
   id="svg1"
   inkscape:version="1.4.3 (0d15f75042, 2025-12-25)"
   sodipodi:docname="1.2_changes.svg"
   xmlns:inkscape="http://www.inkscape.org/namespaces/inkscape"
   xmlns:sodipodi="http://sodipodi.sourceforge.net/DTD/sodipodi-0.dtd"
   xmlns="http://www.w3.org/2000/svg"
   xmlns:svg="http://www.w3.org/2000/svg">
  <sodipodi:namedview
     id="namedview1"
     pagecolor="#000000"
     bordercolor="#eeeeee"
     borderopacity="1"
     inkscape:showpageshadow="0"
     inkscape:pageopacity="0"
     inkscape:pagecheckerboard="0"
     inkscape:deskcolor="#505050"
     inkscape:document-units="mm"
     showgrid="true"
     inkscape:zoom="0.35355339"
     inkscape:cx="972.97893"
     inkscape:cy="598.21234"
     inkscape:window-width="1025"
     inkscape:window-height="1029"
     inkscape:window-x="0"
     inkscape:window-y="0"
     inkscape:window-maximized="0"
     inkscape:current-layer="layer1">
    <inkscape:grid
       id="grid1"
       units="px"
       originx="0"
       originy="0"
       spacingx="7.9375"
       spacingy="7.9375"
       empcolor="#000000"
       empopacity="0.30196078"
       color="#000000"
       opacity="0.14901961"
       empspacing="4"
       dotted="false"
       gridanglex="30"
       gridanglez="30"
       visible="true" />
    <inkscape:grid
       id="grid3"
       units="px"
       originx="0"
       originy="0"
       spacingx="3.96875"
       spacingy="3.96875"
       empcolor="#000000"
       empopacity="0.30196078"
       color="#000000"
       opacity="0.10196078"
       empspacing="8"
       dotted="false"
       gridanglex="30"
       gridanglez="30"
       visible="true" />
  </sodipodi:namedview>
  <defs
     id="defs1" />
  <g
     inkscape:label="Layer 1"
     inkscape:groupmode="layer"
     id="layer1">
    <path
       id="rect1-0"
       style="vector-effect:non-scaling-stroke;fill:#ffffff;stroke-width:0.264582;stroke-miterlimit:10;-inkscape-stroke:hairline;paint-order:fill markers stroke"
       d="M 0,0 H 508 V 285.75 H 0 Z" />
    <path
       id="rect1"
       style="vector-effect:non-scaling-stroke;fill:#c8f0d9;stroke-width:0.264582;stroke-miterlimit:10;-inkscape-stroke:hairline;paint-order:fill markers stroke"
       d="M 0,0 H 254 V 285.75 H 0 Z" />
    <path
       d="m 22.82033,20.597785 c 0,0.396876 -0.138907,0.793752 -0.377032,1.131096 L 16.86719,29.76562 V 31.75 h 7.93752 v -1.98438 h -5.516576 l 4.802199,-6.905642 C 24.54674,22.185289 24.80471,21.41138 24.80471,20.597785 v -0.99219 c 0,-2.162975 -1.805786,-3.96876 -3.96876,-3.96876 -2.162974,0 -3.96876,1.805785 -3.96876,3.96876 v 0.73422 h 1.98438 v -0.73422 c 0,-1.091409 0.892971,-1.98438 1.98438,-1.98438 1.091409,0 1.98438,0.892971 1.98438,1.98438 z m 13.394565,0.238125 c 0,3.81001 0.57547,7.481113 1.666879,10.91409 h 1.805786 l 0.992189,-4.96095 0.99219,4.96095 h 1.805786 c 1.091409,-3.432977 1.666879,-7.10408 1.666879,-10.91409 h -0.535782 -1.448598 c 0,2.361412 -0.218281,4.583918 -0.674689,6.78658 L 41.671939,23.81248 H 40.441624 39.68756 l -0.754065,4.12751 c -0.496095,-2.30188 -0.73422,-4.663292 -0.73422,-7.10408 0,0 -0.218282,-0.03969 -0.535783,-0.03969 -0.595314,0 -1.448597,0.03969 -1.448597,0.03969 z m 14.386754,1.746255 c 1.091409,0 1.98438,0.892971 1.98438,1.98438 v 0.238125 h -3.96876 v -0.238125 c 0,-1.091409 0.892971,-1.98438 1.98438,-1.98438 z m 0,-1.98438 c -2.162974,0 -3.96876,1.805785 -3.96876,3.96876 v 3.333758 c 0,2.262193 1.82563,4.087823 4.087823,4.087823 1.944692,0 3.611572,-1.309691 4.008448,-3.175008 l -1.905005,-0.793752 c -0.05953,1.111252 -0.99219,1.98438 -2.103443,1.98438 -1.170784,0 -2.103443,-0.932659 -2.103443,-2.103443 V 26.78905 h 5.95314 v -1.98438 -0.238125 c 0,-2.162975 -1.805786,-3.96876 -3.96876,-3.96876 z m 6.707205,0.238125 v 1.98438 h 2.222505 V 31.75 h 1.98438 V 20.83591 h -1.746254 -0.238126 z m 3.214695,-4.464855 c -0.813596,0 -1.488285,0.67469 -1.488285,1.488285 0,0.813596 0.674689,1.488285 1.488285,1.488285 0.813596,0 1.488285,-0.674689 1.488285,-1.488285 0,-0.813595 -0.674689,-1.488285 -1.488285,-1.488285 z m 9.921898,6.21111 c 1.091409,0 1.98438,0.892971 1.98438,1.98438 v 0.73422 c 0,1.091409 -0.892971,1.98438 -1.98438,1.98438 -1.091409,0 -1.98438,-0.892971 -1.98438,-1.98438 v -0.73422 c 0,-1.091409 0.892971,-1.98438 1.98438,-1.98438 z m -0.496095,-1.98438 c -1.924849,0 -3.472665,1.527972 -3.472665,3.452821 v 1.746254 c 0,1.924849 1.547816,3.472665 3.472665,3.472665 0.952502,0 1.865317,-0.41672 2.480475,-1.031878 v 1.031878 0.377032 c 0,1.170784 -0.932659,2.103443 -2.103443,2.103443 -1.111253,0 -2.043911,-0.873127 -2.103443,-1.98438 l -1.905004,0.773908 c 0.396876,1.865317 2.063755,3.194852 4.008447,3.194852 2.262193,0 4.087823,-1.82563 4.087823,-4.087823 V 26.292955 20.83591 h -1.98438 v 0.813596 C 71.814669,21.034348 70.901854,20.597785 69.949352,20.597785 Z M 76.398589,15.87496 V 31.75 h 1.98438 v -7.183455 c 0,-1.091409 0.892971,-1.98438 1.98438,-1.98438 1.091409,0 1.98438,0.892971 1.98438,1.98438 V 31.75 h 1.98438 v -7.699394 c 0,-1.924849 -1.547817,-3.452821 -3.472665,-3.452821 -0.952503,0 -1.865318,0.436563 -2.480475,1.051721 V 15.87496 Z m 11.668156,1.98438 v 2.97657 h -1.508129 v 1.98438 h 1.508129 v 5.834077 c 0,1.865317 1.468441,3.333759 3.333758,3.333759 1.647036,0 3.016258,-1.170785 3.294071,-2.758289 l -1.924849,-0.57547 c 0,0.754065 -0.615157,1.349379 -1.369222,1.349379 -0.754064,0 -1.349378,-0.595314 -1.349378,-1.349379 V 22.82029 h 3.452821 v -1.98438 h -3.452821 v -2.97657 z m 11.152213,2.97657 c -1.805785,0 -3.214695,1.40891 -3.214695,3.214696 0,1.805786 1.40891,3.234539 3.214695,3.234539 h 1.984382 c 0.67469,0 1.23031,0.57547 1.23031,1.250159 0,0.67469 -0.55562,1.230316 -1.23031,1.230316 h -1.984382 c -0.754064,0 -1.369222,-0.615158 -1.369222,-1.369222 l -1.924848,0.615158 c 0.3175,1.587504 1.686723,2.738444 3.29407,2.738444 h 1.984382 c 1.80578,0 3.21469,-1.40891 3.21469,-3.214696 0,-1.805785 -1.40891,-3.234539 -3.21469,-3.234539 h -1.984382 c -0.674689,0 -1.230315,-0.57547 -1.230315,-1.250159 0,-0.674689 0.555626,-1.230316 1.230315,-1.230316 h 1.984382 c 0.75406,0 1.36922,0.615158 1.36922,1.369222 l 1.92485,-0.615157 c -0.3175,-1.587504 -1.68672,-2.738445 -3.29407,-2.738445 z"
       id="text1"
       style="font-weight:500;font-size:19.8438px;line-height:31.75px;font-family:'linja laso UCSUR';-inkscape-font-specification:'linja laso UCSUR Medium';font-variant-ligatures:historical-ligatures;font-variant-numeric:oldstyle-nums proportional-nums slashed-zero;font-feature-settings:'ss02';letter-spacing:0px;word-spacing:0px;stroke-width:0.264583;stroke-miterlimit:10;paint-order:fill markers stroke"
       aria-label="2 weights" />
    <g
       id="text1-0"
       style="font-weight:500;font-size:19.8438px;line-height:23.8125px;font-family:'linja laso';-inkscape-font-specification:'linja laso Medium';font-variant-ligatures:historical-ligatures;font-variant-numeric:oldstyle-nums proportional-nums slashed-zero;font-feature-settings:'ss02';letter-spacing:0px;word-spacing:0px;stroke-width:0.264583;stroke-miterlimit:10;paint-order:fill markers stroke"
       aria-label="wawa[MEDIUM]lisamalilinasinnanpa&#10;janmutelipanaemokutawasina&#10;kijetesantakalutonsililanpanalalanpanesoko">
      <path
         d="m 25.7969,132.9531 c 1.647035,0 2.97657,1.32953 2.97657,2.97657 0,1.64704 -1.329535,2.97657 -2.97657,2.97657 -1.647036,0 -2.97657,-1.32953 -2.97657,-2.97657 0,-1.64704 1.329534,-2.97657 2.97657,-2.97657 z m 0,-1.98438 c -2.738445,0 -4.96095,2.22251 -4.96095,4.96095 0,2.73844 2.222505,4.96095 4.96095,4.96095 2.738444,0 4.96095,-2.22251 4.96095,-4.96095 0,-2.73844 -2.222506,-4.96095 -4.96095,-4.96095 z m 8.969397,-2.0836 -1.964536,-0.35719 -1.98438,9.9219 1.964536,0.35719 z m -17.938795,0 1.98438,9.9219 1.964536,-0.35719 -1.984379,-9.9219 z m 28.813197,-6.84611 c -4.365636,0 -7.937519,3.57188 -7.937519,7.93752 v 9.9219 c 0,4.36564 3.571883,7.93752 7.937519,7.93752 v -0.53578 -1.4486 c -3.29407,0 -5.953139,-2.65907 -5.953139,-5.95314 v -9.9219 c 0,-3.29407 2.659069,-5.95314 5.953139,-5.95314 z m 0.873128,4.96095 V 142.875 h 1.98438 v -9.64409 l 1.230315,3.69095 h 1.98438 l 1.250159,-3.69095 v 9.64409 h 1.98438 v -15.87504 h -1.98438 l -2.242349,6.62783 -2.222505,-6.62783 z m -0.873128,18.85161 -1.98438,0.99219 1.98438,0.99219 h 9.9219 v -1.98438 z m 0,-23.81256 -1.98438,0.99219 1.98438,0.99219 h 9.9219 v -1.98438 z M 56.673852,142.875 h 1.98438 5.95314 v -1.98438 h -5.95314 v -4.96095 h 4.226729 v -1.98438 h -4.226729 v -4.96095 h 5.95314 v -1.98438 h -7.93752 z m -1.111255,2.97657 -1.98438,0.99219 1.98438,0.99219 h 9.9219 v -1.98438 z m 0,-23.81256 -1.98438,0.99219 1.98438,0.99219 h 9.9219 v -1.98438 z m 13.017533,6.94533 h 1.746254 c 1.369222,0 2.480475,1.11125 2.480475,2.48048 v 6.94533 c 0,1.36922 -1.111253,2.48047 -2.480475,2.48047 H 68.58013 Z m -1.98438,-1.98438 V 142.875 h 3.730634 c 2.440788,0 4.464855,-2.02407 4.464855,-4.46485 v -6.94533 c 0,-2.44079 -2.024067,-4.46486 -4.464855,-4.46486 H 68.58013 Z m -1.111251,18.85161 -1.98438,0.99219 1.98438,0.99219 h 9.9219 v -1.98438 z m 0,-23.81256 -1.98438,0.99219 1.98438,0.99219 h 9.9219 v -1.98438 z m 11.90628,4.96095 v 1.98438 h 1.98438 v 11.90628 h -1.98438 v 1.98438 h 1.98438 1.98438 1.98438 v -1.98438 h -1.98438 v -11.90628 h 1.98438 v -1.98438 z m -1.984378,18.85161 -1.98438,0.99219 1.98438,0.99219 H 85.3283 v -1.98438 z m 0,-23.81256 -1.98438,0.99219 1.98438,0.99219 H 85.3283 v -1.98438 z m 15.001912,18.85161 c -1.091409,0 -1.98438,-0.89297 -1.98438,-1.98438 v -11.90628 h -1.98438 v 11.90628 c 0,2.16297 1.805786,3.96876 3.96876,3.96876 2.162974,0 3.96876,-1.80579 3.96876,-3.96876 v -11.90628 h -1.98438 v 11.90628 c 0,1.09141 -0.892971,1.98438 -1.98438,1.98438 z m -5.080014,4.96095 -1.98438,0.99219 1.98438,0.99219 h 9.921899 v -1.98438 z m 0,-23.81256 -1.98438,0.99219 1.98438,0.99219 h 9.921899 v -1.98438 z m 10.795027,4.96095 V 142.875 h 1.98438 v -9.64409 l 1.230315,3.69095 h 1.984379 l 1.25016,-3.69095 v 9.64409 h 1.98438 v -15.87504 h -1.98438 l -2.24235,6.62783 -2.222504,-6.62783 z m -0.87313,18.85161 -1.98438,0.99219 1.98438,0.99219 h 9.921904 v -1.98438 z m 0,-23.81256 -1.98438,0.99219 1.98438,0.99219 h 9.921904 v -1.98438 z m 9.921904,0 -1.98438,0.99219 1.98438,0.99219 c 3.29407,0 5.95314,2.65907 5.95314,5.95314 v 9.9219 c 0,3.29407 -2.65907,5.95314 -5.95314,5.95314 l -0.99219,0.99219 0.99219,0.99219 c 4.36563,0 7.93752,-3.57188 7.93752,-7.93752 v -9.9219 c 0,-4.36564 -3.57189,-7.93752 -7.93752,-7.93752 z m 15.25988,4.46486 -1.25016,1.54781 8.63205,6.8858 -8.63205,6.8858 1.25016,1.54781 10.53705,-8.43361 z m 17.48239,10.41799 v 1.98438 h 13.89066 v -1.98438 z m 0,-5.95314 v 1.98438 h 13.89066 v -1.98438 z m 23.91178,0.8136 -1.5875,1.17078 4.46485,5.95314 4.46486,-5.95314 -1.58751,-1.17078 -2.87735,4.14735 z m 21.72896,-4.78236 v 3.96876 l -5.45705,5.45705 1.48829,1.48828 3.96876,-4.20689 v 9.16784 h 1.98438 v -9.16784 l 3.96876,4.20689 1.48828,-1.48828 -5.45704,-5.45705 v -3.96876 z m 24.80474,3.96876 v -4.46485 h -1.98438 v 4.46485 h -3.96876 v -4.46485 h -1.98438 v 4.46485 h -4.46485 v 1.98438 h 4.46485 v 3.96876 h -4.46485 v 1.98438 h 4.46485 v 4.46485 h 1.98438 v -4.46485 h 3.96876 v 4.46485 h 1.98438 v -4.46485 h 4.46486 v -1.98438 h -4.46486 v -3.96876 h 4.46486 v -1.98438 z m -1.98438,1.98438 v 3.96876 h -3.96876 v -3.96876 z"
         id="path6" />
      <path
         d="m 25.7969,152.30074 c 3.016257,0 5.457045,2.44079 5.457045,5.45705 0,3.01626 -2.440788,5.45704 -5.457045,5.45704 -3.016258,0 -5.457045,-2.44078 -5.457045,-5.45704 0,-3.01626 2.440787,-5.45705 5.457045,-5.45705 z m 0,-1.98438 c -4.087823,0 -7.441425,3.35361 -7.441425,7.44143 0,1.94469 0.754064,3.73063 1.98438,5.06017 l -3.155164,3.19485 1.349378,1.34938 3.333758,-3.27423 c 1.111253,0.71438 2.480475,1.11125 3.929073,1.11125 1.448597,0 2.817819,-0.39687 3.929072,-1.11125 l 3.333758,3.27423 1.349379,-1.34938 -3.155164,-3.19485 c 1.230315,-1.32954 1.98438,-3.11548 1.98438,-5.06017 0,-4.08782 -3.353602,-7.44143 -7.441425,-7.44143 z m 23.812559,16.37114 h 1.98438 v -15.87504 h -1.98438 z m -9.921899,0 h 1.984379 V 150.81246 H 39.68756 Z m 4.960949,0 h 1.98438 v -15.87504 h -1.98438 z m 16.252072,-16.37114 -1.250159,1.54782 8.632053,6.8858 -8.632053,6.8858 1.250159,1.54781 10.537058,-8.43361 z m 25.419908,5.45705 c -3.016258,0 -5.457045,2.44079 -5.457045,5.45704 v 2.14313 l -1.389066,-1.82563 -1.587504,1.17079 2.97657,3.96876 h 1.98438 v -0.11906 -5.33799 c 0,-1.92484 1.547816,-3.47266 3.472665,-3.47266 1.924848,0 3.472664,1.54782 3.472664,3.47266 v 5.45705 h 1.98438 v -5.45705 c 0,-3.01625 -2.440787,-5.45704 -5.457044,-5.45704 z m 4.206885,-4.62361 -1.905005,3.47267 1.706567,0.97234 1.944692,-3.47266 z m -8.413771,0 -1.746254,0.97235 1.944692,3.47266 1.706567,-0.97234 z m 3.214696,-0.83344 v 3.96876 h 1.98438 v -3.96876 z m 12.660344,0 -1.40891,1.38907 7.004857,7.04455 -7.004857,7.04455 1.40891,1.38906 8.413767,-8.43361 z m 7.183457,0 -1.38907,1.38907 7.02471,7.04455 -7.02471,7.04455 1.38907,1.38906 8.43361,-8.43361 z m 14.88284,0.4961 v 1.98438 c 0,2.44079 1.52798,4.60376 3.63142,5.49673 -1.86532,0.87313 -3.13532,2.75829 -3.13532,4.92126 v 0.25797 l -1.38907,-1.92485 -1.5875,1.17079 2.97657,3.96876 h 1.98438 v -3.47267 c 0,-1.92484 1.54782,-3.47266 3.47266,-3.47266 1.92485,0 3.47267,1.54782 3.47267,3.47266 v 3.47267 h 1.98438 v -3.47267 c 0,-2.16297 -1.27,-4.04813 -3.13532,-4.92126 2.10344,-0.89297 3.63141,-3.05594 3.63141,-5.49673 v -0.53578 -1.4486 z m 1.98438,1.98438 h 7.93752 c 0,2.16297 -1.80578,3.96876 -3.96876,3.96876 -2.16297,0 -3.96876,-1.80579 -3.96876,-3.96876 z m 20.836,-1.98438 -6.19127,13.89066 5.69517,2.2225 0.71438,-1.84547 -3.75048,-1.46844 4.34579,-9.70362 3.65126,13.01753 5.69517,-2.2225 -0.69453,-1.86532 -3.69095,1.46844 -3.79016,-13.49378 z m 24.30866,11.41018 c 0,1.36923 -1.11126,2.48048 -2.48048,2.48048 -1.36922,0 -2.48047,-1.11125 -2.48047,-2.48048 0,-1.36922 1.11125,-2.48047 2.48047,-2.48047 1.36922,0 2.48048,1.11125 2.48048,2.48047 z m 1.98438,0 c 0,-2.44078 -2.02407,-4.46485 -4.46486,-4.46485 -0.67469,0 -1.28985,0.15875 -1.88516,0.39688 0.71438,-2.36142 2.04391,-4.46486 3.86954,-6.13174 l -1.36922,-1.4486 c -3.25438,3.01626 -5.08001,7.22315 -5.08001,11.64831 0,2.44079 2.02406,4.46486 4.46485,4.46486 2.44079,0 4.46486,-2.02407 4.46486,-4.46486 z"
         id="path7" />
      <path
         d="m 27.78128,185.53905 v 5.95314 h 1.98438 v -5.95314 z m -6.94533,0 v 3.96876 c -1.091409,0 -1.98438,-0.89297 -1.98438,-1.98438 0,-1.09141 0.892971,-1.98438 1.98438,-1.98438 z m 5.774546,-5.57611 h -0.05953 c -0.178594,0 -0.357188,0.0198 -0.515939,0.11906 -0.377032,0.1786 -0.615157,0.55563 -0.615157,0.99219 0,0.1786 0.03969,0.37704 0.138906,0.53579 0.178594,0.37703 0.555627,0.57547 0.99219,0.57547 0.178594,0 0.357189,-0.0198 0.515939,-0.11907 0.377032,-0.17859 0.595314,-0.55562 0.595314,-0.99219 0,-0.17859 -0.01984,-0.37703 -0.119063,-0.53578 -0.178594,-0.33734 -0.535782,-0.53578 -0.932658,-0.57547 z m 2.7186,-0.99219 h -0.05953 c -0.178594,0 -0.377032,0.0198 -0.535783,0.11906 -0.377032,0.1786 -0.57547,0.55563 -0.57547,0.99219 0,0.1786 0.01984,0.37704 0.119063,0.53579 0.178594,0.37703 0.555626,0.57547 0.99219,0.57547 0.178594,0 0.377032,-0.0199 0.535782,-0.11907 0.377033,-0.17859 0.575471,-0.55562 0.575471,-0.99219 0,-0.17859 -0.01984,-0.37703 -0.119063,-0.53578 -0.178594,-0.33734 -0.535783,-0.53578 -0.932659,-0.57547 z m -0.555626,-5.33798 c -4.365636,0 -7.93752,3.57188 -7.93752,7.93752 v 1.98438 c -2.162974,0 -3.96876,1.80578 -3.96876,3.96876 0,2.16297 1.805786,3.96876 3.96876,3.96876 h 1.98438 3.472665 0.496095 l -0.496095,-5.95314 h -1.98438 l 0.317501,3.96876 H 22.82033 v -7.93752 c 0,-3.29407 2.659069,-5.95314 5.95314,-5.95314 h 0.99219 v 1.64703 l 2.361412,3.13532 -1.369222,1.34938 v 2.34157 7.40174 h 1.98438 v -8.92971 l 1.98438,-1.98438 -1.210472,-1.60735 -1.766098,-2.36141 v -0.99219 -1.98438 h -1.98438 z m 16.867229,4.46485 c 2.162975,0 3.96876,1.80579 3.96876,3.96876 0,2.16298 -1.805785,3.96876 -3.96876,3.96876 -2.162974,0 -3.96876,-1.80578 -3.96876,-3.96876 0,-2.16297 1.805786,-3.96876 3.96876,-3.96876 z m -7.044548,-3.96876 -1.389066,1.38907 3.373445,3.39329 c -0.595313,0.89297 -0.89297,2.00422 -0.89297,3.15516 0,2.93689 2.14313,5.39752 4.960949,5.85392 v 3.57189 h 1.98438 v -3.57189 c 2.81782,-0.4564 4.96095,-2.91703 4.96095,-5.85392 0,-1.15094 -0.297657,-2.26219 -0.892971,-3.15516 l 3.373446,-3.39329 -1.389066,-1.38907 -3.313914,3.29407 c -1.031878,-0.81359 -2.341569,-1.30969 -3.730635,-1.30969 -1.389066,0 -2.698756,0.4961 -3.730634,1.30969 z m 22.30443,0 -1.250159,1.54782 8.632053,6.8858 -8.632053,6.8858 1.250159,1.54781 10.537058,-8.43361 z m 24.38803,-0.49609 c -2.202662,0 -3.96876,1.7661 -3.96876,3.96876 0,0.21828 0.01984,0.37703 0.07937,0.55562 -2.540006,2.42095 -4.008447,5.83408 -4.008447,9.36628 0,2.20266 1.766098,3.96876 3.96876,3.96876 2.202661,0 3.96876,-1.7661 3.96876,-3.96876 0,-1.64704 1.329534,-2.97657 2.97657,-2.97657 1.647035,0 2.976569,1.32953 2.976569,2.97657 0,0.93266 -0.456407,1.82563 -1.210471,2.38125 l 1.210471,1.58751 c 1.230316,-0.93266 1.98438,-2.42095 1.98438,-3.96876 0,-2.73845 -2.222505,-4.96095 -4.960949,-4.96095 -2.738445,0 -4.96095,2.2225 -4.96095,4.96095 0,1.09141 -0.892971,1.98438 -1.98438,1.98438 -1.091409,0 -1.98438,-0.89297 -1.98438,-1.98438 0,-2.73845 1.012033,-5.37767 2.877351,-7.40174 0.714376,0.87313 1.845473,1.4486 3.075789,1.4486 2.202661,0 3.968759,-1.7661 3.968759,-3.96876 0,-2.20266 -1.766098,-3.96876 -3.968759,-3.96876 z m 0,1.98438 c 1.091409,0 1.98438,0.89297 1.98438,1.98438 0,1.09141 -0.892971,1.98438 -1.98438,1.98438 -1.091409,0 -1.98438,-0.89297 -1.98438,-1.98438 0,-1.09141 0.892971,-1.98438 1.98438,-1.98438 z m 2.97657,10.41799 c -0.83344,0 -1.488285,0.65485 -1.488285,1.48829 0,0.83344 0.654845,1.48828 1.488285,1.48828 0.833439,0 1.488285,-0.65484 1.488285,-1.48828 0,-0.83344 -0.654846,-1.48829 -1.488285,-1.48829 z m 10.358463,-11.41018 -1.389066,1.38906 6.548452,6.54846 -6.548452,6.54845 1.389066,1.38907 6.548456,-6.54846 6.54845,6.54846 1.38907,-1.38907 -6.54846,-6.54845 6.54846,-6.54846 -1.38907,-1.38906 -6.54845,6.54845 z m 26.352566,-0.99219 c -2.20267,0 -3.96876,1.7661 -3.96876,3.96876 0,0.21828 0.0198,0.37703 0.0794,0.55562 -2.54,2.42095 -4.00845,5.83408 -4.00845,9.36628 0,2.20266 1.7661,3.96876 3.96876,3.96876 2.20267,0 3.96876,-1.7661 3.96876,-3.96876 0,-1.64704 1.32954,-2.97657 2.97657,-2.97657 1.64704,0 2.97657,1.32953 2.97657,2.97657 0,0.93266 -0.4564,1.82563 -1.21047,2.38125 l 1.21047,1.58751 c 1.23032,-0.93266 1.98438,-2.42095 1.98438,-3.96876 0,-2.73845 -2.2225,-4.96095 -4.96095,-4.96095 -2.73844,0 -4.96095,2.2225 -4.96095,4.96095 0,1.09141 -0.89297,1.98438 -1.98438,1.98438 -1.0914,0 -1.98438,-0.89297 -1.98438,-1.98438 0,-2.73845 1.01204,-5.37767 2.87735,-7.40174 0.71438,0.87313 1.84548,1.4486 3.07579,1.4486 2.20267,0 3.96876,-1.7661 3.96876,-3.96876 0,-2.20266 -1.76609,-3.96876 -3.96876,-3.96876 z m 0,1.98438 c 1.09141,0 1.98438,0.89297 1.98438,1.98438 0,1.09141 -0.89297,1.98438 -1.98438,1.98438 -1.09141,0 -1.98438,-0.89297 -1.98438,-1.98438 0,-1.09141 0.89297,-1.98438 1.98438,-1.98438 z m 2.97657,10.41799 c -0.83344,0 -1.48829,0.65485 -1.48829,1.48829 0,0.83344 0.65485,1.48828 1.48829,1.48828 0.83344,0 1.48828,-0.65484 1.48828,-1.48828 0,-0.83344 -0.65484,-1.48829 -1.48828,-1.48829 z m 9.72346,-11.90628 -1.40891,1.38907 7.00486,7.04455 -7.00486,7.04455 1.40891,1.38906 8.41377,-8.43361 z m 7.18346,0 -1.38907,1.38907 7.02471,7.04455 -7.02471,7.04455 1.38907,1.38906 8.43361,-8.43361 z m 11.90628,8.43362 h 6.94533 v 2.97657 h -2.97657 v 1.98438 h 2.97657 v 3.47266 h 1.98438 v -3.47266 h 2.97657 v -1.98438 h -2.97657 v -2.97657 h 6.94533 v -0.99219 c 0,-4.40533 -3.5322,-7.93752 -7.93752,-7.93752 -4.40532,0 -7.93752,3.53219 -7.93752,7.93752 z m 2.0836,-1.98438 c 0.45641,-2.81782 2.91704,-4.96095 5.85392,-4.96095 2.93688,0 5.39751,2.14313 5.85392,4.96095 z"
         id="path8" />
    </g>
    <g
       id="text1-0-1"
       style="font-size:19.8438px;line-height:23.8125px;font-family:'linja laso';-inkscape-font-specification:'linja laso';font-variant-ligatures:historical-ligatures;font-variant-numeric:oldstyle-nums proportional-nums slashed-zero;font-feature-settings:'ss02';letter-spacing:0px;word-spacing:0px;stroke-width:0.264583;stroke-miterlimit:10;paint-order:fill markers stroke"
       aria-label="wawasin[REGULAR]lisamalililinjalipamanka&#10;janmutelipanaemokutawasina&#10;kijetesantakalutonsililanpanalalanpanesoko">
      <path
         d="m 20.83595,218.51937 -2.520163,-11.11253 -1.607347,0.37703 2.520162,11.11253 z m 9.9219,0 1.607347,0.37703 2.520163,-11.11253 -1.607348,-0.37703 z m -4.96095,-8.25502 c -2.500319,0 -4.54423,2.04391 -4.54423,4.54423 0,2.50031 2.043911,4.54423 4.54423,4.54423 2.500319,0 4.54423,-2.04392 4.54423,-4.54423 0,-2.50032 -2.043911,-4.54423 -4.54423,-4.54423 z m 0,1.64703 c 1.587504,0 2.897195,1.30969 2.897195,2.8972 0,1.5875 -1.309691,2.89719 -2.897195,2.89719 -1.587504,0 -2.897195,-1.30969 -2.897195,-2.89719 0,-1.58751 1.309691,-2.8972 2.897195,-2.8972 z m 11.568935,5.37767 h 6.211109 v -1.64704 h -6.211109 z m 10.33862,0 h 6.211109 v -1.64704 h -6.211109 z m -2.897195,-8.67174 v 5.77455 h 1.666879 v -5.77455 z m 19.843799,-7.04455 c -4.12751,0 -7.441424,3.31392 -7.441424,7.44143 v 9.9219 c 0,4.12751 3.313914,7.44142 7.441424,7.44142 h 0.83344 v -1.64704 h -0.83344 c -3.214695,0 -5.774545,-2.57969 -5.774545,-5.79438 v -9.9219 c 0,-3.2147 2.55985,-5.77455 5.774545,-5.77455 h 0.83344 v -1.66688 z m 6.211108,4.14735 v 1.64704 c 1.131096,0 2.063755,0.93266 2.063755,2.06376 h 1.647035 c 0,-2.04392 -1.666879,-3.7108 -3.71079,-3.7108 z m -4.54423,0 V 222.25 c 0,0 -0.01984,0 0.813595,0 h 0.83344 v -6.60799 h 1.647035 l 3.135321,6.60799 h 1.825629 l -3.13532,-6.66752 c 1.785942,-0.27781 3.13532,-1.80578 3.13532,-3.6711 v -2.48047 h -1.647035 v 2.48047 c 0,1.1311 -0.932659,2.06376 -2.063755,2.06376 h -2.897195 v -6.60799 h 2.897195 v -1.64704 h -2.897195 -0.83344 c -0.833439,0 -0.813595,0 -0.813595,0 z m -0.833438,-4.14735 c -0.456407,0 -0.83344,0.37703 -0.83344,0.83344 0,0.45641 0.377033,0.83344 0.83344,0.83344 h 9.9219 v -1.66688 z m 0,23.15771 c -0.456407,0 -0.83344,0.37704 -0.83344,0.83344 0,0.45641 0.377033,0.8136 0.83344,0.8136 h 9.9219 v -1.64704 z m 12.402375,-4.12751 v -6.62782 h 4.96095 v -1.64704 h -4.96095 v -4.96095 h 6.607985 v -1.64704 h -8.255021 v 1.64704 14.88285 h 1.647036 6.607985 v -1.64704 z m -2.480473,-19.0302 c -0.456408,0 -0.83344,0.37703 -0.83344,0.83344 0,0.45641 0.377032,0.83344 0.83344,0.83344 H 85.3283 v -1.66688 z m 0,23.15771 c -0.456408,0 -0.83344,0.37704 -0.83344,0.83344 0,0.45641 0.377032,0.8136 0.83344,0.8136 H 85.3283 v -1.64704 z m 14.04941,-9.92189 h 3.313914 v 3.51235 c 0,1.36922 -1.111252,2.48047 -2.480475,2.48047 -1.369222,0 -2.480475,-1.11125 -2.480475,-2.48047 v -8.27487 c 0,-1.5875 1.309691,-2.87735 2.897195,-2.87735 1.091409,0 2.043912,0.59532 2.540007,1.50813 l 1.170784,-1.23031 c -0.813596,-1.17079 -2.162974,-1.9447 -3.710791,-1.9447 -2.500319,0 -4.54423,2.04391 -4.54423,4.54423 h 1.647035 -1.647035 v 8.69159 c 0,2.04391 1.666879,3.71079 3.710791,3.71079 1.170784,0 2.222505,-0.51594 2.897194,-1.36922 V 222.25 h 1.647036 v -9.08846 h -0.396876 -1.25016 -3.313914 z m -4.127512,-13.23582 c -0.456408,0 -0.83344,0.37703 -0.83344,0.83344 0,0.45641 0.377032,0.83344 0.83344,0.83344 h 9.921899 v -1.66688 z m 0,23.15771 c -0.456408,0 -0.83344,0.37704 -0.83344,0.83344 0,0.45641 0.377032,0.8136 0.83344,0.8136 h 9.921899 v -1.64704 z m 10.755339,-19.01036 v 12.60082 c 0,2.28203 1.845473,4.12751 4.127512,4.12751 2.28204,0 4.12751,-1.84548 4.12751,-4.12751 v -12.60082 h -1.64704 v 12.60082 c 0,1.36922 -1.11125,2.48047 -2.48047,2.48047 -1.369224,0 -2.480477,-1.11125 -2.480477,-2.48047 v -12.60082 z m -0.833442,-4.14735 c -0.456407,0 -0.833439,0.37703 -0.833439,0.83344 0,0.45641 0.377032,0.83344 0.833439,0.83344 h 9.921904 v -1.66688 z m 0,23.15771 c -0.456407,0 -0.833439,0.37704 -0.833439,0.83344 0,0.45641 0.377032,0.8136 0.833439,0.8136 h 9.921904 v -1.64704 z M 106.00554,222.25 h 0.81359 7.44143 v -1.64704 h -6.60799 v -14.88285 h -1.64703 z m -0.83345,-20.67724 c -0.4564,0 -0.83344,0.37703 -0.83344,0.83344 0,0.45641 0.37704,0.83344 0.83344,0.83344 h 9.9219 v -1.66688 z m 0,23.15771 c -0.4564,0 -0.83344,0.37704 -0.83344,0.83344 0,0.45641 0.37704,0.8136 0.83344,0.8136 h 9.9219 v -1.64704 z m 13.51363,-9.08846 1.36922,-8.27486 1.36923,8.27486 z m -0.0397,-9.9219 -2.7186,16.52989 h 1.66688 l 0.8136,-4.96095 h 3.29407 l 0.8136,4.96095 h 1.66687 l -2.7186,-16.52989 z m -3.55203,-4.14735 c -0.45641,0 -0.83344,0.37703 -0.83344,0.83344 0,0.45641 0.37703,0.83344 0.83344,0.83344 h 9.9219 v -1.66688 z m 0,23.15771 c -0.45641,0 -0.83344,0.37704 -0.83344,0.83344 0,0.45641 0.37703,0.8136 0.83344,0.8136 h 9.9219 v -1.64704 z m 15.29957,-19.01036 v 1.64704 c 1.1311,0 2.06375,0.93266 2.06375,2.06376 h 1.64704 c 0,-2.04392 -1.66688,-3.7108 -3.71079,-3.7108 z m -4.54423,0 V 222.25 c 0,0 -0.0198,0 0.8136,0 h 0.83343 v -6.60799 h 1.64704 l 3.13532,6.60799 h 1.82563 l -3.13532,-6.66752 c 1.78594,-0.27781 3.13532,-1.80578 3.13532,-3.6711 v -2.48047 h -1.64704 v 2.48047 c 0,1.1311 -0.93265,2.06376 -2.06375,2.06376 h -2.8972 v -6.60799 h 2.8972 v -1.64704 h -2.8972 -0.83343 c -0.83344,0 -0.8136,0 -0.8136,0 z m -0.83344,-4.14735 c -0.45641,0 -0.83344,0.37703 -0.83344,0.83344 0,0.45641 0.37703,0.83344 0.83344,0.83344 h 9.9219 v -1.66688 z m 0,23.15771 c -0.45641,0 -0.83344,0.37704 -0.83344,0.83344 0,0.45641 0.37703,0.8136 0.83344,0.8136 h 9.9219 v -1.64704 z m 10.75534,-23.15771 h -0.83344 c -0.45641,0 -0.83344,0.37703 -0.83344,0.83344 0,0.45641 0.37703,0.83344 0.83344,0.83344 h 0.83344 c 3.21469,0 5.77454,2.55985 5.77454,5.77455 v 9.9219 c 0,3.21469 -2.55985,5.79438 -5.77454,5.79438 h -0.83344 c -0.45641,0 -0.83344,0.37704 -0.83344,0.83344 0,0.45641 0.37703,0.8136 0.83344,0.8136 h 0.83344 c 4.12751,0 7.44142,-3.31391 7.44142,-7.44142 v -9.9219 c 0,-4.12751 -3.31391,-7.44143 -7.44142,-7.44143 z m 14.04941,3.73064 -0.99219,1.30969 9.80283,7.36205 -9.80283,7.36205 0.99219,1.32953 11.56893,-8.69158 z m 18.19676,6.19126 h 13.21597 v -1.64703 h -13.21597 z m 0,6.62783 h 13.21597 v -1.66688 h -13.21597 z m 24.52694,-7.12392 -1.38906,0.91281 3.31391,4.96095 3.31392,-4.96095 -1.38907,-0.91281 -1.92485,3.19485 z m 22.78068,0.61515 -3.25438,3.63142 c -0.51594,0.635 -1.28985,1.01203 -2.10344,1.01203 -1.48829,0 -2.67892,-1.21047 -2.67892,-2.69875 v -2.46064 h -1.66688 v 2.46064 c 0,2.4011 1.9447,4.34579 4.3458,4.34579 1.28984,0 2.50031,-0.55563 3.33375,-1.54782 l 3.25439,-3.65126 c 0.51594,-0.635 1.28984,-0.99219 2.10344,-0.99219 1.48828,0 2.67891,1.19063 2.67891,2.67892 v 2.48047 h 1.64704 v -2.48047 c 0,-2.4011 -1.92485,-4.3458 -4.32595,-4.3458 -1.28985,0 -2.50032,0.57547 -3.33376,1.56766 z m 19.86364,6.46908 1.19063,0.65485 v 1.23031 l -1.19063,0.67469 -1.19063,-0.67469 v -1.23031 z m -2.26219,-2.44079 v 2.55985 l -2.0836,1.15095 v -4.54423 c 0,-3.65126 2.97657,-6.60799 6.62783,-6.60799 h 0.81359 v 0.8136 0.59531 l 2.75829,3.41313 -1.92485,1.92485 v 0.47625 0.635 3.05595 l -1.64703,-0.91282 v -2.55985 l -2.28204,1.27001 z m 3.29407,-3.31391 c 0,0.79375 0.65484,1.4486 1.4486,1.4486 0.79375,0 1.44859,-0.65485 1.44859,-1.4486 0,-0.79375 -0.65484,-1.4486 -1.44859,-1.4486 -0.79376,0 -1.4486,0.65485 -1.4486,1.4486 z m -3.71079,1.23032 c 0,0.79375 0.65484,1.44859 1.4486,1.44859 0.79375,0 1.42875,-0.65484 1.42875,-1.44859 0,-0.79376 -0.635,-1.42876 -1.42875,-1.42876 -0.79376,0 -1.4486,0.635 -1.4486,1.42876 z m 4.90142,-7.02471 c -1.05172,-1.03188 -2.46063,-1.64703 -4.04814,-1.64703 -3.21469,0 -5.81423,2.59953 -5.81423,5.81423 0,1.5875 0.61516,3.01626 1.64703,4.06798 v 0.0397 c -2.28203,0 -4.12751,1.84547 -4.12751,4.12751 0,2.28203 1.84548,4.14735 4.12751,4.14735 h 1.64704 2.0836 l 2.26219,-1.28985 2.28204,1.28985 v -2.55985 l 1.64703,-0.93266 v 3.69095 h 1.64704 v -7.63987 l 2.48047,-2.48047 -3.29407,-4.14735 v -2.48048 h -1.66688 -0.81359 z m -2.38126,0.37703 c -2.59954,0.79375 -4.68314,2.85751 -5.47689,5.45705 -0.23812,-0.51594 -0.35719,-1.07157 -0.35719,-1.68673 0,-2.28203 1.84548,-4.14735 4.12751,-4.14735 0.59532,0 1.19063,0.13891 1.70657,0.37703 z m -2.10344,14.50582 h -2.0836 v -2.06375 l 2.0836,1.17078 z m -3.73064,0 c -1.36922,0 -2.48047,-1.11125 -2.48047,-2.48047 0,-1.36923 1.11125,-2.48048 2.48047,-2.48048 z"
         id="path3" />
      <path
         d="m 25.7969,229.11589 c -3.988604,0 -7.242987,3.23454 -7.242987,7.22315 0,2.0836 0.912815,3.96876 2.321724,5.29829 l -4.028291,3.61157 1.091409,1.23032 4.286261,-3.82985 c 1.051721,0.59531 2.282037,0.93265 3.571884,0.93265 1.289847,0 2.520162,-0.33734 3.571884,-0.93265 l 4.28626,3.82985 1.091409,-1.23032 -4.028291,-3.61157 c 1.40891,-1.32953 2.321725,-3.21469 2.321725,-5.29829 0,-3.98861 -3.254383,-7.22315 -7.242987,-7.22315 z m 0,1.64704 c 3.075789,0 5.576107,2.50032 5.576107,5.57611 0,3.07579 -2.500318,5.59595 -5.576107,5.59595 -3.075789,0 -5.576108,-2.52016 -5.576108,-5.59595 0,-3.07579 2.500319,-5.57611 5.576108,-5.57611 z m 13.235814,15.29957 h 1.647035 v -16.52989 h -1.647035 z m 5.774546,0 h 1.666879 V 229.53261 H 44.80726 Z m 5.794389,0 h 1.647036 v -16.52989 h -1.647036 z m 9.9219,-16.94661 -0.99219,1.30969 9.802837,7.36205 -9.802837,7.36205 0.99219,1.32954 11.568935,-8.69159 z m 25.638189,5.79439 c -3.194852,0 -5.794389,2.5797 -5.794389,5.77455 h 1.647035 c 0,-2.28204 1.865317,-4.12751 4.147354,-4.12751 2.282037,0 4.12751,1.84547 4.12751,4.12751 h 1.647036 c 0,-3.19485 -2.579694,-5.77455 -5.774546,-5.77455 z m 4.12751,11.15222 h 1.647036 v -5.37767 h -1.647036 z m -12.819094,-4.12751 2.897195,4.12751 h 1.647035 v -5.37767 h -1.647035 v 2.50032 l -1.547817,-2.20266 z m 7.858145,-8.69159 h 1.647035 v -4.12751 h -1.647035 z m 3.155164,0.39688 1.428753,0.8136 2.024068,-3.61158 -1.428754,-0.81359 z m -4.643449,0 -2.024068,-3.61157 -1.448597,0.81359 2.024067,3.61158 z m 21.332086,-4.52439 -1.17079,1.17079 7.5208,7.50095 -7.5208,7.5208 1.17079,1.17079 8.69158,-8.69159 z m -7.441427,0 -1.170784,1.17079 7.520801,7.50095 -7.520801,7.5208 1.170784,1.17079 8.691587,-8.69159 z m 19.427077,12.8191 2.89719,4.12751 h 1.64704 v -2.8972 c 0,-2.28203 1.86532,-4.12751 4.14735,-4.12751 2.28204,0 4.12751,1.84548 4.12751,4.12751 v 2.8972 h 1.64704 v -2.8972 c 0,-3.19485 -2.57969,-5.79439 -5.77455,-5.79439 -3.19485,0 -5.79439,2.59954 -5.79439,5.79439 v 0.0198 l -1.54781,-2.20266 z m 4.64345,-10.75534 h 8.09627 c -0.37703,1.88516 -2.04391,3.31391 -4.04814,3.31391 -2.00422,0 -3.6711,-1.42875 -4.04813,-3.31391 z m -1.74626,-1.64704 v 0.8136 c 0,3.19485 2.59954,5.79439 5.79439,5.79439 3.19486,0 5.77455,-2.59954 5.77455,-5.79439 v -0.8136 z m 25.30085,0 h -2.34157 l -6.82626,13.63269 6.19126,2.8972 0.69454,-1.50813 -4.6633,-2.16297 5.6158,-11.21175 3.31391,14.88285 6.21111,-2.8972 -0.71438,-1.48828 -4.32594,2.02407 z m 15.00192,12.40238 v 0.19844 c 0,2.4011 1.94469,4.34579 4.34579,4.34579 2.4011,0 4.34579,-1.94469 4.34579,-4.34579 0,-2.4011 -1.94469,-4.3458 -4.34579,-4.3458 -0.83344,0 -1.64703,0.23813 -2.34157,0.69454 0.57547,-3.01626 1.82563,-5.91345 3.67111,-8.37409 l -1.32954,-0.99219 c -2.75829,3.67111 -4.3061,8.23518 -4.34579,12.8191 z m 4.34579,2.89719 c -1.48828,0 -2.67891,-1.21047 -2.67891,-2.69875 0,-1.48829 1.19063,-2.67892 2.67891,-2.67892 1.48829,0 2.67891,1.19063 2.67891,2.67892 0,1.48828 -1.19062,2.69875 -2.67891,2.69875 z"
         id="path4" />
      <path
         d="m 34.88536,259.11966 -3.294071,-4.12751 z m -14.04941,9.9219 c -1.369222,0 -2.480475,-1.11125 -2.480475,-2.48048 0,-1.36922 1.111253,-2.48047 2.480475,-2.48047 z m 3.313914,-8.89002 c 0,0.79375 0.654846,1.44859 1.448598,1.44859 0.793752,0 1.428753,-0.65484 1.428753,-1.44859 0,-0.79376 -0.635001,-1.42876 -1.428753,-1.42876 -0.793752,0 -1.448598,0.635 -1.448598,1.42876 z m 3.710791,-1.23032 c 0,0.79375 0.654845,1.4486 1.448597,1.4486 0.793752,0 1.448598,-0.65485 1.448598,-1.4486 0,-0.79375 -0.654846,-1.4486 -1.448598,-1.4486 -0.793752,0 -1.448597,0.65485 -1.448597,1.4486 z m 0,11.78722 h 1.666879 v -5.79439 h -1.666879 z m -3.750478,-5.79439 0.07937,0.33734 0.793752,3.79017 h -2.500319 v -8.25502 c 0,-3.65126 2.97657,-6.62783 6.627829,-6.62783 h 0.813596 v 0.83344 0.57547 l 2.758288,3.43298 -1.924848,1.92484 v 1.09141 8.69159 h 1.647035 v -9.10831 l 2.480475,-2.48047 -3.294071,-4.12751 v -2.48048 H 29.92441 29.110814 c -4.564074,0 -8.274864,3.71079 -8.274864,8.27487 v 1.64703 c -2.282037,0 -4.12751,1.84548 -4.12751,4.12751 0,2.28204 1.845473,4.14736 4.12751,4.14736 h 1.647035 2.857507 0.456408 1.230315 L 25.7969,264.91405 Z m 29.051322,-11.98566 -3.532196,3.51236 c -1.071565,-0.91282 -2.460631,-1.4486 -3.988604,-1.4486 -1.527972,0 -2.917038,0.53578 -3.988603,1.4486 l -3.532197,-3.51236 -1.15094,1.17079 3.571884,3.57188 c -0.694533,0.99219 -1.091409,2.20266 -1.091409,3.51235 0,3.13532 2.321724,5.75471 5.357826,6.15158 v 3.37345 h 1.666879 v -3.37345 c 3.036101,-0.39687 5.37767,-3.01626 5.37767,-6.15158 0,-1.30969 -0.41672,-2.52016 -1.111253,-3.51235 l 3.591728,-3.57188 z m -7.5208,3.71079 c 2.500319,0 4.54423,2.04391 4.54423,4.54423 0,2.50032 -2.043911,4.56408 -4.54423,4.56408 -2.500318,0 -4.54423,-2.06376 -4.54423,-4.56408 0,-2.50032 2.043912,-4.54423 4.54423,-4.54423 z m 14.88285,-3.71079 -0.99219,1.30969 9.802837,7.36205 -9.802837,7.36205 0.99219,1.32954 11.568935,-8.69159 z m 26.670067,13.21597 c 0,0.79376 0.654845,1.4486 1.448597,1.4486 0.793752,0 1.448597,-0.65484 1.448597,-1.4486 0,-0.79375 -0.654845,-1.42875 -1.448597,-1.42875 -0.793752,0 -1.448597,0.635 -1.448597,1.42875 z m -1.865317,-11.98565 c 1.131096,0 2.063755,0.93266 2.063755,2.06375 0,1.1311 -0.932659,2.0836 -2.063755,2.0836 -1.131097,0 -2.063756,-0.9525 -2.063756,-2.0836 0,-1.13109 0.932659,-2.06375 2.063756,-2.06375 z m 3.313914,7.0247 c -2.738444,0 -4.96095,2.22251 -4.96095,4.96095 0,1.36923 -1.111253,2.50032 -2.480475,2.50032 -1.369222,0 -2.480475,-1.13109 -2.480475,-2.50032 0,-3.09563 1.40891,-5.85392 3.631416,-7.67955 0.674689,0.89297 1.766098,1.48829 2.97657,1.48829 2.043911,0 3.730634,-1.68672 3.730634,-3.73064 0,-2.04391 -1.686723,-3.71079 -3.730634,-3.71079 -2.043912,0 -3.730635,1.66688 -3.730635,3.71079 0,0.23813 0.03969,0.47625 0.07937,0.69454 -2.797975,2.10344 -4.623605,5.45704 -4.623605,9.22736 0,2.28204 1.865317,4.14736 4.147354,4.14736 2.282037,0 4.127511,-1.86532 4.127511,-4.14736 0,-1.82563 1.488285,-3.29407 3.313914,-3.29407 1.82563,0 3.294071,1.46844 3.294071,3.29407 0,0.91282 -0.357189,1.74626 -0.952503,2.34157 l 1.150941,1.17079 c 0.892971,-0.89297 1.468441,-2.14313 1.468441,-3.51236 0,-2.73844 -2.222506,-4.96095 -4.96095,-4.96095 z m 9.425805,-7.8383 -1.170784,1.17079 7.104076,7.08423 -7.104076,7.10408 1.170784,1.17079 7.104082,-7.10408 7.10408,7.10408 1.17078,-1.17079 -7.10408,-7.10408 7.10408,-7.08423 -1.17078,-1.17079 -7.10408,7.08424 z m 28.813192,12.79925 c 0,0.79376 0.65485,1.4486 1.4486,1.4486 0.79375,0 1.4486,-0.65484 1.4486,-1.4486 0,-0.79375 -0.65485,-1.42875 -1.4486,-1.42875 -0.79375,0 -1.4486,0.635 -1.4486,1.42875 z m -1.86532,-11.98565 c 1.1311,0 2.06376,0.93266 2.06376,2.06375 0,1.1311 -0.93266,2.0836 -2.06376,2.0836 -1.13109,0 -2.06375,-0.9525 -2.06375,-2.0836 0,-1.13109 0.93266,-2.06375 2.06375,-2.06375 z m 3.31392,7.0247 c -2.73845,0 -4.96095,2.22251 -4.96095,4.96095 0,1.36923 -1.11125,2.50032 -2.48048,2.50032 -1.36922,0 -2.48047,-1.13109 -2.48047,-2.50032 0,-3.09563 1.40891,-5.85392 3.63141,-7.67955 0.67469,0.89297 1.7661,1.48829 2.97657,1.48829 2.04392,0 3.73064,-1.68672 3.73064,-3.73064 0,-2.04391 -1.68672,-3.71079 -3.73064,-3.71079 -2.04391,0 -3.73063,1.66688 -3.73063,3.71079 0,0.23813 0.0397,0.47625 0.0794,0.69454 -2.79797,2.10344 -4.6236,5.45704 -4.6236,9.22736 0,2.28204 1.86532,4.14736 4.14735,4.14736 2.28204,0 4.12751,-1.86532 4.12751,-4.14736 0,-1.82563 1.48829,-3.29407 3.31392,-3.29407 1.82563,0 3.29407,1.46844 3.29407,3.29407 0,0.91282 -0.35719,1.74626 -0.9525,2.34157 l 1.15094,1.17079 c 0.89297,-0.89297 1.46844,-2.14313 1.46844,-3.51236 0,-2.73844 -2.22251,-4.96095 -4.96095,-4.96095 z m 16.52989,-8.25502 -1.17079,1.17079 7.5208,7.50095 -7.5208,7.5208 1.17079,1.17079 8.69158,-8.69159 z m -7.44143,0 -1.17078,1.17079 7.5208,7.50095 -7.5208,7.5208 1.17078,1.17079 8.69159,-8.69159 z m 19.01037,9.50518 h 1.66688 5.77454 v 7.02471 h 1.86532 v -7.02471 h 5.57611 1.66688 c 0,-4.56407 -3.7108,-8.27486 -8.27487,-8.27486 -4.56407,0 -8.27486,3.71079 -8.27486,8.27486 z m 7.44142,-1.64703 h -5.57611 c 0.73422,-2.85751 3.33376,-4.96095 6.40955,-4.96095 3.07579,0 5.67533,2.10344 6.40955,4.96095 h -5.37767 z"
         id="path5" />
    </g>
    <path
       d="m 271.52204,126.34511 v 8.25503 h 7.44142 v 8.69158 h 1.66688 v -8.69158 h 7.44142 v -8.25503 z m 1.66687,1.64704 h 5.77455 v 4.96095 h -5.77455 z m 7.44143,0 h 5.77455 v 4.96095 h -5.77455 z m 18.17692,-5.79439 c -4.12751,0 -7.44143,3.31392 -7.44143,7.44143 v 9.9219 c 0,4.12751 3.31392,7.44142 7.44143,7.44142 h 0.83344 v -1.64704 h -0.83344 c -3.2147,0 -5.77455,-2.57969 -5.77455,-5.79438 v -9.9219 c 0,-3.2147 2.55985,-5.77455 5.77455,-5.77455 h 0.83344 v -1.66688 z m 6.40955,16.54973 v 0.19844 c 0,2.4011 1.94469,4.34579 4.34579,4.34579 2.4011,0 4.34579,-1.94469 4.34579,-4.34579 0,-2.4011 -1.94469,-4.34579 -4.34579,-4.34579 -0.83344,0 -1.64704,0.23812 -2.34157,0.69453 0.57547,-3.01626 1.82563,-5.91345 3.6711,-8.37408 l -1.32953,-0.99219 c -2.75829,3.6711 -4.30611,8.23517 -4.34579,12.81909 z m 4.34579,2.89719 c -1.48829,0 -2.67891,-1.21047 -2.67891,-2.69875 0,-1.48829 1.19062,-2.67892 2.67891,-2.67892 1.48828,0 2.67891,1.19063 2.67891,2.67892 0,1.48828 -1.19063,2.69875 -2.67891,2.69875 z m -9.9219,-19.44692 -1.64704,0.83344 1.64704,0.83344 h 19.8438 v -1.66688 z m 13.23581,23.15771 h -1.66688 -3.29407 -1.66688 -6.60798 l -1.64704,0.83344 1.64704,0.8136 h 4.96095 l 1.64703,-1.64704 v 6.60799 h 1.66688 v -6.60799 l 1.64704,1.64704 1.64703,-1.64704 v 6.60799 h 1.66688 z m 0,0 1.64704,1.64704 h 4.96095 v -1.64704 z m 16.52989,-19.78426 c -2.24235,0 -4.08783,1.82563 -4.08783,4.06798 -0.3175,-0.0794 -0.635,-0.13891 -0.97234,-0.13891 -2.18282,0 -3.98861,1.78594 -3.98861,3.96876 0,1.70657 1.11126,3.17501 2.63923,3.73063 -0.4961,0.67469 -0.77391,1.48829 -0.77391,2.36142 0,2.24234 1.84547,4.08782 4.08782,4.08782 1.21048,0 2.34157,-0.55563 3.09564,-1.4486 0.75406,0.89297 1.88516,1.4486 3.09563,1.4486 2.24235,0 4.08782,-1.84548 4.08782,-4.08782 0,-0.87313 -0.27781,-1.68673 -0.77391,-2.36142 1.52798,-0.55562 2.63923,-2.02406 2.63923,-3.73063 0,-2.18282 -1.80579,-3.96876 -3.9886,-3.96876 -0.33735,0 -0.65485,0.0595 -0.97235,0.13891 0,-2.24235 -1.84547,-4.06798 -4.08782,-4.06798 z m 0,1.54781 c 1.40891,0 2.54,1.11126 2.54,2.52017 0,0.35718 -0.0992,0.71437 -0.23812,1.05172 -0.0397,0.0992 -0.0595,0.19844 -0.0595,0.3175 0,0.43656 0.33734,0.77391 0.7739,0.77391 0.1786,0 0.35719,-0.0595 0.4961,-0.1786 0.43656,-0.35719 0.97235,-0.55562 1.54782,-0.55562 1.34937,0 2.44078,1.07156 2.44078,2.42094 0,1.34938 -1.09141,2.42094 -2.44078,2.42094 -0.0992,0 -0.21829,0 -0.31751,-0.0198 h -0.0992 c -0.43657,0 -0.77391,0.33734 -0.77391,0.77391 0,0.29765 0.17859,0.55562 0.41672,0.69453 0.83344,0.43656 1.34938,1.28985 1.34938,2.22251 0,1.40891 -1.1311,2.54 -2.54001,2.54 -1.05172,0 -1.98438,-0.65484 -2.36141,-1.64703 -0.11907,-0.29766 -0.39688,-0.51594 -0.73422,-0.51594 -0.33735,0 -0.61516,0.21828 -0.73422,0.51594 -0.37704,0.99219 -1.30969,1.64703 -2.36142,1.64703 -1.40891,0 -2.54,-1.13109 -2.54,-2.54 0,-0.93266 0.51594,-1.78595 1.34938,-2.22251 0.23812,-0.13891 0.41672,-0.39688 0.41672,-0.69453 0,-0.43657 -0.33735,-0.77391 -0.77391,-0.77391 h -0.0992 c -0.0992,0.0198 -0.21828,0.0198 -0.3175,0.0198 -1.34938,0 -2.44079,-1.07156 -2.44079,-2.42094 0,-1.34938 1.09141,-2.42094 2.44079,-2.42094 0.57547,0 1.11125,0.19843 1.54781,0.55562 0.13891,0.11906 0.31751,0.1786 0.4961,0.1786 0.43656,0 0.77391,-0.33735 0.77391,-0.77391 0,-0.11906 -0.0198,-0.21828 -0.0595,-0.3175 -0.13891,-0.33735 -0.23813,-0.69454 -0.23813,-1.05172 0,-1.40891 1.1311,-2.52017 2.54001,-2.52017 z m -9.9219,-4.92126 -1.64703,0.83344 1.64703,0.83344 h 19.8438 v -1.66688 z m 13.23582,23.15771 h -1.66688 -3.29407 -1.66688 -6.60799 l -1.64703,0.83344 1.64703,0.8136 h 4.96095 l 1.64704,-1.64704 v 6.60799 h 1.66688 v -6.60799 l 1.64703,1.64704 1.64704,-1.64704 v 6.60799 h 1.66688 z m 0,0 1.64703,1.64704 h 4.96095 v -1.64704 z m 7.44142,-23.15771 h -0.83344 c -0.45641,0 -0.83344,0.37703 -0.83344,0.83344 0,0.45641 0.37703,0.83344 0.83344,0.83344 h 0.83344 c 3.2147,0 5.77455,2.55985 5.77455,5.77455 v 9.9219 c 0,3.21469 -2.55985,5.79438 -5.77455,5.79438 h -0.83344 c -0.45641,0 -0.83344,0.37704 -0.83344,0.83344 0,0.45641 0.37703,0.8136 0.83344,0.8136 h 0.83344 c 4.12751,0 7.44142,-3.31391 7.44142,-7.44142 v -9.9219 c 0,-4.12751 -3.31391,-7.44143 -7.44142,-7.44143 z m 14.04941,3.73064 -0.99219,1.30969 9.80284,7.36205 -9.80284,7.36205 0.99219,1.32953 11.56893,-8.69158 z m 22.8799,5.69517 -1.38907,0.91281 3.31391,4.96095 3.31392,-4.96095 -1.38907,-0.91281 -1.92485,3.19485 z m 13.49378,6.29048 h 1.66688 c 0,-3.65126 2.95673,-6.60799 6.60799,-6.60799 3.65126,0 6.60798,2.95673 6.60798,6.60799 h 1.66688 c 0,-4.56407 -3.71079,-8.27486 -8.27486,-8.27486 -4.56408,0 -8.27487,3.71079 -8.27487,8.27486 z m 28.11867,-11.98565 -1.17078,1.17078 7.5208,7.50096 -7.5208,7.5208 1.17078,1.17078 8.69158,-8.69158 z m -7.44142,0 -1.17079,1.17078 7.5208,7.50096 -7.5208,7.5208 1.17079,1.17078 8.69158,-8.69158 z m 28.29725,6.31032 -3.25438,3.63142 c -0.51594,0.635 -1.28985,1.01203 -2.10345,1.01203 -1.48828,0 -2.67891,-1.21047 -2.67891,-2.69875 v -2.46064 h -1.66688 v 2.46064 c 0,2.4011 1.94469,4.34579 4.34579,4.34579 1.28985,0 2.50032,-0.55563 3.33376,-1.54782 l 3.25439,-3.65126 c 0.51593,-0.635 1.28984,-0.99219 2.10344,-0.99219 1.48828,0 2.67891,1.19063 2.67891,2.67892 v 2.48047 h 1.64704 v -2.48047 c 0,-2.4011 -1.92485,-4.3458 -4.32595,-4.3458 -1.28985,0 -2.50032,0.57547 -3.33376,1.56766 z m 16.90691,-0.61515 -1.38906,0.91281 3.31391,4.96095 3.31392,-4.96095 -1.38907,-0.91281 -1.92485,3.19485 z"
       id="text1-0-5"
       style="font-size:19.8438px;line-height:23.8125px;font-family:'linja laso';-inkscape-font-specification:'linja laso';font-variant-ligatures:historical-ligatures;font-variant-numeric:oldstyle-nums proportional-nums slashed-zero;font-feature-settings:'ss02';letter-spacing:0px;word-spacing:0px;stroke-width:0.264583;stroke-miterlimit:10;paint-order:fill markers stroke"
       aria-label="ilo[sina,,ko,,]li liliikeelinjalili" />
    <path
       d="m 288.05187,204.70812 c -8.255,0 -14.88281,6.62782 -14.88281,14.88282 v 19.84375 c 0,8.255 6.62781,14.88281 14.88281,14.88281 h 1.66688 v -3.29406 h -1.66688 c -6.42937,0 -11.54906,-5.15938 -11.54906,-11.58875 v -19.84375 c 0,-6.42938 5.11969,-11.54907 11.54906,-11.54907 h 1.66688 v -3.33375 z m 21.51063,7.46125 c -9.56469,0 -17.34344,7.77875 -17.34344,17.34344 0,9.56469 7.77875,17.38313 17.34344,17.38313 9.56469,0 17.38312,-7.81844 17.38312,-17.38313 0,-9.56469 -7.81843,-17.34344 -17.38312,-17.34344 z m 0,3.29407 c 7.73906,0 14.04937,6.31031 14.04937,14.04937 0,7.73906 -6.31031,14.08906 -14.04937,14.08906 -7.73906,0 -14.04938,-6.35 -14.04938,-14.08906 0,-7.73906 6.31032,-14.04937 14.04938,-14.04937 z m -23.13781,33.89312 h 39.6875 z m 3.29406,-44.64844 c -0.91281,0 -1.66688,0.75407 -1.66688,1.66688 0,0.91281 0.75407,1.66687 1.66688,1.66687 h 39.6875 v -3.33375 z m 0,46.31532 c -0.91281,0 -1.66688,0.75406 -1.66688,1.66687 0,0.91281 0.75407,1.62719 1.66688,1.62719 h 39.6875 v -3.29406 z m 30.59906,13.21593 h 3.29406 v -11.54906 h -3.29406 z m -24.80469,0 h 3.29407 v -11.54906 h -3.29407 z m 16.51,0 h 3.33375 v -11.54906 h -3.33375 z m -8.255,0 h 3.33375 v -11.54906 h -3.33375 z m 27.305,-59.53125 h -1.66687 c -0.91281,0 -1.66688,0.75407 -1.66688,1.66688 0,0.91281 0.75407,1.66687 1.66688,1.66687 h 1.66687 c 6.42938,0 11.54907,5.11969 11.54907,11.54907 v 19.84375 c 0,6.42937 -5.11969,11.58875 -11.54907,11.58875 h -1.66687 c -0.91281,0 -1.66688,0.75406 -1.66688,1.66687 0,0.91281 0.75407,1.62719 1.66688,1.62719 h 1.66687 c 8.255,0 14.88282,-6.62781 14.88282,-14.88281 v -19.84375 c 0,-8.255 -6.62782,-14.88282 -14.88282,-14.88282 z m 21.47094,23.1775 v 3.29407 h 27.58281 l -9.24718,9.24718 2.34156,2.34157 10.91406,-10.91407 2.30188,-2.34156 -2.30188,-2.34156 -10.91406,-10.87438 -2.34156,2.34157 9.24718,9.24718 z"
       id="text1-0-5-7"
       style="font-size:39.6875px;line-height:47.625px;font-family:'linja laso';-inkscape-font-specification:'linja laso, Normal';font-variant-ligatures:historical-ligatures;font-variant-numeric:oldstyle-nums proportional-nums slashed-zero;letter-spacing:0px;word-spacing:0px;stroke-width:0.264583;stroke-miterlimit:10;paint-order:fill markers stroke"
       aria-label="[ijo,,,,]ni&gt;" />
    <path
       d="m 407.11437,204.70812 c -8.255,0 -14.88281,6.62782 -14.88281,14.88282 v 19.84375 c 0,8.255 6.62781,14.88281 14.88281,14.88281 h 1.66688 v -3.29406 h -1.66688 c -6.42937,0 -11.54906,-5.15938 -11.54906,-11.58875 v -19.84375 c 0,-6.42938 5.11969,-11.54907 11.54906,-11.54907 h 1.66688 v -3.33375 z m 21.51063,7.46125 c -9.56469,0 -17.34344,7.77875 -17.34344,17.34344 0,9.56469 7.77875,17.38313 17.34344,17.38313 9.56469,0 17.38312,-7.81844 17.38312,-17.38313 0,-9.56469 -7.81843,-17.34344 -17.38312,-17.34344 z m 0,3.29407 c 7.73906,0 14.04937,6.31031 14.04937,14.04937 0,7.73906 -6.31031,14.08906 -14.04937,14.08906 -7.73906,0 -14.04938,-6.35 -14.04938,-14.08906 0,-7.73906 6.31032,-14.04937 14.04938,-14.04937 z m -19.84375,-10.75532 -3.29406,1.66688 3.29406,1.66687 h 39.6875 v -3.33375 z m 33.89312,46.31532 h -3.29406 -4.96094 -3.33375 -4.92125 -3.33375 -4.96093 -3.29407 -5.79437 l -3.29406,1.66687 3.29406,1.62719 h 2.46062 l 3.33375,-3.29406 v 13.21593 h 3.29407 v -13.21593 l 2.50031,2.50031 2.46062,-2.50031 v 13.21593 h 3.33375 v -13.21593 l 2.46063,2.50031 2.46062,-2.50031 v 13.21593 h 3.33375 v -13.21593 l 2.46063,2.50031 2.50031,-2.50031 v 13.21593 h 3.29406 z m 0,0 3.33375,3.29406 h 2.46063 v -3.29406 z m 7.46125,-46.31532 h -1.66687 c -0.91281,0 -1.66688,0.75407 -1.66688,1.66688 0,0.91281 0.75407,1.66687 1.66688,1.66687 h 1.66687 c 6.42938,0 11.54907,5.11969 11.54907,11.54907 v 19.84375 c 0,6.42937 -5.11969,11.58875 -11.54907,11.58875 h -1.66687 c -0.91281,0 -1.66688,0.75406 -1.66688,1.66687 0,0.91281 0.75407,1.62719 1.66688,1.62719 h 1.66687 c 8.255,0 14.88282,-6.62781 14.88282,-14.88281 v -19.84375 c 0,-8.255 -6.62782,-14.88282 -14.88282,-14.88282 z"
       id="text1-0-5-7-5"
       style="font-size:39.6875px;line-height:47.625px;font-family:'linja laso';-inkscape-font-specification:'linja laso';font-variant-ligatures:historical-ligatures;font-variant-numeric:oldstyle-nums proportional-nums slashed-zero;font-feature-settings:'ss02';letter-spacing:0px;word-spacing:0px;stroke-width:0.264583;stroke-miterlimit:10;paint-order:fill markers stroke"
       aria-label="      [ijo,,,,]" />
    <path
       d="m 277.93158,157.63871 -0.79375,1.46844 c 2.57969,1.40891 4.30611,4.10767 4.30611,7.24299 0,3.13532 -1.72642,5.85392 -4.30611,7.26283 l 0.79375,1.44859 c 3.07579,-1.68672 5.17923,-4.96095 5.17923,-8.71142 0,-3.75048 -2.10344,-7.02471 -5.17923,-8.71143 z m 13.98988,-0.0595 -0.97234,1.32953 8.69158,6.21111 8.69158,-6.21111 -0.97234,-1.32953 -7.71924,5.49673 z m 7.71924,10.02111 -8.69158,6.19127 0.97234,1.34938 7.71924,-5.51658 7.71924,5.51658 0.97234,-1.34938 z m 19.01036,-13.65253 c -4.12751,0 -7.44143,3.31392 -7.44143,7.44143 v 9.9219 c 0,4.12751 3.31392,7.44142 7.44143,7.44142 h 0.83344 v -1.64704 h -0.83344 c -3.2147,0 -5.77455,-2.57969 -5.77455,-5.79438 v -9.9219 c 0,-3.2147 2.55985,-5.77455 5.77455,-5.77455 h 0.83344 v -1.66688 z m 5.79439,20.67724 c 2.28203,0 4.12751,-1.84547 4.12751,-4.12751 v -0.83344 c 0,-2.28204 -1.84548,-4.12751 -4.12751,-4.12751 -1.36923,0 -2.48048,-1.11125 -2.48048,-2.48048 v -0.83343 c 0,-1.36923 1.11125,-2.48048 2.48048,-2.48048 1.30969,0 2.4011,0.85328 2.75829,2.04391 l 1.36922,-1.05172 c -0.71438,-1.56766 -2.30188,-2.63923 -4.12751,-2.63923 -2.28204,0 -4.12751,1.84548 -4.12751,4.12752 v 0.83343 c 0,2.28204 1.84547,4.12752 4.12751,4.12752 1.36922,0 2.48047,1.11125 2.48047,2.48047 h 1.64704 -1.64704 v 0.83344 h 1.64704 -1.64704 c 0,1.36922 -1.11125,2.48047 -2.48047,2.48047 z m 0,0 v -1.64704 c -1.30969,0 -2.4011,-0.85328 -2.75829,-2.04391 l -1.36922,1.03188 c 0.71437,1.56766 2.30188,2.65907 4.12751,2.65907 z m -4.96095,-20.67724 c -0.45641,0 -0.83344,0.37703 -0.83344,0.83344 0,0.45641 0.37703,0.83344 0.83344,0.83344 h 9.9219 v -1.66688 z m 0,23.15771 c -0.45641,0 -0.83344,0.37704 -0.83344,0.83344 0,0.45641 0.37703,0.8136 0.83344,0.8136 h 9.9219 v -1.64704 z m 14.88285,-2.48047 c 2.28204,0 4.12751,-1.84547 4.12751,-4.12751 v -0.83344 c 0,-2.28204 -1.84547,-4.12751 -4.12751,-4.12751 -1.36922,0 -2.48048,-1.11125 -2.48048,-2.48048 v -0.83343 c 0,-1.36923 1.11126,-2.48048 2.48048,-2.48048 1.30969,0 2.4011,0.85328 2.75829,2.04391 l 1.36922,-1.05172 c -0.71438,-1.56766 -2.30188,-2.63923 -4.12751,-2.63923 -2.28204,0 -4.12751,1.84548 -4.12751,4.12752 v 0.83343 c 0,2.28204 1.84547,4.12752 4.12751,4.12752 1.36922,0 2.48047,1.11125 2.48047,2.48047 h 1.64704 -1.64704 v 0.83344 h 1.64704 -1.64704 c 0,1.36922 -1.11125,2.48047 -2.48047,2.48047 z m 0,0 v -1.64704 c -1.30969,0 -2.4011,-0.85328 -2.75829,-2.04391 l -1.36922,1.03188 c 0.71438,1.56766 2.30188,2.65907 4.12751,2.65907 z m -4.96095,-20.67724 c -0.45641,0 -0.83344,0.37703 -0.83344,0.83344 0,0.45641 0.37703,0.83344 0.83344,0.83344 h 9.9219 v -1.66688 z m 0,23.15771 c -0.45641,0 -0.83344,0.37704 -0.83344,0.83344 0,0.45641 0.37703,0.8136 0.83344,0.8136 h 9.9219 v -1.64704 z m 14.88285,-12.20393 c -0.79375,0 -1.4486,0.65484 -1.4486,1.4486 0,0.79375 0.65485,1.44859 1.4486,1.44859 0.79375,0 1.4486,-0.65484 1.4486,-1.44859 0,-0.79376 -0.65485,-1.4486 -1.4486,-1.4486 z m 0,-7.02471 c -2.28204,0 -4.12751,1.86532 -4.12751,4.14736 v 8.67174 c 0,2.28203 1.84547,4.12751 4.12751,4.12751 2.28204,0 4.12751,-1.84548 4.12751,-4.12751 v -8.67174 c 0,-2.28204 -1.84547,-4.14736 -4.12751,-4.14736 z m 0,1.66688 c 1.36922,0 2.48048,1.11126 2.48048,2.48048 v 8.67174 c 0,1.36922 -1.11126,2.48047 -2.48048,2.48047 -1.36922,0 -2.48047,-1.11125 -2.48047,-2.48047 v -8.67174 c 0,-1.36922 1.11125,-2.48048 2.48047,-2.48048 z m -4.96095,-5.59595 c -0.45641,0 -0.83344,0.37703 -0.83344,0.83344 0,0.45641 0.37703,0.83344 0.83344,0.83344 h 9.9219 v -1.66688 z m 0,23.15771 c -0.45641,0 -0.83344,0.37704 -0.83344,0.83344 0,0.45641 0.37703,0.8136 0.83344,0.8136 h 9.9219 v -1.64704 z m 14.88285,-19.22864 c -2.28204,0 -4.12751,1.86532 -4.12751,4.14736 h 1.64703 c 0,-1.36922 1.11126,-2.48048 2.48048,-2.48048 1.36922,0 2.48047,1.11126 2.48047,2.48048 0,0.49609 -0.15875,0.97234 -0.43656,1.38906 l -6.17142,9.04878 v 0.99219 1.17078 h 8.25502 v -1.64704 h -6.60799 l 5.89361,-8.63205 c 0.47625,-0.69453 0.71438,-1.48828 0.71438,-2.32172 0,-2.28204 -1.84547,-4.14736 -4.12751,-4.14736 z m -4.96095,-3.92907 c -0.45641,0 -0.83344,0.37703 -0.83344,0.83344 0,0.45641 0.37703,0.83344 0.83344,0.83344 h 9.9219 v -1.66688 z m 0,23.15771 c -0.45641,0 -0.83344,0.37704 -0.83344,0.83344 0,0.45641 0.37703,0.8136 0.83344,0.8136 h 9.9219 v -1.64704 z m 10.75534,-23.15771 h -0.83344 c -0.45641,0 -0.83344,0.37703 -0.83344,0.83344 0,0.45641 0.37703,0.83344 0.83344,0.83344 h 0.83344 c 3.21469,0 5.77454,2.55985 5.77454,5.77455 v 9.9219 c 0,3.21469 -2.55985,5.79438 -5.77454,5.79438 h -0.83344 c -0.45641,0 -0.83344,0.37704 -0.83344,0.83344 0,0.45641 0.37703,0.8136 0.83344,0.8136 h 0.83344 c 4.12751,0 7.44142,-3.31391 7.44142,-7.44142 v -9.9219 c 0,-4.12751 -3.31391,-7.44143 -7.44142,-7.44143 z m 14.0494,3.73064 -0.99219,1.30969 9.80284,7.36205 -9.80284,7.36205 0.99219,1.32953 11.56894,-8.69158 z m 19.84381,7.85814 v -5.57611 c 2.59954,0.67469 4.56407,2.87735 4.90142,5.57611 z m 0,1.64704 h 4.90142 c -0.33735,2.69875 -2.30188,4.90141 -4.90142,5.5761 z m -4.12751,0 h 2.48047 v 5.79438 0.41672 1.23032 c 4.28626,0 7.79862,-3.27423 8.21534,-7.44142 h 4.58391 l -2.81782,2.55985 1.17079,1.15094 4.54423,-4.54423 -4.54423,-4.54423 -1.17079,1.17078 2.81782,2.55985 h -4.58391 c -0.41672,-4.1672 -3.92908,-7.44143 -8.21534,-7.44143 v 1.23032 0.41672 5.79439 h -2.48047 z m 20.6574,-4.96095 c 0,4.56407 3.71079,8.27486 8.27486,8.27486 4.56407,0 8.27487,-3.71079 8.27487,-8.27486 h -1.66688 c 0,3.65125 -2.95673,6.60798 -6.60799,6.60798 -3.65126,0 -6.60798,-2.95673 -6.60798,-6.60798 z m 28.11866,-4.54423 -1.17079,1.17078 7.5208,7.50096 -7.5208,7.5208 1.17079,1.17078 8.69158,-8.69158 z m -7.44143,0 -1.17078,1.17078 7.5208,7.50096 -7.5208,7.5208 1.17078,1.17078 8.69159,-8.69158 z m 27.28522,3.71079 c -1.68672,0 -3.37344,0.47625 -4.82204,1.34937 -1.4486,0.87313 -2.65907,2.12329 -3.45282,3.61158 0.79375,1.48828 2.00422,2.75828 3.45282,3.63141 1.4486,0.87313 3.13532,1.32954 4.82204,1.32954 1.68673,0 3.37345,-0.45641 4.82205,-1.32954 1.44859,-0.87313 2.65906,-2.14313 3.45282,-3.63141 -0.79376,-1.48829 -2.00423,-2.73845 -3.45282,-3.61158 -1.4486,-0.87312 -3.13532,-1.34937 -4.82205,-1.34937 z m 0,1.66687 c 1.38907,0 2.77813,0.37704 3.96876,1.09141 0.93266,0.55563 1.74626,1.30969 2.36141,2.20267 -0.61515,0.89297 -1.42875,1.66687 -2.36141,2.2225 -1.19063,0.71438 -2.57969,1.09141 -3.96876,1.09141 -1.38906,0 -2.77813,-0.37703 -3.96876,-1.09141 -0.93266,-0.55563 -1.74625,-1.32953 -2.36141,-2.2225 0.61516,-0.89298 1.42875,-1.64704 2.36141,-2.20267 1.19063,-0.71437 2.5797,-1.09141 3.96876,-1.09141 z m 0,1.23032 c -1.13109,0 -2.06375,0.93266 -2.06375,2.06376 0,1.13109 0.93266,2.08359 2.06375,2.08359 1.1311,0 2.06376,-0.9525 2.06376,-2.08359 0,-1.1311 -0.93266,-2.06376 -2.06376,-2.06376 z"
       id="text1-0-1-4"
       style="font-size:19.8438px;line-height:23.8125px;font-family:'linja laso';-inkscape-font-specification:'linja laso';font-variant-ligatures:historical-ligatures;font-variant-numeric:oldstyle-nums proportional-nums slashed-zero;font-feature-settings:'ss02';letter-spacing:0px;word-spacing:0px;stroke-width:0.264583;stroke-miterlimit:10;paint-order:fill markers stroke"
       aria-label="laante[SS02]lialasaponaelukin" />
    <g
       id="text1-9"
       style="font-weight:500;font-size:19.8438px;line-height:23.8125px;font-family:'linja laso UCSUR';-inkscape-font-specification:'linja laso UCSUR Medium';font-variant-ligatures:historical-ligatures;font-variant-numeric:oldstyle-nums proportional-nums slashed-zero;font-feature-settings:'ss02';letter-spacing:0px;word-spacing:0px;stroke-width:0.264583;stroke-miterlimit:10;paint-order:fill markers stroke"
       aria-label="indented tickmarks&#10;(SS02)">
      <path
         d="m 271.62125,20.83591 v 1.98438 h 2.22251 V 31.75 h 1.98438 V 20.83591 h -1.74625 -0.23813 z m 3.2147,-4.464855 c -0.8136,0 -1.48829,0.67469 -1.48829,1.488285 0,0.813596 0.67469,1.488285 1.48829,1.488285 0.8136,0 1.48828,-0.674689 1.48828,-1.488285 0,-0.813595 -0.67468,-1.488285 -1.48828,-1.488285 z m 5.95314,4.464855 V 31.75 h 1.98438 v -7.183455 c 0,-1.091409 0.89297,-1.98438 1.98438,-1.98438 1.09141,0 1.98438,0.892971 1.98438,1.98438 V 31.75 h 1.98438 v -7.699394 c 0,-1.924849 -1.54782,-3.452821 -3.47267,-3.452821 -0.9525,0 -1.86531,0.436563 -2.48047,1.051721 V 20.83591 Z m 13.89066,1.746255 c 1.09141,0 1.98438,0.892971 1.98438,1.98438 v 3.452821 c 0,1.091409 -0.89297,1.98438 -1.98438,1.98438 -1.09141,0 -1.98438,-0.892971 -1.98438,-1.98438 v -3.452821 c 0,-1.091409 0.89297,-1.98438 1.98438,-1.98438 z m 3.96876,-6.707205 h -1.98438 v 5.774546 c -0.61516,-0.615158 -1.52797,-1.051721 -2.48048,-1.051721 -1.92484,0 -3.47266,1.527972 -3.47266,3.452821 v 4.484698 c 0,1.924849 1.54782,3.452822 3.47266,3.452822 0.95251,0 1.86532,-0.436564 2.48048,-1.051722 V 31.75 h 1.98438 z m 5.95314,6.707205 c 1.09141,0 1.98438,0.892971 1.98438,1.98438 v 0.238125 h -3.96876 v -0.238125 c 0,-1.091409 0.89297,-1.98438 1.98438,-1.98438 z m 0,-1.98438 c -2.16297,0 -3.96876,1.805785 -3.96876,3.96876 v 3.333758 c 0,2.262193 1.82563,4.087823 4.08782,4.087823 1.94469,0 3.61157,-1.309691 4.00845,-3.175008 l -1.90501,-0.793752 c -0.0595,1.111252 -0.99219,1.98438 -2.10344,1.98438 -1.17078,0 -2.10344,-0.932659 -2.10344,-2.103443 V 26.78905 h 5.95314 v -1.98438 -0.238125 c 0,-2.162975 -1.80579,-3.96876 -3.96876,-3.96876 z m 5.95314,0.238125 V 31.75 h 1.98438 v -7.183455 c 0,-1.091409 0.89297,-1.98438 1.98438,-1.98438 1.09141,0 1.98438,0.892971 1.98438,1.98438 V 31.75 h 1.98438 v -7.699394 c 0,-1.924849 -1.54782,-3.452821 -3.47267,-3.452821 -0.9525,0 -1.86531,0.436563 -2.48047,1.051721 V 20.83591 Z m 11.66815,-2.97657 v 2.97657 h -1.50813 v 1.98438 h 1.50813 v 5.834077 c 0,1.865317 1.46844,3.333759 3.33376,3.333759 1.64704,0 3.01626,-1.170785 3.29407,-2.758289 l -1.92485,-0.57547 c 0,0.754065 -0.61516,1.349379 -1.36922,1.349379 -0.75406,0 -1.34938,-0.595314 -1.34938,-1.349379 V 22.82029 h 3.45282 v -1.98438 h -3.45282 v -2.97657 z m 12.14441,4.722825 c 1.09141,0 1.98438,0.892971 1.98438,1.98438 v 0.238125 h -3.96876 v -0.238125 c 0,-1.091409 0.89297,-1.98438 1.98438,-1.98438 z m 0,-1.98438 c -2.16298,0 -3.96876,1.805785 -3.96876,3.96876 v 3.333758 c 0,2.262193 1.82563,4.087823 4.08782,4.087823 1.94469,0 3.61157,-1.309691 4.00845,-3.175008 l -1.90501,-0.793752 c -0.0595,1.111252 -0.99219,1.98438 -2.10344,1.98438 -1.17078,0 -2.10344,-0.932659 -2.10344,-2.103443 V 26.78905 h 5.95314 v -1.98438 -0.238125 c 0,-2.162975 -1.80579,-3.96876 -3.96876,-3.96876 z m 9.9219,1.98438 c 1.09141,0 1.98438,0.892971 1.98438,1.98438 v 3.452821 c 0,1.091409 -0.89297,1.98438 -1.98438,1.98438 -1.09141,0 -1.98438,-0.892971 -1.98438,-1.98438 v -3.452821 c 0,-1.091409 0.89297,-1.98438 1.98438,-1.98438 z m 3.96876,-6.707205 h -1.98438 v 5.774546 c -0.61516,-0.615158 -1.52797,-1.051721 -2.48047,-1.051721 -1.92485,0 -3.47267,1.527972 -3.47267,3.452821 v 4.484698 c 0,1.924849 1.54782,3.452822 3.47267,3.452822 0.9525,0 1.86531,-0.436564 2.48047,-1.051722 V 31.75 h 1.98438 z m 13.65253,1.98438 v 2.97657 h -1.50813 v 1.98438 h 1.50813 v 5.834077 c 0,1.865317 1.46844,3.333759 3.33376,3.333759 1.64703,0 3.01626,-1.170785 3.29407,-2.758289 l -1.92485,-0.57547 c 0,0.754065 -0.61516,1.349379 -1.36922,1.349379 -0.75407,0 -1.34938,-0.595314 -1.34938,-1.349379 V 22.82029 h 3.45282 v -1.98438 h -3.45282 v -2.97657 z m 8.92971,2.97657 v 1.98438 h 2.2225 V 31.75 h 1.98438 V 20.83591 h -1.74625 -0.23813 z m 3.21469,-4.464855 c -0.81359,0 -1.48828,0.67469 -1.48828,1.488285 0,0.813596 0.67469,1.488285 1.48828,1.488285 0.8136,0 1.48829,-0.674689 1.48829,-1.488285 0,-0.813595 -0.67469,-1.488285 -1.48829,-1.488285 z m 10.04097,4.22673 c -2.26219,0 -4.08782,1.825629 -4.08782,4.087822 v 3.214696 c 0,2.262193 1.82563,4.087823 4.08782,4.087823 1.94469,0 3.61157,-1.309691 4.00845,-3.175008 l -1.905,-0.793752 c -0.0595,1.111252 -0.99219,1.98438 -2.10345,1.98438 -1.17078,0 -2.10344,-0.932659 -2.10344,-2.103443 v -1.607348 -1.607348 c 0,-1.170784 0.93266,-2.103442 2.10344,-2.103442 1.11126,0 2.04391,0.873127 2.10345,1.98438 l 1.905,-0.793752 c -0.39688,-1.865318 -2.06376,-3.175008 -4.00845,-3.175008 z m 5.83408,-4.722825 V 31.75 h 1.98438 v -4.8022 l 3.51235,4.8022 h 2.44079 l -3.96876,-5.457045 3.96876,-5.457045 h -2.44079 l -3.51235,4.8022 v -9.76315 z m 13.2755,4.722825 c -0.89297,0 -1.60735,0.714376 -1.60735,1.607347 V 20.83591 h -1.98438 V 31.75 h 1.98438 v -8.552678 c 0,-0.337344 0.27781,-0.615157 0.61516,-0.615157 0.33734,0 0.61516,0.277813 0.61516,0.615157 V 31.75 h 1.98438 v -8.552678 c 0,-0.337344 0.27781,-0.615157 0.61515,-0.615157 0.33735,0 0.61516,0.277813 0.61516,0.615157 V 31.75 h 1.98438 v -9.544868 c 0,-0.892971 -0.71438,-1.607347 -1.60735,-1.607347 -0.89297,0 -1.60734,0.714376 -1.60734,1.607347 0,-0.892971 -0.71438,-1.607347 -1.60735,-1.607347 z m 9.66393,6.68736 h 2.85751 c -0.0595,1.527973 -1.32953,2.718601 -2.85751,2.718601 -0.75406,0 -1.34937,-0.595314 -1.34937,-1.349379 0,-0.754064 0.59531,-1.369222 1.34937,-1.369222 z m 0.87313,-6.68736 c -2.87735,0 -4.34579,2.282037 -4.34579,2.321724 l 1.36922,1.647036 c 0.45641,-1.170785 1.60735,-1.98438 2.97657,-1.98438 1.09141,0 1.98438,0.892971 1.98438,1.98438 v 0.73422 h -3.09563 c -1.74626,0.119063 -3.09563,1.587504 -3.09563,3.353602 0,1.865317 1.46844,3.333759 3.33375,3.333759 1.09141,0 2.04392,-0.317501 2.85751,-0.912815 V 31.253905 31.75 h 1.98438 v -7.183455 c 0,-2.162975 -1.80578,-3.96876 -3.96876,-3.96876 z m 10.53705,0 c -1.03188,0 -1.94469,0.436563 -2.59954,1.111252 V 20.83591 h -1.98438 V 31.75 h 1.98438 v -5.080013 -1.98438 c 0,-1.170784 0.93266,-2.103442 2.10344,-2.103442 1.17079,0 2.10345,0.932658 2.10345,2.103442 l 1.905,-1.30969 c -0.37703,-1.587504 -1.80578,-2.778132 -3.51235,-2.778132 z m 5.33799,-4.722825 V 31.75 h 1.98438 v -4.8022 l 3.51235,4.8022 h 2.44079 l -3.96876,-5.457045 3.96876,-5.457045 h -2.44079 l -3.51235,4.8022 v -9.76315 z m 12.89847,4.96095 c -1.80578,0 -3.21469,1.40891 -3.21469,3.214696 0,1.805786 1.40891,3.234539 3.21469,3.234539 h 1.98438 c 0.67469,0 1.23032,0.57547 1.23032,1.250159 0,0.67469 -0.55563,1.230316 -1.23032,1.230316 h -1.98438 c -0.75406,0 -1.36922,-0.615158 -1.36922,-1.369222 l -1.92485,0.615158 c 0.3175,1.587504 1.68672,2.738444 3.29407,2.738444 h 1.98438 c 1.80579,0 3.2147,-1.40891 3.2147,-3.214696 0,-1.805785 -1.40891,-3.234539 -3.2147,-3.234539 h -1.98438 c -0.67469,0 -1.23031,-0.57547 -1.23031,-1.250159 0,-0.674689 0.55562,-1.230316 1.23031,-1.230316 h 1.98438 c 0.75407,0 1.36922,0.615158 1.36922,1.369222 l 1.92485,-0.615157 c -0.3175,-1.587504 -1.68672,-2.738445 -3.29407,-2.738445 z"
         id="path1" />
      <path
         d="m 276.5822,38.933395 c -2.8575,1.746254 -4.72282,4.881575 -4.72282,8.453459 0,3.571883 1.86532,6.667516 4.72282,8.413771 0,0 1.05173,-1.627192 1.05173,-1.66688 0,-0.09922 -3.79017,-2.004223 -3.79017,-6.746891 0,-2.857508 1.52797,-5.37767 3.79017,-6.766736 z m 8.29471,9.9219 c 1.09141,0 1.98438,0.892971 1.98438,1.98438 v 1.250159 c 0,1.091409 -0.89297,1.98438 -1.98438,1.98438 -1.09141,0 -1.98438,-0.892971 -1.98438,-1.98438 h -1.98438 c 0,2.162974 1.80579,3.96876 3.96876,3.96876 2.16298,0 3.96876,-1.805786 3.96876,-3.96876 v -1.250159 c 0,-2.162975 -1.80578,-3.96876 -3.96876,-3.96876 -1.09141,0 -1.98438,-0.892971 -1.98438,-1.98438 v -1.230316 c 0,-1.091409 0.89297,-1.98438 1.98438,-1.98438 1.09141,0 1.98438,0.892971 1.98438,1.98438 h 1.98438 c 0,-2.162974 -1.80578,-3.96876 -3.96876,-3.96876 -2.16297,0 -3.96876,1.805786 -3.96876,3.96876 v 1.230316 c 0,2.162974 1.80579,3.96876 3.96876,3.96876 z m 9.9219,0 c 1.09141,0 1.98438,0.892971 1.98438,1.98438 v 1.250159 c 0,1.091409 -0.89297,1.98438 -1.98438,1.98438 -1.09141,0 -1.98438,-0.892971 -1.98438,-1.98438 h -1.98438 c 0,2.162974 1.80579,3.96876 3.96876,3.96876 2.16298,0 3.96876,-1.805786 3.96876,-3.96876 v -1.250159 c 0,-2.162975 -1.80578,-3.96876 -3.96876,-3.96876 -1.09141,0 -1.98438,-0.892971 -1.98438,-1.98438 v -1.230316 c 0,-1.091409 0.89297,-1.98438 1.98438,-1.98438 1.09141,0 1.98438,0.892971 1.98438,1.98438 h 1.98438 c 0,-2.162974 -1.80578,-3.96876 -3.96876,-3.96876 -2.16297,0 -3.96876,1.805786 -3.96876,3.96876 v 1.230316 c 0,2.162974 1.80579,3.96876 3.96876,3.96876 z m 7.81846,-1.82563 1.30969,1.270003 2.65907,2.698757 v 0.83344 c 0,1.091409 -0.89297,1.98438 -1.98438,1.98438 -1.09141,0 -1.98438,-0.892971 -1.98438,-1.98438 z m 1.98438,-5.595951 c 1.09141,0 1.98438,0.892971 1.98438,1.98438 v 4.802199 l -1.30969,-1.270003 -2.65907,-2.460631 v -1.071565 c 0,-1.091409 0.89297,-1.98438 1.98438,-1.98438 z m 0,-1.98438 c -2.20266,0 -3.96876,1.766098 -3.96876,3.96876 v 8.413771 c 0,2.202661 1.7661,3.96876 3.96876,3.96876 2.20266,0 3.96876,-1.766099 3.96876,-3.96876 v -8.413771 c 0,-2.202662 -1.7661,-3.96876 -3.96876,-3.96876 z m 11.90628,4.96095 c 0,0.396876 -0.13891,0.793752 -0.37703,1.131096 l -5.57611,8.036739 v 1.98438 h 7.93752 v -1.98438 h -5.51658 l 4.8022,-6.905642 c 0.45641,-0.674689 0.71438,-1.448598 0.71438,-2.262193 v -0.99219 c 0,-2.162975 -1.80579,-3.96876 -3.96876,-3.96876 -2.16298,0 -3.96876,1.805785 -3.96876,3.96876 v 0.73422 h 1.98438 v -0.73422 c 0,-1.091409 0.89297,-1.98438 1.98438,-1.98438 1.09141,0 1.98438,0.892971 1.98438,1.98438 z m 6.44923,-5.476889 -1.05172,1.686723 c 2.26219,1.389066 3.77032,3.909228 3.77032,6.766736 0,2.857507 -1.50813,5.357825 -3.77032,6.746891 l 1.05172,1.66688 c 2.85751,-1.746255 4.70298,-4.841888 4.70298,-8.413771 0,-3.571884 -1.84547,-6.707205 -4.70298,-8.453459 z"
         id="path2" />
    </g>
  </g>
</svg>
