<?xml version="1.0" encoding="UTF-8" standalone="no"?>
<!-- Created with Inkscape (http://www.inkscape.org/) -->

<svg
   width="110mm"
   height="130mm"
   viewBox="0 0 110 130"
   version="1.1"
   id="svg1"
   inkscape:version="1.3.2 (091e20ef0f, 2023-11-25, custom)"
   sodipodi:docname="Aring.svg"
   xmlns:inkscape="http://www.inkscape.org/namespaces/inkscape"
   xmlns:sodipodi="http://sodipodi.sourceforge.net/DTD/sodipodi-0.dtd"
   xmlns="http://www.w3.org/2000/svg"
   xmlns:svg="http://www.w3.org/2000/svg">
  <sodipodi:namedview
     id="namedview1"
     pagecolor="#505050"
     bordercolor="#eeeeee"
     borderopacity="1"
     inkscape:showpageshadow="0"
     inkscape:pageopacity="0"
     inkscape:pagecheckerboard="0"
     inkscape:deskcolor="#505050"
     inkscape:document-units="mm"
     showgrid="true"
     inkscape:zoom="0.94222029"
     inkscape:cx="67.924667"
     inkscape:cy="265.86139"
     inkscape:window-width="1354"
     inkscape:window-height="733"
     inkscape:window-x="5"
     inkscape:window-y="5"
     inkscape:window-maximized="1"
     inkscape:current-layer="layer1">
    <inkscape:grid
       id="grid1"
       units="mm"
       originx="0"
       originy="0"
       spacingx="2.5000001"
       spacingy="2.5000001"
       empcolor="#ffffff"
       empopacity="0.30196078"
       color="#ffffff"
       opacity="0.14901961"
       empspacing="4"
       dotted="false"
       gridanglex="30"
       gridanglez="30"
       visible="true" />
  </sodipodi:namedview>
  <defs
     id="defs1" />
  <g
     inkscape:label="Layer 1"
     inkscape:groupmode="layer"
     id="layer1">
    <path
       id="rect1"
       style="fill:#000000;stroke-width:4.04182;fill-opacity:1"
       d="M 54.999744 0 A 15 15 0 0 0 40.000142 15.000118 A 15 15 0 0 0 47.16663 27.769881 L 19.999813 110 L 30.528886 110 L 40.441459 79.999768 L 69.558545 79.999768 L 79.471118 110 L 90.000191 110 L 62.838542 27.785901 A 15 15 0 0 0 69.999862 15.000118 A 15 15 0 0 0 54.999744 0 z M 54.999744 9.9999064 A 4.9999995 5 0 0 1 59.999955 15.000118 A 4.9999995 5 0 0 1 55.00026 19.999813 L 54.999744 19.999813 A 4.9999995 5 0 0 1 50.000049 15.000118 A 4.9999995 5 0 0 1 54.999744 9.9999064 z M 55.00026 35.937858 L 66.254871 69.999862 L 43.74565 69.999862 L 55.00026 35.937858 z " />
  </g>
</svg>
