<?xml version="1.0" encoding="UTF-8" standalone="no"?>
<!-- Created with Inkscape (http://www.inkscape.org/) -->

<svg
   width="110mm"
   height="130mm"
   viewBox="0 0 110 130"
   version="1.1"
   id="svg1"
   inkscape:version="1.3.2 (091e20ef0f, 2023-11-25, custom)"
   sodipodi:docname="Atilde.svg"
   xmlns:inkscape="http://www.inkscape.org/namespaces/inkscape"
   xmlns:sodipodi="http://sodipodi.sourceforge.net/DTD/sodipodi-0.dtd"
   xmlns="http://www.w3.org/2000/svg"
   xmlns:svg="http://www.w3.org/2000/svg">
  <sodipodi:namedview
     id="namedview1"
     pagecolor="#505050"
     bordercolor="#eeeeee"
     borderopacity="1"
     inkscape:showpageshadow="0"
     inkscape:pageopacity="0"
     inkscape:pagecheckerboard="0"
     inkscape:deskcolor="#505050"
     inkscape:document-units="mm"
     showgrid="true"
     inkscape:zoom="0.81093024"
     inkscape:cx="146.74505"
     inkscape:cy="337.26699"
     inkscape:window-width="1354"
     inkscape:window-height="733"
     inkscape:window-x="5"
     inkscape:window-y="5"
     inkscape:window-maximized="1"
     inkscape:current-layer="layer1">
    <inkscape:grid
       id="grid1"
       units="mm"
       originx="0"
       originy="0"
       spacingx="2.5000001"
       spacingy="2.5000001"
       empcolor="#ffffff"
       empopacity="0.30196078"
       color="#ffffff"
       opacity="0.14901961"
       empspacing="4"
       dotted="false"
       gridanglex="30"
       gridanglez="30"
       visible="true" />
  </sodipodi:namedview>
  <defs
     id="defs1" />
  <g
     inkscape:label="Layer 1"
     inkscape:groupmode="layer"
     id="layer1">
    <path
       id="rect1"
       style="fill:#000000;stroke-width:4.04182;fill-opacity:1"
       d="M 49.733915 19.999813 L 19.999813 110 L 30.528886 110 L 55.00026 35.937858 L 79.471118 110 L 90.000191 110 L 60.266089 19.999813 L 55.00026 19.999813 L 49.733915 19.999813 z " />
    <rect
       style="vector-effect:non-scaling-stroke;fill:#000000;fill-opacity:1;stroke:none;stroke-width:0.264583;stroke-dasharray:none;stroke-opacity:1;-inkscape-stroke:hairline"
       id="rect5"
       width="37.5"
       height="10"
       x="35"
       y="70" />
    <path
       id="path4"
       style="font-variation-settings:'wght' 400;vector-effect:non-scaling-stroke;fill:#000000;stroke:none;stroke-width:0.264584;stroke-linejoin:round;stroke-miterlimit:40;-inkscape-stroke:hairline;paint-order:stroke fill markers"
       d="M 47.93092,-0.86067095 A 14.999929,14.999929 0 0 0 32.930802,14.139447 L 42.931225,14.13893 A 5.000001,5.000001 0 0 1 47.93092,9.1392362 5.000001,5.000001 0 0 1 51.463004,10.606329 14.999929,14.999929 0 0 0 62.069075,14.99986 14.999929,14.999929 0 0 0 77.069193,-2.5835e-4 L 67.06877,2.5835e-4 A 5.000001,5.000001 0 0 1 62.069075,4.9999532 5.000001,5.000001 0 0 1 58.536991,3.5328593 14.999929,14.999929 0 0 0 47.93092,-0.86067095 Z" />
  </g>
</svg>
