<?xml version="1.0" encoding="UTF-8" standalone="no"?>
<!-- Created with Inkscape (http://www.inkscape.org/) -->

<svg
   width="110mm"
   height="130mm"
   viewBox="0 0 110 130"
   version="1.1"
   id="svg1"
   inkscape:version="1.3.2 (091e20ef0f, 2023-11-25, custom)"
   sodipodi:docname="ESZETT.svg"
   xmlns:inkscape="http://www.inkscape.org/namespaces/inkscape"
   xmlns:sodipodi="http://sodipodi.sourceforge.net/DTD/sodipodi-0.dtd"
   xmlns="http://www.w3.org/2000/svg"
   xmlns:svg="http://www.w3.org/2000/svg">
  <sodipodi:namedview
     id="namedview1"
     pagecolor="#505050"
     bordercolor="#eeeeee"
     borderopacity="1"
     inkscape:showpageshadow="0"
     inkscape:pageopacity="0"
     inkscape:pagecheckerboard="0"
     inkscape:deskcolor="#505050"
     inkscape:document-units="mm"
     showgrid="true"
     inkscape:zoom="1.0327458"
     inkscape:cx="189.78533"
     inkscape:cy="281.28898"
     inkscape:window-width="1354"
     inkscape:window-height="733"
     inkscape:window-x="5"
     inkscape:window-y="5"
     inkscape:window-maximized="1"
     inkscape:current-layer="layer1">
    <inkscape:grid
       id="grid1"
       units="mm"
       originx="0"
       originy="0"
       spacingx="2.5000001"
       spacingy="2.5000001"
       empcolor="#ffffff"
       empopacity="0.30196078"
       color="#ffffff"
       opacity="0.14901961"
       empspacing="4"
       dotted="false"
       gridanglex="30"
       gridanglez="30"
       visible="true" />
  </sodipodi:namedview>
  <defs
     id="defs1" />
  <g
     inkscape:label="Layer 1"
     inkscape:groupmode="layer"
     id="layer1">
    <path
       id="path14"
       style="vector-effect:non-scaling-stroke;fill:#000000;stroke:none;stroke-width:0.365881;stroke-opacity:1;-inkscape-stroke:hairline"
       d="M 44.999837 19.999813 C 33.954108 19.999915 24.999841 28.954413 25.000024 40.000142 L 25.000024 110 L 34.999931 110 L 34.999931 40.000142 C 34.999982 34.47738 39.477075 30.000287 44.999837 30.000236 L 58.362846 30.000236 L 44.999837 50.000049 L 44.999837 59.999955 C 56.045603 59.999709 65.000128 68.954002 65.000167 79.999768 C 65.000128 91.045534 56.045603 99.999827 44.999837 99.999581 L 44.999837 110 L 45.000354 110 C 61.568685 109.99991 74.99998 96.568616 75.000073 80.000285 C 74.997267 67.563653 67.321294 56.418262 55.70306 51.981323 L 75.000073 23.099882 L 75.000073 19.999813 L 44.999837 19.999813 z " />
  </g>
</svg>
