<?xml version="1.0" encoding="UTF-8" standalone="no"?>
<!-- Created with Inkscape (http://www.inkscape.org/) -->

<svg
   width="110mm"
   height="130mm"
   viewBox="0 0 110 130"
   version="1.1"
   id="svg1"
   inkscape:version="1.3.2 (091e20ef0f, 2023-11-25, custom)"
   sodipodi:docname="Ntilde.svg"
   xmlns:inkscape="http://www.inkscape.org/namespaces/inkscape"
   xmlns:sodipodi="http://sodipodi.sourceforge.net/DTD/sodipodi-0.dtd"
   xmlns="http://www.w3.org/2000/svg"
   xmlns:svg="http://www.w3.org/2000/svg">
  <sodipodi:namedview
     id="namedview1"
     pagecolor="#505050"
     bordercolor="#eeeeee"
     borderopacity="1"
     inkscape:showpageshadow="0"
     inkscape:pageopacity="0"
     inkscape:pagecheckerboard="0"
     inkscape:deskcolor="#505050"
     inkscape:document-units="mm"
     showgrid="true"
     inkscape:zoom="0.93893189"
     inkscape:cx="101.1788"
     inkscape:cy="169.87388"
     inkscape:window-width="1354"
     inkscape:window-height="733"
     inkscape:window-x="5"
     inkscape:window-y="5"
     inkscape:window-maximized="1"
     inkscape:current-layer="layer1">
    <inkscape:grid
       id="grid1"
       units="mm"
       originx="0"
       originy="0"
       spacingx="2.5000001"
       spacingy="2.5000001"
       empcolor="#ffffff"
       empopacity="0.30196078"
       color="#ffffff"
       opacity="0.14901961"
       empspacing="4"
       dotted="false"
       gridanglex="30"
       gridanglez="30"
       visible="true" />
  </sodipodi:namedview>
  <defs
     id="defs1" />
  <g
     inkscape:label="Layer 1"
     inkscape:groupmode="layer"
     id="layer1">
    <path
       id="rect18"
       style="vector-effect:non-scaling-stroke;fill:#000000;stroke-width:0.264583;-inkscape-stroke:hairline"
       d="M 25.000024 19.999813 L 25.000024 110 L 34.999931 110 L 34.999931 40.127783 L 75.000073 110 L 84.99998 110 L 84.99998 19.999813 L 75.000073 19.999813 L 75.000073 89.757312 L 34.999931 19.999813 L 25.000024 19.999813 z " />
    <path
       id="path4"
       style="font-variation-settings:'wght' 400;vector-effect:non-scaling-stroke;fill:#000000;stroke:none;stroke-width:0.264584;stroke-linejoin:round;stroke-miterlimit:40;-inkscape-stroke:hairline;paint-order:stroke fill markers"
       d="M 47.93092,-0.860413 A 14.999929,14.999929 0 0 0 32.930802,14.139705 l 10.000423,-5.17e-4 A 5.000001,5.000001 0 0 1 47.93092,9.1394939 5.000001,5.000001 0 0 1 51.463004,10.606587 14.999929,14.999929 0 0 0 62.069075,15.000118 14.999929,14.999929 0 0 0 77.069193,0 L 67.06877,5.16e-4 A 5.000001,5.000001 0 0 1 62.069075,5.000211 5.000001,5.000001 0 0 1 58.536991,3.533117 14.999929,14.999929 0 0 0 47.93092,-0.860413 Z" />
  </g>
</svg>
